LibraSans-Regular.ufo
<glyph name="percent" format="1">
  <advance width="889"/>
  <unicode hex="0025"/>
  <outline>
    <contour>
      <point x="854" y="212" type="curve" smooth="yes"/>
      <point x="854" y="72"/>
      <point x="800" y="-6"/>
      <point x="697" y="-6" type="curve" smooth="yes"/>
      <point x="596" y="-6"/>
      <point x="543" y="68"/>
      <point x="543" y="212" type="curve" smooth="yes"/>
      <point x="543" y="360"/>
      <point x="591" y="432"/>
      <point x="699" y="432" type="curve" smooth="yes"/>
      <point x="806" y="432"/>
      <point x="854" y="356"/>
    </contour>
    <contour>
      <point x="708" y="688" type="line"/>
      <point x="257" y="0" type="line"/>
      <point x="182" y="0" type="line"/>
      <point x="632" y="688" type="line"/>
    </contour>
    <contour>
      <point x="192" y="694" type="curve" smooth="yes"/>
      <point x="296" y="694"/>
      <point x="345" y="620"/>
      <point x="345" y="476" type="curve" smooth="yes"/>
      <point x="345" y="335"/>
      <point x="294" y="256"/>
      <point x="190" y="256" type="curve" smooth="yes"/>
      <point x="87" y="256"/>
      <point x="36" y="333"/>
      <point x="36" y="476" type="curve" smooth="yes"/>
      <point x="36" y="621"/>
      <point x="84" y="694"/>
    </contour>
    <contour>
      <point x="781" y="212" type="curve" smooth="yes"/>
      <point x="781" y="328"/>
      <point x="759" y="378"/>
      <point x="699" y="378" type="curve" smooth="yes"/>
      <point x="640" y="378"/>
      <point x="615" y="331"/>
      <point x="615" y="212" type="curve" smooth="yes"/>
      <point x="615" y="100"/>
      <point x="639" y="48"/>
      <point x="698" y="48" type="curve" smooth="yes"/>
      <point x="755" y="48"/>
      <point x="781" y="101"/>
    </contour>
    <contour>
      <point x="273" y="476" type="curve" smooth="yes"/>
      <point x="273" y="591"/>
      <point x="251" y="641"/>
      <point x="192" y="641" type="curve" smooth="yes"/>
      <point x="131" y="641"/>
      <point x="107" y="592"/>
      <point x="107" y="476" type="curve" smooth="yes"/>
      <point x="107" y="364"/>
      <point x="131" y="311"/>
      <point x="191" y="311" type="curve" smooth="yes"/>
      <point x="248" y="311"/>
      <point x="273" y="365"/>
    </contour>
  </outline>
</glyph>
<glyph name="ampersand" format="1">
  <advance width="667"/>
  <unicode hex="0026"/>
  <outline>
    <contour>
      <point x="583" y="-6" type="curve" smooth="yes"/>
      <point x="525" y="-6"/>
      <point x="476" y="15"/>
      <point x="437" y="56" type="curve"/>
      <point x="388" y="13"/>
      <point x="324" y="-10"/>
      <point x="255" y="-10" type="curve" smooth="yes"/>
      <point x="115" y="-10"/>
      <point x="35" y="61"/>
      <point x="35" y="181" type="curve" smooth="yes"/>
      <point x="35" y="272"/>
      <point x="91" y="342"/>
      <point x="203" y="391" type="curve"/>
      <point x="182" y="431"/>
      <point x="163" y="493"/>
      <point x="163" y="538" type="curve" smooth="yes"/>
      <point x="163" y="635"/>
      <point x="225" y="692"/>
      <point x="334" y="692" type="curve" smooth="yes"/>
      <point x="433" y="692"/>
      <point x="499" y="640"/>
      <point x="499" y="553" type="curve" smooth="yes"/>
      <point x="499" y="477"/>
      <point x="446" y="421"/>
      <point x="299" y="362" type="curve"/>
      <point x="335" y="295"/>
      <point x="383" y="228"/>
      <point x="442" y="161" type="curve"/>
      <point x="479" y="215"/>
      <point x="506" y="282"/>
      <point x="525" y="361" type="curve"/>
      <point x="596" y="340" type="line"/>
      <point x="575" y="259"/>
      <point x="541" y="182"/>
      <point x="493" y="111" type="curve"/>
      <point x="524" y="79"/>
      <point x="558" y="63"/>
      <point x="594" y="63" type="curve" smooth="yes"/>
      <point x="617" y="63"/>
      <point x="636" y="66"/>
      <point x="651" y="71" type="curve"/>
      <point x="651" y="5" type="line"/>
      <point x="633" y="-2"/>
      <point x="610" y="-6"/>
    </contour>
    <contour>
      <point x="424" y="553" type="curve"/>
      <point x="424" y="600"/>
      <point x="389" y="633"/>
      <point x="333" y="633" type="curve" smooth="yes"/>
      <point x="272" y="633"/>
      <point x="238" y="598"/>
      <point x="238" y="538" type="curve" smooth="yes"/>
      <point x="238" y="501"/>
      <point x="249" y="461"/>
      <point x="270" y="419" type="curve"/>
      <point x="393" y="470"/>
      <point x="418" y="498"/>
    </contour>
    <contour>
      <point x="388" y="106" type="curve"/>
      <point x="324" y="182"/>
      <point x="272" y="256"/>
      <point x="232" y="329" type="curve"/>
      <point x="155" y="296"/>
      <point x="117" y="247"/>
      <point x="117" y="182" type="curve" smooth="yes"/>
      <point x="117" y="103"/>
      <point x="171" y="54"/>
      <point x="258" y="54" type="curve" smooth="yes"/>
      <point x="305" y="54"/>
      <point x="353" y="73"/>
    </contour>
  </outline>
</glyph>
<glyph name="quotesingle" format="1">
  <advance width="191"/>
  <unicode hex="0027"/>
  <outline>
    <contour>
      <point x="141" y="688" type="line"/>
      <point x="130" y="472" type="line"/>
      <point x="61" y="472" type="line"/>
      <point x="51" y="688" type="line"/>
    </contour>
  </outline>
</glyph>
<glyph name="parenleft" format="1">
  <advance width="333"/>
  <unicode hex="0028"/>
  <outline>
    <contour>
      <point x="62" y="258" type="curve" smooth="yes"/>
      <point x="62" y="260" type="line" smooth="yes"/>
      <point x="62" y="448"/>
      <point x="119" y="592"/>
      <point x="242" y="725" type="curve"/>
      <point x="327" y="725" type="line"/>
      <point x="206" y="589"/>
      <point x="150" y="440"/>
      <point x="150" y="259" type="curve" smooth="yes"/>
      <point x="150" y="79"/>
      <point x="204" y="-70"/>
      <point x="327" y="-207" type="curve"/>
      <point x="242" y="-207" type="line"/>
      <point x="119" y="-74"/>
      <point x="62" y="71"/>
    </contour>
  </outline>
</glyph>
<glyph name="parenright" format="1">
  <advance width="333"/>
  <unicode hex="0029"/>
  <outline>
    <contour>
      <point x="271" y="260" type="curve" smooth="yes"/>
      <point x="271" y="258" type="line" smooth="yes"/>
      <point x="271" y="70"/>
      <point x="214" y="-75"/>
      <point x="91" y="-207" type="curve"/>
      <point x="6" y="-207" type="line"/>
      <point x="129" y="-70"/>
      <point x="183" y="78"/>
      <point x="183" y="259" type="curve" smooth="yes"/>
      <point x="183" y="440"/>
      <point x="127" y="589"/>
      <point x="6" y="725" type="curve"/>
      <point x="91" y="725" type="line"/>
      <point x="214" y="592"/>
      <point x="271" y="447"/>
    </contour>
  </outline>
</glyph>
<glyph name="asterisk" format="1">
  <advance width="389"/>
  <unicode hex="002A"/>
  <outline>
    <contour>
      <point x="229" y="688" type="line"/>
      <point x="223" y="544" type="line"/>
      <point x="352" y="594" type="line"/>
      <point x="374" y="530" type="line"/>
      <point x="236" y="494" type="line"/>
      <point x="326" y="372" type="line"/>
      <point x="268" y="337" type="line"/>
      <point x="195" y="463" type="line"/>
      <point x="119" y="338" type="line"/>
      <point x="61" y="373" type="line"/>
      <point x="153" y="494" type="line"/>
      <point x="16" y="530" type="line"/>
      <point x="38" y="595" type="line"/>
      <point x="168" y="543" type="line"/>
      <point x="163" y="688" type="line"/>
    </contour>
  </outline>
</glyph>
<glyph name="plus" format="1">
  <advance width="584"/>
  <unicode hex="002B"/>
  <outline>
    <contour>
      <point x="535" y="297" type="line"/>
      <point x="328" y="297" type="line"/>
      <point x="328" y="88" type="line"/>
      <point x="256" y="88" type="line"/>
      <point x="256" y="297" type="line"/>
      <point x="49" y="297" type="line"/>
      <point x="49" y="368" type="line"/>
      <point x="256" y="368" type="line"/>
      <point x="256" y="577" type="line"/>
      <point x="328" y="577" type="line"/>
      <point x="328" y="368" type="line"/>
      <point x="535" y="368" type="line"/>
    </contour>
  </outline>
</glyph>
<glyph name="zero" format="1">
  <advance width="556"/>
  <unicode hex="0030"/>
  <outline>
    <contour>
      <point x="517" y="344" type="curve" smooth="yes"/>
      <point x="517" y="115"/>
      <point x="436" y="-10"/>
      <point x="277" y="-10" type="curve" smooth="yes"/>
      <point x="118" y="-10"/>
      <point x="39" y="113"/>
      <point x="39" y="344" type="curve" smooth="yes"/>
      <point x="39" y="580"/>
      <point x="113" y="698"/>
      <point x="280" y="698" type="curve" smooth="yes"/>
      <point x="441" y="698"/>
      <point x="517" y="579"/>
    </contour>
    <contour>
      <point x="428" y="344" type="curve" smooth="yes"/>
      <point x="428" y="543"/>
      <point x="385" y="627"/>
      <point x="280" y="627" type="curve" smooth="yes"/>
      <point x="172" y="627"/>
      <point x="128" y="545"/>
      <point x="128" y="344" type="curve" smooth="yes"/>
      <point x="128" y="149"/>
      <point x="174" y="62"/>
      <point x="278" y="62" type="curve" smooth="yes"/>
      <point x="381" y="62"/>
      <point x="428" y="153"/>
    </contour>
  </outline>
</glyph>
<glyph name="five" format="1">
  <advance width="556"/>
  <unicode hex="0035"/>
  <outline>
    <contour>
      <point x="514" y="224" type="curve" smooth="yes"/>
      <point x="514" y="79"/>
      <point x="423" y="-10"/>
      <point x="270" y="-10" type="curve" smooth="yes"/>
      <point x="142" y="-10"/>
      <point x="61" y="47"/>
      <point x="40" y="154" type="curve"/>
      <point x="129" y="164" type="line"/>
      <point x="148" y="96"/>
      <point x="195" y="62"/>
      <point x="272" y="62" type="curve" smooth="yes"/>
      <point x="367" y="62"/>
      <point x="423" y="122"/>
      <point x="423" y="222" type="curve" smooth="yes"/>
      <point x="423" y="309"/>
      <point x="365" y="367"/>
      <point x="274" y="367" type="curve" smooth="yes"/>
      <point x="226" y="367"/>
      <point x="187" y="354"/>
      <point x="146" y="318" type="curve"/>
      <point x="60" y="318" type="line"/>
      <point x="83" y="688" type="line"/>
      <point x="474" y="688" type="line"/>
      <point x="474" y="613" type="line"/>
      <point x="163" y="613" type="line"/>
      <point x="150" y="395" type="line"/>
      <point x="188" y="424"/>
      <point x="235" y="439"/>
      <point x="292" y="439" type="curve" smooth="yes"/>
      <point x="360" y="439"/>
      <point x="414" y="419"/>
      <point x="454" y="379" type="curve" smooth="yes"/>
      <point x="494" y="340"/>
      <point x="514" y="288"/>
    </contour>
  </outline>
</glyph>
<glyph name="seven" format="1">
  <advance width="556"/>
  <unicode hex="0037"/>
  <outline>
    <contour>
      <point x="506" y="688" type="line"/>
      <point x="506" y="617" type="line"/>
      <point x="435" y="510"/>
      <point x="385" y="425"/>
      <point x="356" y="364" type="curve" smooth="yes"/>
      <point x="299" y="243"/>
      <point x="270" y="127"/>
      <point x="270" y="0" type="curve"/>
      <point x="178" y="0" type="line"/>
      <point x="178" y="88"/>
      <point x="197" y="180"/>
      <point x="234" y="277" type="curve" smooth="yes"/>
      <point x="271" y="374"/>
      <point x="334" y="486"/>
      <point x="421" y="613" type="curve"/>
      <point x="51" y="613" type="line"/>
      <point x="51" y="688" type="line"/>
    </contour>
  </outline>
</glyph>
<glyph name="eight" format="1">
  <advance width="556"/>
  <unicode hex="0038"/>
  <outline>
    <contour>
      <point x="513" y="192" type="curve" smooth="yes"/>
      <point x="513" y="65"/>
      <point x="430" y="-10"/>
      <point x="278" y="-10" type="curve" smooth="yes"/>
      <point x="131" y="-10"/>
      <point x="43" y="63"/>
      <point x="43" y="191" type="curve" smooth="yes"/>
      <point x="43" y="280"/>
      <point x="101" y="347"/>
      <point x="181" y="360" type="curve"/>
      <point x="181" y="362" type="line"/>
      <point x="106" y="379"/>
      <point x="60" y="443"/>
      <point x="60" y="522" type="curve" smooth="yes"/>
      <point x="60" y="627"/>
      <point x="144" y="698"/>
      <point x="276" y="698" type="curve" smooth="yes"/>
      <point x="412" y="698"/>
      <point x="496" y="630"/>
      <point x="496" y="521" type="curve" smooth="yes"/>
      <point x="496" y="442"/>
      <point x="449" y="378"/>
      <point x="374" y="363" type="curve"/>
      <point x="374" y="361" type="line"/>
      <point x="461" y="346"/>
      <point x="513" y="283"/>
    </contour>
    <contour>
      <point x="404" y="516" type="curve" smooth="yes"/>
      <point x="404" y="594"/>
      <point x="361" y="633"/>
      <point x="276" y="633" type="curve" smooth="yes"/>
      <point x="193" y="633"/>
      <point x="149" y="593"/>
      <point x="149" y="516" type="curve" smooth="yes"/>
      <point x="149" y="437"/>
      <point x="196" y="395"/>
      <point x="277" y="395" type="curve" smooth="yes"/>
      <point x="360" y="395"/>
      <point x="404" y="431"/>
    </contour>
    <contour>
      <point x="421" y="200" type="curve" smooth="yes"/>
      <point x="421" y="285"/>
      <point x="368" y="329"/>
      <point x="276" y="329" type="curve" smooth="yes"/>
      <point x="187" y="329"/>
      <point x="134" y="279"/>
      <point x="134" y="198" type="curve" smooth="yes"/>
      <point x="134" y="103"/>
      <point x="182" y="56"/>
      <point x="279" y="56" type="curve" smooth="yes"/>
      <point x="375" y="56"/>
      <point x="421" y="100"/>
    </contour>
  </outline>
</glyph>
<glyph name="question" format="1">
  <advance width="556"/>
  <unicode hex="003F"/>
  <outline>
    <contour>
      <point x="519" y="504" type="curve"/>
      <point x="513" y="427"/>
      <point x="501" y="393"/>
      <point x="412" y="328" type="curve" smooth="yes"/>
      <point x="373" y="299" type="line" smooth="yes"/>
      <point x="326" y="264"/>
      <point x="304" y="228"/>
      <point x="303" y="184" type="curve"/>
      <point x="218" y="184" type="line"/>
      <point x="223" y="366"/>
      <point x="430" y="345"/>
      <point x="430" y="500" type="curve" smooth="yes"/>
      <point x="430" y="575"/>
      <point x="377" y="620"/>
      <point x="286" y="620" type="curve" smooth="yes"/>
      <point x="195" y="620"/>
      <point x="140" y="572"/>
      <point x="131" y="492" type="curve"/>
      <point x="41" y="498" type="line"/>
      <point x="58" y="627"/>
      <point x="146" y="698"/>
      <point x="285" y="698" type="curve" smooth="yes"/>
      <point x="430" y="698"/>
      <point x="519" y="625"/>
    </contour>
    <contour>
      <point x="309" y="0" type="line"/>
      <point x="214" y="0" type="line"/>
      <point x="214" y="98" type="line"/>
      <point x="309" y="98" type="line"/>
    </contour>
  </outline>
</glyph>
<glyph name="at" format="1">
  <advance width="1015"/>
  <unicode hex="0040"/>
  <outline>
    <contour>
      <point x="929" y="369" type="curve" smooth="yes"/>
      <point x="932" y="186"/>
      <point x="834" y="47"/>
      <point x="710" y="51" type="curve" smooth="yes"/>
      <point x="646" y="51"/>
      <point x="609" y="80"/>
      <point x="609" y="137" type="curve" smooth="yes"/>
      <point x="611" y="171" type="line"/>
      <point x="608" y="171" type="line"/>
      <point x="565" y="91"/>
      <point x="498" y="51"/>
      <point x="425" y="51" type="curve" smooth="yes"/>
      <point x="324" y="51"/>
      <point x="264" y="120"/>
      <point x="264" y="239" type="curve" smooth="yes"/>
      <point x="261" y="398"/>
      <point x="371" y="542"/>
      <point x="509" y="538" type="curve" smooth="yes"/>
      <point x="580" y="538"/>
      <point x="629" y="508"/>
      <point x="656" y="449" type="curve"/>
      <point x="659" y="449" type="line"/>
      <point x="678" y="527" type="line"/>
      <point x="754" y="527" type="line"/>
      <point x="698" y="280" type="line" smooth="yes"/>
      <point x="686" y="227"/>
      <point x="680" y="185"/>
      <point x="680" y="156" type="curve" smooth="yes"/>
      <point x="680" y="125"/>
      <point x="693" y="110"/>
      <point x="719" y="110" type="curve" smooth="yes"/>
      <point x="798" y="110"/>
      <point x="862" y="223"/>
      <point x="862" y="368" type="curve" smooth="yes"/>
      <point x="862" y="544"/>
      <point x="743" y="663"/>
      <point x="551" y="663" type="curve" smooth="yes"/>
      <point x="472" y="663"/>
      <point x="403" y="646"/>
      <point x="342" y="611" type="curve" smooth="yes"/>
      <point x="281" y="576"/>
      <point x="234" y="526"/>
      <point x="199" y="460" type="curve" smooth="yes"/>
      <point x="164" y="395"/>
      <point x="147" y="321"/>
      <point x="147" y="240" type="curve" smooth="yes"/>
      <point x="147" y="49"/>
      <point x="270" y="-76"/>
      <point x="466" y="-76" type="curve" smooth="yes"/>
      <point x="561" y="-76"/>
      <point x="656" y="-53"/>
      <point x="760" y="3" type="curve"/>
      <point x="787" y="-51" type="line"/>
      <point x="692" y="-108"/>
      <point x="579" y="-138"/>
      <point x="466" y="-138" type="curve" smooth="yes"/>
      <point x="230" y="-141"/>
      <point x="76" y="14"/>
      <point x="79" y="240" type="curve"/>
      <point x="74" y="512"/>
      <point x="283" y="731"/>
      <point x="550" y="725" type="curve"/>
      <point x="785" y="725"/>
      <point x="929" y="582"/>
    </contour>
    <contour>
      <point x="633" y="365" type="curve" smooth="yes"/>
      <point x="633" y="432"/>
      <point x="586" y="476"/>
      <point x="515" y="476" type="curve" smooth="yes"/>
      <point x="416" y="480"/>
      <point x="345" y="368"/>
      <point x="345" y="240" type="curve" smooth="yes"/>
      <point x="345" y="161"/>
      <point x="375" y="115"/>
      <point x="439" y="115" type="curve" smooth="yes"/>
      <point x="480" y="115"/>
      <point x="517" y="132"/>
      <point x="551" y="166" type="curve" smooth="yes"/>
      <point x="585" y="200"/>
      <point x="609" y="243"/>
      <point x="622" y="294" type="curve" smooth="yes"/>
      <point x="629" y="324"/>
      <point x="633" y="348"/>
    </contour>
  </outline>
</glyph>
<glyph name="A" format="1">
  <advance width="667"/>
  <unicode hex="0041"/>
  <outline>
    <contour>
      <point x="665" y="0" type="line"/>
      <point x="570" y="0" type="line"/>
      <point x="491" y="201" type="line"/>
      <point x="178" y="201" type="line"/>
      <point x="99" y="0" type="line"/>
      <point x="2" y="0" type="line"/>
      <point x="283" y="688" type="line"/>
      <point x="389" y="688" type="line"/>
    </contour>
    <contour>
      <point x="348" y="577" type="curve" smooth="yes"/>
      <point x="334" y="618" type="line"/>
      <point x="330" y="604" type="line" smooth="yes"/>
      <point x="322" y="577"/>
      <point x="310" y="542"/>
      <point x="294" y="500" type="curve" smooth="yes"/>
      <point x="206" y="274" type="line"/>
      <point x="463" y="274" type="line"/>
      <point x="375" y="501" type="line" smooth="yes"/>
      <point x="366" y="524"/>
      <point x="357" y="549"/>
    </contour>
  </outline>
</glyph>
<glyph name="V" format="1">
  <advance width="667"/>
  <unicode hex="0056"/>
  <outline>
    <contour>
      <point x="663" y="688" type="line"/>
      <point x="382" y="0" type="line"/>
      <point x="285" y="0" type="line"/>
      <point x="4" y="688" type="line"/>
      <point x="103" y="688" type="line"/>
      <point x="293" y="204" type="line"/>
      <point x="334" y="82" type="line"/>
      <point x="375" y="204" type="line"/>
      <point x="564" y="688" type="line"/>
    </contour>
  </outline>
</glyph>
<glyph name="bracketleft" format="1">
  <advance width="278"/>
  <unicode hex="005B"/>
  <outline>
    <contour>
      <point x="270" y="-208" type="line"/>
      <point x="71" y="-208" type="line"/>
      <point x="71" y="725" type="line"/>
      <point x="270" y="725" type="line"/>
      <point x="270" y="662" type="line"/>
      <point x="156" y="662" type="line"/>
      <point x="156" y="-145" type="line"/>
      <point x="270" y="-145" type="line"/>
    </contour>
  </outline>
</glyph>
<glyph name="underscore" format="1">
  <advance width="556"/>
  <unicode hex="005F"/>
  <outline>
    <contour>
      <point x="567" y="-199" type="line"/>
      <point x="-15" y="-199" type="line"/>
      <point x="-15" y="-135" type="line"/>
      <point x="567" y="-135" type="line"/>
    </contour>
  </outline>
</glyph>
<glyph name="v" format="1">
  <advance width="500"/>
  <unicode hex="0076"/>
  <outline>
    <contour>
      <point x="497" y="528" type="line"/>
      <point x="299" y="0" type="line"/>
      <point x="195" y="0" type="line"/>
      <point x="3" y="528" type="line"/>
      <point x="97" y="528" type="line"/>
      <point x="213" y="185" type="line" smooth="yes"/>
      <point x="218" y="172"/>
      <point x="229" y="133"/>
      <point x="247" y="69" type="curve"/>
      <point x="264" y="126" type="line"/>
      <point x="283" y="184" type="line"/>
      <point x="403" y="528" type="line"/>
    </contour>
  </outline>
</glyph>
<glyph name="braceleft" format="1">
  <advance width="334"/>
  <unicode hex="007B"/>
  <outline>
    <contour>
      <point x="316" y="-208" type="line"/>
      <point x="250" y="-208" type="line" smooth="yes"/>
      <point x="167" y="-208"/>
      <point x="122" y="-155"/>
      <point x="122" y="-64" type="curve" smooth="yes"/>
      <point x="122" y="112" type="line" smooth="yes"/>
      <point x="122" y="188"/>
      <point x="88" y="224"/>
      <point x="17" y="228" type="curve"/>
      <point x="17" y="290" type="line"/>
      <point x="88" y="293"/>
      <point x="122" y="329"/>
      <point x="122" y="405" type="curve" smooth="yes"/>
      <point x="122" y="582" type="line" smooth="yes"/>
      <point x="122" y="673"/>
      <point x="166" y="725"/>
      <point x="250" y="725" type="curve" smooth="yes"/>
      <point x="316" y="725" type="line"/>
      <point x="316" y="662" type="line"/>
      <point x="286" y="662" type="line" smooth="yes"/>
      <point x="226" y="662"/>
      <point x="204" y="626"/>
      <point x="204" y="557" type="curve" smooth="yes"/>
      <point x="204" y="383" type="line" smooth="yes"/>
      <point x="204" y="322"/>
      <point x="166" y="273"/>
      <point x="109" y="260" type="curve"/>
      <point x="109" y="259" type="line"/>
      <point x="166" y="246"/>
      <point x="204" y="198"/>
      <point x="204" y="135" type="curve" smooth="yes"/>
      <point x="204" y="-40" type="line" smooth="yes"/>
      <point x="204" y="-108"/>
      <point x="226" y="-145"/>
      <point x="286" y="-145" type="curve" smooth="yes"/>
      <point x="316" y="-145" type="line"/>
    </contour>
  </outline>
</glyph>
<glyph name="braceright" format="1">
  <advance width="334"/>
  <unicode hex="007D"/>
  <outline>
    <contour>
      <point x="17" y="-145" type="line"/>
      <point x="46" y="-145" type="line" smooth="yes"/>
      <point x="105" y="-145"/>
      <point x="129" y="-108"/>
      <point x="129" y="-40" type="curve" smooth="yes"/>
      <point x="129" y="135" type="line" smooth="yes"/>
      <point x="129" y="199"/>
      <point x="166" y="246"/>
      <point x="223" y="259" type="curve"/>
      <point x="223" y="260" type="line"/>
      <point x="167" y="273"/>
      <point x="129" y="319"/>
      <point x="129" y="383" type="curve" smooth="yes"/>
      <point x="129" y="557" type="line" smooth="yes"/>
      <point x="129" y="626"/>
      <point x="105" y="662"/>
      <point x="46" y="662" type="curve" smooth="yes"/>
      <point x="17" y="662" type="line"/>
      <point x="17" y="725" type="line"/>
      <point x="81" y="725" type="line" smooth="yes"/>
      <point x="166" y="725"/>
      <point x="210" y="673"/>
      <point x="210" y="582" type="curve" smooth="yes"/>
      <point x="210" y="405" type="line" smooth="yes"/>
      <point x="210" y="329"/>
      <point x="244" y="293"/>
      <point x="316" y="290" type="curve"/>
      <point x="316" y="228" type="line"/>
      <point x="243" y="225"/>
      <point x="210" y="188"/>
      <point x="210" y="112" type="curve" smooth="yes"/>
      <point x="210" y="-64" type="line" smooth="yes"/>
      <point x="210" y="-155"/>
      <point x="164" y="-208"/>
      <point x="81" y="-208" type="curve" smooth="yes"/>
      <point x="17" y="-208" type="line"/>
    </contour>
  </outline>
</glyph>
<glyph name="asciitilde" format="1">
  <advance width="584"/>
  <unicode hex="007E"/>
  <outline>
    <contour>
      <point x="412" y="270" type="curve" smooth="yes"/>
      <point x="367" y="270"/>
      <point x="320" y="288"/>
      <point x="272" y="304" type="curve" smooth="yes"/>
      <point x="230" y="319"/>
      <point x="195" y="326"/>
      <point x="166" y="326" type="curve" smooth="yes"/>
      <point x="122" y="326"/>
      <point x="88" y="314"/>
      <point x="45" y="283" type="curve"/>
      <point x="45" y="353" type="line"/>
      <point x="81" y="380"/>
      <point x="124" y="394"/>
      <point x="173" y="394" type="curve" smooth="yes"/>
      <point x="190" y="394"/>
      <point x="209" y="392"/>
      <point x="230" y="387" type="curve" smooth="yes"/>
      <point x="251" y="383"/>
      <point x="282" y="374"/>
      <point x="324" y="359" type="curve" smooth="yes"/>
      <point x="344" y="351"/>
      <point x="391" y="337"/>
      <point x="420" y="337" type="curve" smooth="yes"/>
      <point x="462" y="337"/>
      <point x="502" y="352"/>
      <point x="539" y="382" type="curve"/>
      <point x="539" y="309" type="line"/>
      <point x="502" y="282"/>
      <point x="468" y="270"/>
    </contour>
  </outline>
</glyph>
<glyph name="exclamdown" format="1">
  <advance width="333"/>
  <unicode hex="00A1"/>
  <outline>
    <contour>
      <point x="118" y="-160" type="line"/>
      <point x="130" y="334" type="line"/>
      <point x="202" y="334" type="line"/>
      <point x="214" y="-160" type="line"/>
    </contour>
    <contour>
      <point x="120" y="528" type="line"/>
      <point x="215" y="528" type="line"/>
      <point x="215" y="430" type="line"/>
      <point x="120" y="430" type="line"/>
    </contour>
  </outline>
</glyph>
<glyph name="cent" format="1">
  <advance width="556"/>
  <unicode hex="00A2"/>
  <outline>
    <contour>
      <point x="291" y="135" type="curve" smooth="yes"/>
      <point x="354" y="135"/>
      <point x="399" y="168"/>
      <point x="408" y="239" type="curve"/>
      <point x="497" y="233" type="line"/>
      <point x="485" y="140"/>
      <point x="419" y="76"/>
      <point x="323" y="67" type="curve"/>
      <point x="323" y="-15" type="line"/>
      <point x="263" y="-15" type="line"/>
      <point x="263" y="67" type="line"/>
      <point x="134" y="79"/>
      <point x="66" y="173"/>
      <point x="66" y="340" type="curve" smooth="yes"/>
      <point x="66" y="505"/>
      <point x="134" y="601"/>
      <point x="263" y="612" type="curve"/>
      <point x="263" y="688" type="line"/>
      <point x="323" y="688" type="line"/>
      <point x="323" y="612" type="line"/>
      <point x="416" y="603"/>
      <point x="477" y="547"/>
      <point x="494" y="456" type="curve"/>
      <point x="404" y="449" type="line"/>
      <point x="395" y="508"/>
      <point x="358" y="545"/>
      <point x="290" y="545" type="curve" smooth="yes"/>
      <point x="197" y="545"/>
      <point x="158" y="489"/>
      <point x="158" y="342" type="curve" smooth="yes"/>
      <point x="158" y="202"/>
      <point x="202" y="135"/>
    </contour>
  </outline>
</glyph>
<glyph name="yen" format="1">
  <advance width="556"/>
  <unicode hex="00A5"/>
  <outline>
    <contour>
      <point x="558" y="688" type="line"/>
      <point x="352" y="346" type="line"/>
      <point x="508" y="346" type="line"/>
      <point x="508" y="285" type="line"/>
      <point x="321" y="285" type="line"/>
      <point x="321" y="210" type="line"/>
      <point x="508" y="210" type="line"/>
      <point x="508" y="148" type="line"/>
      <point x="321" y="148" type="line"/>
      <point x="321" y="0" type="line"/>
      <point x="234" y="0" type="line"/>
      <point x="234" y="148" type="line"/>
      <point x="48" y="148" type="line"/>
      <point x="48" y="210" type="line"/>
      <point x="234" y="210" type="line"/>
      <point x="235" y="285" type="line"/>
      <point x="48" y="285" type="line"/>
      <point x="48" y="346" type="line"/>
      <point x="205" y="346" type="line"/>
      <point x="-1" y="688" type="line"/>
      <point x="96" y="688" type="line"/>
      <point x="277" y="372" type="line"/>
      <point x="460" y="688" type="line"/>
    </contour>
  </outline>
</glyph>
<glyph name="section" format="1">
  <advance width="556"/>
  <unicode hex="00A7"/>
  <outline>
    <contour>
      <point x="287" y="725" type="curve" smooth="yes"/>
      <point x="400" y="725"/>
      <point x="472" y="681"/>
      <point x="489" y="598" type="curve"/>
      <point x="410" y="588" type="line"/>
      <point x="401" y="637"/>
      <point x="360" y="661"/>
      <point x="287" y="661" type="curve" smooth="yes"/>
      <point x="206" y="661"/>
      <point x="163" y="635"/>
      <point x="163" y="588" type="curve" smooth="yes"/>
      <point x="163" y="572"/>
      <point x="168" y="558"/>
      <point x="177" y="547" type="curve" smooth="yes"/>
      <point x="197" y="524"/>
      <point x="226" y="510"/>
      <point x="310" y="490" type="curve" smooth="yes"/>
      <point x="358" y="479"/>
      <point x="395" y="466"/>
      <point x="420" y="452" type="curve" smooth="yes"/>
      <point x="471" y="425"/>
      <point x="500" y="388"/>
      <point x="500" y="335" type="curve" smooth="yes"/>
      <point x="500" y="271"/>
      <point x="458" y="217"/>
      <point x="393" y="202" type="curve"/>
      <point x="466" y="170"/>
      <point x="497" y="130"/>
      <point x="497" y="71" type="curve" smooth="yes"/>
      <point x="497" y="-25"/>
      <point x="418" y="-84"/>
      <point x="282" y="-84" type="curve" smooth="yes"/>
      <point x="146" y="-84"/>
      <point x="79" y="-42"/>
      <point x="56" y="49" type="curve"/>
      <point x="135" y="64" type="line"/>
      <point x="148" y="5"/>
      <point x="187" y="-20"/>
      <point x="282" y="-20" type="curve" smooth="yes"/>
      <point x="370" y="-20"/>
      <point x="419" y="10"/>
      <point x="419" y="63" type="curve" smooth="yes"/>
      <point x="419" y="82"/>
      <point x="414" y="97"/>
      <point x="403" y="109" type="curve" smooth="yes"/>
      <point x="392" y="122"/>
      <point x="377" y="133"/>
      <point x="357" y="142" type="curve" smooth="yes"/>
      <point x="337" y="152"/>
      <point x="302" y="163"/>
      <point x="253" y="175" type="curve" smooth="yes"/>
      <point x="126" y="204"/>
      <point x="75" y="255"/>
      <point x="75" y="328" type="curve" smooth="yes"/>
      <point x="75" y="385"/>
      <point x="118" y="438"/>
      <point x="186" y="458" type="curve"/>
      <point x="123" y="479"/>
      <point x="85" y="525"/>
      <point x="85" y="581" type="curve" smooth="yes"/>
      <point x="85" y="672"/>
      <point x="155" y="725"/>
    </contour>
    <contour>
      <point x="423" y="324" type="curve" smooth="yes"/>
      <point x="423" y="371"/>
      <point x="384" y="403"/>
      <point x="269" y="430" type="curve"/>
      <point x="198" y="426"/>
      <point x="153" y="389"/>
      <point x="153" y="334" type="curve" smooth="yes"/>
      <point x="153" y="318"/>
      <point x="158" y="304"/>
      <point x="167" y="292" type="curve" smooth="yes"/>
      <point x="187" y="268"/>
      <point x="215" y="253"/>
      <point x="299" y="232" type="curve"/>
      <point x="376" y="233"/>
      <point x="423" y="268"/>
    </contour>
  </outline>
</glyph>
<glyph name="dieresis" format="1">
  <advance width="333"/>
  <unicode hex="00A8"/>
  <outline>
    <contour>
      <point x="294" y="595" type="line"/>
      <point x="214" y="595" type="line"/>
      <point x="214" y="685" type="line"/>
      <point x="294" y="685" type="line"/>
    </contour>
    <contour>
      <point x="103" y="595" type="line"/>
      <point x="22" y="595" type="line"/>
      <point x="22" y="685" type="line"/>
      <point x="103" y="685" type="line"/>
    </contour>
  </outline>
</glyph>
<glyph name="ordfeminine" format="1">
  <advance width="370"/>
  <unicode hex="00AA"/>
  <outline>
    <contour>
      <point x="127" y="318" type="curve" smooth="yes"/>
      <point x="56" y="318"/>
      <point x="13" y="358"/>
      <point x="13" y="425" type="curve" smooth="yes"/>
      <point x="13" y="500"/>
      <point x="64" y="542"/>
      <point x="165" y="543" type="curve" smooth="yes"/>
      <point x="252" y="545" type="line"/>
      <point x="252" y="574" type="line" smooth="yes"/>
      <point x="252" y="627"/>
      <point x="231" y="650"/>
      <point x="178" y="650" type="curve" smooth="yes"/>
      <point x="135" y="650"/>
      <point x="107" y="633"/>
      <point x="102" y="584" type="curve"/>
      <point x="29" y="589" type="line"/>
      <point x="40" y="658"/>
      <point x="93" y="699"/>
      <point x="177" y="699" type="curve" smooth="yes"/>
      <point x="272" y="699"/>
      <point x="322" y="658"/>
      <point x="322" y="577" type="curve" smooth="yes"/>
      <point x="322" y="427" type="line" smooth="yes"/>
      <point x="322" y="388"/>
      <point x="329" y="374"/>
      <point x="353" y="374" type="curve" smooth="yes"/>
      <point x="359" y="374"/>
      <point x="366" y="375"/>
      <point x="374" y="378" type="curve"/>
      <point x="374" y="327" type="line"/>
      <point x="358" y="323"/>
      <point x="344" y="321"/>
      <point x="333" y="321" type="curve" smooth="yes"/>
      <point x="285" y="321"/>
      <point x="259" y="347"/>
      <point x="256" y="390" type="curve"/>
      <point x="254" y="390" type="line"/>
      <point x="230" y="342"/>
      <point x="188" y="318"/>
    </contour>
    <contour>
      <point x="146" y="372" type="curve" smooth="yes"/>
      <point x="175" y="372"/>
      <point x="200" y="382"/>
      <point x="221" y="401" type="curve" smooth="yes"/>
      <point x="242" y="420"/>
      <point x="252" y="443"/>
      <point x="252" y="468" type="curve" smooth="yes"/>
      <point x="252" y="500" type="line"/>
      <point x="185" y="498" type="line" smooth="yes"/>
      <point x="108" y="494"/>
      <point x="86" y="474"/>
      <point x="86" y="431" type="curve" smooth="yes"/>
      <point x="86" y="392"/>
      <point x="106" y="372"/>
    </contour>
  </outline>
</glyph>
<glyph name="guillemotleft" format="1">
  <advance width="556"/>
  <unicode hex="00AB"/>
  <outline>
    <contour>
      <point x="516" y="69" type="line"/>
      <point x="433" y="69" type="line"/>
      <point x="268" y="247" type="line"/>
      <point x="268" y="278" type="line"/>
      <point x="433" y="459" type="line"/>
      <point x="515" y="459" type="line"/>
      <point x="515" y="444" type="line"/>
      <point x="350" y="262" type="line"/>
      <point x="516" y="83" type="line"/>
    </contour>
    <contour>
      <point x="287" y="69" type="line"/>
      <point x="205" y="69" type="line"/>
      <point x="41" y="247" type="line"/>
      <point x="41" y="278" type="line"/>
      <point x="205" y="459" type="line"/>
      <point x="286" y="459" type="line"/>
      <point x="286" y="444" type="line"/>
      <point x="123" y="262" type="line"/>
      <point x="287" y="83" type="line"/>
    </contour>
  </outline>
</glyph>
<glyph name="logicalnot" format="1">
  <advance width="584"/>
  <unicode hex="00AC"/>
  <outline>
    <contour>
      <point x="535" y="88" type="line"/>
      <point x="464" y="88" type="line"/>
      <point x="464" y="297" type="line"/>
      <point x="49" y="297" type="line"/>
      <point x="49" y="368" type="line"/>
      <point x="535" y="368" type="line"/>
    </contour>
  </outline>
</glyph>
<glyph name="uni00AD" format="1">
  <advance width="333"/>
  <unicode hex="00AD"/>
  <outline>
    <contour>
      <point x="289" y="227" type="line"/>
      <point x="44" y="227" type="line"/>
      <point x="44" y="305" type="line"/>
      <point x="289" y="305" type="line"/>
    </contour>
  </outline>
</glyph>
<glyph name="registered" format="1">
  <advance width="737"/>
  <unicode hex="00AE"/>
  <outline>
    <contour>
      <point x="721" y="345" type="curve"/>
      <point x="727" y="157"/>
      <point x="556" y="-14"/>
      <point x="368" y="-8" type="curve" smooth="yes"/>
      <point x="304" y="-8"/>
      <point x="244" y="8"/>
      <point x="189" y="41" type="curve" smooth="yes"/>
      <point x="78" y="106"/>
      <point x="15" y="222"/>
      <point x="15" y="345" type="curve" smooth="yes"/>
      <point x="10" y="533"/>
      <point x="181" y="704"/>
      <point x="368" y="698" type="curve"/>
      <point x="558" y="703"/>
      <point x="726" y="534"/>
    </contour>
    <contour>
      <point x="676" y="345" type="curve"/>
      <point x="681" y="510"/>
      <point x="534" y="655"/>
      <point x="368" y="652" type="curve"/>
      <point x="204" y="656"/>
      <point x="57" y="508"/>
      <point x="62" y="345" type="curve"/>
      <point x="57" y="181"/>
      <point x="204" y="33"/>
      <point x="368" y="38" type="curve"/>
      <point x="534" y="33"/>
      <point x="681" y="181"/>
    </contour>
    <contour>
      <point x="537" y="141" type="line"/>
      <point x="466" y="141" type="line"/>
      <point x="369" y="305" type="line"/>
      <point x="291" y="305" type="line"/>
      <point x="291" y="141" type="line"/>
      <point x="229" y="141" type="line"/>
      <point x="229" y="547" type="line"/>
      <point x="378" y="547" type="line" smooth="yes"/>
      <point x="471" y="547"/>
      <point x="521" y="503"/>
      <point x="521" y="431" type="curve" smooth="yes"/>
      <point x="521" y="364"/>
      <point x="485" y="324"/>
      <point x="429" y="312" type="curve"/>
    </contour>
    <contour>
      <point x="459" y="430" type="curve" smooth="yes"/>
      <point x="459" y="475"/>
      <point x="426" y="499"/>
      <point x="374" y="499" type="curve" smooth="yes"/>
      <point x="291" y="499" type="line"/>
      <point x="291" y="352" type="line"/>
      <point x="379" y="352" type="line" smooth="yes"/>
      <point x="431" y="352"/>
      <point x="459" y="382"/>
    </contour>
  </outline>
</glyph>
<glyph name="degree" format="1">
  <advance width="400"/>
  <unicode hex="00B0"/>
  <outline>
    <contour>
      <point x="340" y="559" type="curve" smooth="yes"/>
      <point x="340" y="520"/>
      <point x="326" y="487"/>
      <point x="298" y="460" type="curve" smooth="yes"/>
      <point x="271" y="433"/>
      <point x="238" y="420"/>
      <point x="200" y="420" type="curve" smooth="yes"/>
      <point x="161" y="420"/>
      <point x="128" y="434"/>
      <point x="101" y="461" type="curve" smooth="yes"/>
      <point x="74" y="488"/>
      <point x="60" y="521"/>
      <point x="60" y="559" type="curve" smooth="yes"/>
      <point x="60" y="597"/>
      <point x="73" y="630"/>
      <point x="100" y="657" type="curve" smooth="yes"/>
      <point x="127" y="684"/>
      <point x="161" y="698"/>
      <point x="200" y="698" type="curve" smooth="yes"/>
      <point x="239" y="698"/>
      <point x="272" y="684"/>
      <point x="299" y="657" type="curve" smooth="yes"/>
      <point x="326" y="630"/>
      <point x="340" y="598"/>
    </contour>
    <contour>
      <point x="287" y="559" type="curve" smooth="yes"/>
      <point x="287" y="608"/>
      <point x="248" y="647"/>
      <point x="200" y="647" type="curve" smooth="yes"/>
      <point x="151" y="647"/>
      <point x="113" y="607"/>
      <point x="113" y="559" type="curve" smooth="yes"/>
      <point x="113" y="511"/>
      <point x="152" y="471"/>
      <point x="200" y="471" type="curve" smooth="yes"/>
      <point x="248" y="471"/>
      <point x="287" y="510"/>
    </contour>
  </outline>
</glyph>
<glyph name="mu" format="1">
  <advance width="576"/>
  <unicode hex="00B5"/>
  <outline>
    <contour>
      <point x="156" y="-208" type="line"/>
      <point x="68" y="-208" type="line"/>
      <point x="68" y="528" type="line"/>
      <point x="157" y="528" type="line"/>
      <point x="157" y="193" type="line" smooth="yes"/>
      <point x="157" y="104"/>
      <point x="190" y="58"/>
      <point x="267" y="58" type="curve" smooth="yes"/>
      <point x="351" y="58"/>
      <point x="401" y="117"/>
      <point x="401" y="222" type="curve" smooth="yes"/>
      <point x="401" y="528" type="line"/>
      <point x="489" y="528" type="line"/>
      <point x="489" y="130" type="line" smooth="yes"/>
      <point x="489" y="81"/>
      <point x="499" y="59"/>
      <point x="527" y="59" type="curve" smooth="yes"/>
      <point x="535" y="59"/>
      <point x="544" y="60"/>
      <point x="553" y="63" type="curve"/>
      <point x="553" y="0" type="line"/>
      <point x="532" y="-7"/>
      <point x="513" y="-10"/>
      <point x="498" y="-10" type="curve" smooth="yes"/>
      <point x="439" y="-10"/>
      <point x="408" y="20"/>
      <point x="405" y="85" type="curve"/>
      <point x="403" y="85" type="line"/>
      <point x="369" y="22"/>
      <point x="320" y="-10"/>
      <point x="257" y="-10" type="curve" smooth="yes"/>
      <point x="214" y="-10"/>
      <point x="176" y="4"/>
      <point x="156" y="29" type="curve"/>
    </contour>
  </outline>
</glyph>
<glyph name="cedilla" format="1">
  <advance width="333"/>
  <unicode hex="00B8"/>
  <outline>
    <contour>
      <point x="236" y="-124" type="curve" smooth="yes"/>
      <point x="236" y="-183"/>
      <point x="191" y="-212"/>
      <point x="102" y="-212" type="curve" smooth="yes"/>
      <point x="83" y="-212"/>
      <point x="69" y="-211"/>
      <point x="58" y="-210" type="curve"/>
      <point x="58" y="-162" type="line"/>
      <point x="74" y="-164"/>
      <point x="88" y="-165"/>
      <point x="100" y="-165" type="curve" smooth="yes"/>
      <point x="148" y="-165"/>
      <point x="172" y="-152"/>
      <point x="172" y="-125" type="curve" smooth="yes"/>
      <point x="172" y="-100"/>
      <point x="150" y="-88"/>
      <point x="107" y="-88" type="curve" smooth="yes"/>
      <point x="93" y="-88"/>
      <point x="84" y="-88"/>
      <point x="79" y="-89" type="curve"/>
      <point x="111" y="0" type="line"/>
      <point x="163" y="0" type="line"/>
      <point x="144" y="-49" type="line"/>
      <point x="205" y="-50"/>
      <point x="236" y="-79"/>
    </contour>
  </outline>
</glyph>
<glyph name="ordmasculine" format="1">
  <advance width="365"/>
  <unicode hex="00BA"/>
  <outline>
    <contour>
      <point x="353" y="509" type="curve" smooth="yes"/>
      <point x="353" y="386"/>
      <point x="295" y="318"/>
      <point x="182" y="318" type="curve" smooth="yes"/>
      <point x="73" y="318"/>
      <point x="13" y="385"/>
      <point x="13" y="509" type="curve" smooth="yes"/>
      <point x="13" y="632"/>
      <point x="72" y="699"/>
      <point x="184" y="699" type="curve" smooth="yes"/>
      <point x="297" y="699"/>
      <point x="353" y="636"/>
    </contour>
    <contour>
      <point x="280" y="509" type="curve" smooth="yes"/>
      <point x="280" y="609"/>
      <point x="253" y="648"/>
      <point x="185" y="648" type="curve" smooth="yes"/>
      <point x="114" y="648"/>
      <point x="87" y="606"/>
      <point x="87" y="509" type="curve" smooth="yes"/>
      <point x="87" y="414"/>
      <point x="116" y="369"/>
      <point x="181" y="369" type="curve" smooth="yes"/>
      <point x="253" y="369"/>
      <point x="280" y="413"/>
    </contour>
  </outline>
</glyph>
<glyph name="onequarter" format="1">
  <advance width="834"/>
  <unicode hex="00BC"/>
  <outline>
    <contour>
      <point x="299" y="275" type="line"/>
      <point x="27" y="275" type="line"/>
      <point x="27" y="327" type="line"/>
      <point x="130" y="327" type="line"/>
      <point x="130" y="630" type="line"/>
      <point x="32" y="563" type="line"/>
      <point x="32" y="621" type="line"/>
      <point x="134" y="688" type="line"/>
      <point x="194" y="688" type="line"/>
      <point x="194" y="327" type="line"/>
      <point x="299" y="327" type="line"/>
    </contour>
    <contour>
      <point x="669" y="688" type="line"/>
      <point x="241" y="0" type="line"/>
      <point x="168" y="0" type="line"/>
      <point x="599" y="688" type="line"/>
    </contour>
    <contour>
      <point x="788" y="88" type="line"/>
      <point x="734" y="88" type="line"/>
      <point x="734" y="1" type="line"/>
      <point x="670" y="1" type="line"/>
      <point x="670" y="88" type="line"/>
      <point x="472" y="88" type="line"/>
      <point x="472" y="142" type="line"/>
      <point x="660" y="414" type="line"/>
      <point x="734" y="414" type="line"/>
      <point x="734" y="143" type="line"/>
      <point x="788" y="143" type="line"/>
    </contour>
    <contour>
      <point x="670" y="319" type="line"/>
      <point x="671" y="349" type="line"/>
      <point x="664" y="336"/>
      <point x="651" y="314"/>
      <point x="631" y="283" type="curve" smooth="yes"/>
      <point x="534" y="143" type="line"/>
      <point x="670" y="143" type="line"/>
    </contour>
  </outline>
</glyph>
<glyph name="questiondown" format="1">
  <advance width="611"/>
  <unicode hex="00BF"/>
  <outline>
    <contour>
      <point x="64" y="24" type="curve" smooth="yes"/>
      <point x="64" y="49"/>
      <point x="67" y="71"/>
      <point x="74" y="90" type="curve" smooth="yes"/>
      <point x="81" y="109"/>
      <point x="92" y="127"/>
      <point x="105" y="143" type="curve" smooth="yes"/>
      <point x="118" y="159"/>
      <point x="140" y="178"/>
      <point x="171" y="201" type="curve" smooth="yes"/>
      <point x="210" y="229" type="line" smooth="yes"/>
      <point x="257" y="264"/>
      <point x="279" y="300"/>
      <point x="280" y="344" type="curve"/>
      <point x="365" y="344" type="line"/>
      <point x="360" y="165"/>
      <point x="153" y="181"/>
      <point x="153" y="28" type="curve" smooth="yes"/>
      <point x="153" y="-45"/>
      <point x="206" y="-92"/>
      <point x="297" y="-92" type="curve" smooth="yes"/>
      <point x="388" y="-92"/>
      <point x="443" y="-43"/>
      <point x="452" y="36" type="curve"/>
      <point x="542" y="30" type="line"/>
      <point x="525" y="-98"/>
      <point x="437" y="-170"/>
      <point x="298" y="-170" type="curve" smooth="yes"/>
      <point x="153" y="-170"/>
      <point x="64" y="-97"/>
    </contour>
    <contour>
      <point x="274" y="528" type="line"/>
      <point x="369" y="528" type="line"/>
      <point x="369" y="430" type="line"/>
      <point x="274" y="430" type="line"/>
    </contour>
  </outline>
</glyph>
<glyph name="Ntilde" format="1">
  <advance width="722"/>
  <unicode hex="00D1"/>
  <outline>
    <contour>
      <point x="641" y="0" type="line"/>
      <point x="528" y="0" type="line"/>
      <point x="160" y="586" type="line"/>
      <point x="163" y="539" type="line"/>
      <point x="165" y="457" type="line"/>
      <point x="165" y="0" type="line"/>
      <point x="82" y="0" type="line"/>
      <point x="82" y="688" type="line"/>
      <point x="190" y="688" type="line"/>
      <point x="563" y="98" type="line"/>
      <point x="559" y="162"/>
      <point x="557" y="208"/>
      <point x="557" y="237" type="curve" smooth="yes"/>
      <point x="557" y="688" type="line"/>
      <point x="641" y="688" type="line"/>
    </contour>
    <contour>
      <point x="444" y="747" type="curve" smooth="yes"/>
      <point x="387" y="747"/>
      <point x="335" y="805"/>
      <point x="294" y="805" type="curve" smooth="yes"/>
      <point x="259" y="805"/>
      <point x="242" y="784"/>
      <point x="237" y="747" type="curve"/>
      <point x="192" y="747" type="line"/>
      <point x="204" y="843"/>
      <point x="229" y="873"/>
      <point x="292" y="878" type="curve"/>
      <point x="348" y="878"/>
      <point x="403" y="820"/>
      <point x="440" y="820" type="curve" smooth="yes"/>
      <point x="473" y="820"/>
      <point x="492" y="839"/>
      <point x="498" y="878" type="curve"/>
      <point x="542" y="878" type="line"/>
      <point x="531" y="782"/>
      <point x="499" y="747"/>
    </contour>
  </outline>
</glyph>
<glyph name="Otilde" format="1">
  <advance width="778"/>
  <unicode hex="00D5"/>
  <outline>
    <contour>
      <point x="730" y="347" type="curve" smooth="yes"/>
      <point x="730" y="129"/>
      <point x="598" y="-10"/>
      <point x="388" y="-10" type="curve" smooth="yes"/>
      <point x="175" y="-10"/>
      <point x="47" y="128"/>
      <point x="47" y="347" type="curve" smooth="yes"/>
      <point x="47" y="457"/>
      <point x="77" y="543"/>
      <point x="137" y="605" type="curve" smooth="yes"/>
      <point x="198" y="667"/>
      <point x="282" y="698"/>
      <point x="389" y="698" type="curve" smooth="yes"/>
      <point x="600" y="698"/>
      <point x="730" y="567"/>
    </contour>
    <contour>
      <point x="635" y="347" type="curve" smooth="yes"/>
      <point x="635" y="519"/>
      <point x="545" y="622"/>
      <point x="389" y="622" type="curve" smooth="yes"/>
      <point x="232" y="622"/>
      <point x="142" y="522"/>
      <point x="142" y="347" type="curve" smooth="yes"/>
      <point x="142" y="261"/>
      <point x="164" y="193"/>
      <point x="207" y="142" type="curve" smooth="yes"/>
      <point x="250" y="91"/>
      <point x="311" y="66"/>
      <point x="388" y="66" type="curve" smooth="yes"/>
      <point x="547" y="66"/>
      <point x="635" y="168"/>
    </contour>
    <contour>
      <point x="459" y="747" type="curve" smooth="yes"/>
      <point x="405" y="747"/>
      <point x="350" y="805"/>
      <point x="310" y="805" type="curve" smooth="yes"/>
      <point x="274" y="805"/>
      <point x="259" y="784"/>
      <point x="252" y="747" type="curve"/>
      <point x="208" y="747" type="line"/>
      <point x="219" y="843"/>
      <point x="245" y="873"/>
      <point x="307" y="878" type="curve"/>
      <point x="366" y="878"/>
      <point x="417" y="820"/>
      <point x="456" y="820" type="curve" smooth="yes"/>
      <point x="489" y="820"/>
      <point x="508" y="839"/>
      <point x="513" y="878" type="curve"/>
      <point x="558" y="878" type="line"/>
      <point x="547" y="782"/>
      <point x="515" y="747"/>
    </contour>
  </outline>
</glyph>
<glyph name="multiply" format="1">
  <advance width="584"/>
  <unicode hex="00D7"/>
  <outline>
    <contour>
      <point x="119" y="110" type="line"/>
      <point x="69" y="161" type="line"/>
      <point x="242" y="334" type="line"/>
      <point x="70" y="506" type="line"/>
      <point x="121" y="556" type="line"/>
      <point x="292" y="384" type="line"/>
      <point x="463" y="555" type="line"/>
      <point x="514" y="504" type="line"/>
      <point x="343" y="334" type="line"/>
      <point x="515" y="162" type="line"/>
      <point x="465" y="111" type="line"/>
      <point x="293" y="283" type="line"/>
    </contour>
  </outline>
</glyph>
<glyph name="atilde" format="1">
  <advance width="556"/>
  <unicode hex="00E3"/>
  <outline>
    <contour>
      <point x="202" y="-10" type="curve" smooth="yes"/>
      <point x="97" y="-10"/>
      <point x="42" y="50"/>
      <point x="42" y="147" type="curve" smooth="yes"/>
      <point x="42" y="256"/>
      <point x="110" y="316"/>
      <point x="271" y="320" type="curve" smooth="yes"/>
      <point x="389" y="322" type="line"/>
      <point x="389" y="351" type="line" smooth="yes"/>
      <point x="389" y="438"/>
      <point x="353" y="471"/>
      <point x="276" y="471" type="curve" smooth="yes"/>
      <point x="197" y="471"/>
      <point x="165" y="446"/>
      <point x="158" y="387" type="curve"/>
      <point x="66" y="396" type="line"/>
      <point x="81" y="491"/>
      <point x="151" y="538"/>
      <point x="278" y="538" type="curve" smooth="yes"/>
      <point x="410" y="538"/>
      <point x="478" y="476"/>
      <point x="478" y="360" type="curve" smooth="yes"/>
      <point x="478" y="133" type="line" smooth="yes"/>
      <point x="478" y="81"/>
      <point x="490" y="54"/>
      <point x="527" y="54" type="curve" smooth="yes"/>
      <point x="536" y="54"/>
      <point x="545" y="55"/>
      <point x="556" y="58" type="curve"/>
      <point x="556" y="3" type="line"/>
      <point x="534" y="-2"/>
      <point x="511" y="-5"/>
      <point x="488" y="-5" type="curve" smooth="yes"/>
      <point x="423" y="-5"/>
      <point x="396" y="28"/>
      <point x="392" y="101" type="curve"/>
      <point x="389" y="101" type="line"/>
      <point x="344" y="21"/>
      <point x="287" y="-10"/>
    </contour>
    <contour>
      <point x="222" y="56" type="curve" smooth="yes"/>
      <point x="319" y="52"/>
      <point x="390" y="136"/>
      <point x="389" y="217" type="curve" smooth="yes"/>
      <point x="389" y="261" type="line"/>
      <point x="293" y="259" type="line" smooth="yes"/>
      <point x="172" y="256"/>
      <point x="138" y="226"/>
      <point x="133" y="146" type="curve" smooth="yes"/>
      <point x="133" y="89"/>
      <point x="165" y="56"/>
    </contour>
    <contour>
      <point x="360" y="586" type="curve" smooth="yes"/>
      <point x="303" y="586"/>
      <point x="251" y="645"/>
      <point x="210" y="645" type="curve" smooth="yes"/>
      <point x="175" y="645"/>
      <point x="158" y="623"/>
      <point x="153" y="586" type="curve"/>
      <point x="108" y="586" type="line"/>
      <point x="120" y="683"/>
      <point x="145" y="712"/>
      <point x="208" y="717" type="curve"/>
      <point x="264" y="717"/>
      <point x="319" y="659"/>
      <point x="356" y="659" type="curve" smooth="yes"/>
      <point x="389" y="659"/>
      <point x="408" y="678"/>
      <point x="414" y="717" type="curve"/>
      <point x="458" y="717" type="line"/>
      <point x="447" y="621"/>
      <point x="415" y="586"/>
    </contour>
  </outline>
</glyph>
<glyph name="aring" format="1">
  <advance width="556"/>
  <unicode hex="00E5"/>
  <outline>
    <contour>
      <point x="202" y="-10" type="curve" smooth="yes"/>
      <point x="97" y="-10"/>
      <point x="42" y="50"/>
      <point x="42" y="147" type="curve" smooth="yes"/>
      <point x="42" y="256"/>
      <point x="110" y="316"/>
      <point x="271" y="320" type="curve" smooth="yes"/>
      <point x="389" y="322" type="line"/>
      <point x="389" y="351" type="line" smooth="yes"/>
      <point x="389" y="438"/>
      <point x="353" y="471"/>
      <point x="276" y="471" type="curve" smooth="yes"/>
      <point x="197" y="471"/>
      <point x="165" y="446"/>
      <point x="158" y="387" type="curve"/>
      <point x="66" y="396" type="line"/>
      <point x="81" y="491"/>
      <point x="151" y="538"/>
      <point x="278" y="538" type="curve" smooth="yes"/>
      <point x="410" y="538"/>
      <point x="478" y="476"/>
      <point x="478" y="360" type="curve" smooth="yes"/>
      <point x="478" y="133" type="line" smooth="yes"/>
      <point x="478" y="81"/>
      <point x="490" y="54"/>
      <point x="527" y="54" type="curve" smooth="yes"/>
      <point x="536" y="54"/>
      <point x="545" y="55"/>
      <point x="556" y="58" type="curve"/>
      <point x="556" y="3" type="line"/>
      <point x="534" y="-2"/>
      <point x="511" y="-5"/>
      <point x="488" y="-5" type="curve" smooth="yes"/>
      <point x="423" y="-5"/>
      <point x="396" y="28"/>
      <point x="392" y="101" type="curve"/>
      <point x="389" y="101" type="line"/>
      <point x="344" y="21"/>
      <point x="287" y="-10"/>
    </contour>
    <contour>
      <point x="222" y="56" type="curve" smooth="yes"/>
      <point x="319" y="52"/>
      <point x="390" y="136"/>
      <point x="389" y="217" type="curve" smooth="yes"/>
      <point x="389" y="261" type="line"/>
      <point x="293" y="259" type="line" smooth="yes"/>
      <point x="172" y="256"/>
      <point x="138" y="226"/>
      <point x="133" y="146" type="curve" smooth="yes"/>
      <point x="133" y="89"/>
      <point x="165" y="56"/>
    </contour>
    <contour>
      <point x="390" y="688" type="curve" smooth="yes"/>
      <point x="390" y="656"/>
      <point x="378" y="628"/>
      <point x="355" y="605" type="curve" smooth="yes"/>
      <point x="332" y="582"/>
      <point x="305" y="570"/>
      <point x="272" y="570" type="curve" smooth="yes"/>
      <point x="239" y="570"/>
      <point x="211" y="582"/>
      <point x="188" y="605" type="curve" smooth="yes"/>
      <point x="165" y="628"/>
      <point x="154" y="656"/>
      <point x="154" y="688" type="curve" smooth="yes"/>
      <point x="154" y="721"/>
      <point x="165" y="749"/>
      <point x="188" y="772" type="curve" smooth="yes"/>
      <point x="211" y="795"/>
      <point x="239" y="806"/>
      <point x="272" y="806" type="curve" smooth="yes"/>
      <point x="304" y="806"/>
      <point x="332" y="794"/>
      <point x="355" y="771" type="curve" smooth="yes"/>
      <point x="378" y="748"/>
      <point x="390" y="721"/>
    </contour>
    <contour>
      <point x="337" y="688" type="curve" smooth="yes"/>
      <point x="337" y="725"/>
      <point x="308" y="754"/>
      <point x="272" y="754" type="curve" smooth="yes"/>
      <point x="235" y="754"/>
      <point x="206" y="725"/>
      <point x="206" y="688" type="curve" smooth="yes"/>
      <point x="206" y="653"/>
      <point x="233" y="622"/>
      <point x="272" y="622" type="curve" smooth="yes"/>
      <point x="309" y="622"/>
      <point x="337" y="652"/>
    </contour>
  </outline>
</glyph>
<glyph name="ccedilla" format="1">
  <advance width="500"/>
  <unicode hex="00E7"/>
  <outline>
    <contour>
      <point x="134" y="267" type="curve" smooth="yes"/>
      <point x="134" y="126"/>
      <point x="179" y="60"/>
      <point x="268" y="60" type="curve" smooth="yes"/>
      <point x="329" y="60"/>
      <point x="374" y="92"/>
      <point x="385" y="163" type="curve"/>
      <point x="474" y="157" type="line"/>
      <point x="459" y="56"/>
      <point x="382" y="-10"/>
      <point x="270" y="-10" type="curve" smooth="yes"/>
      <point x="122" y="-10"/>
      <point x="42" y="85"/>
      <point x="42" y="265" type="curve" smooth="yes"/>
      <point x="42" y="442"/>
      <point x="124" y="538"/>
      <point x="269" y="538" type="curve" smooth="yes"/>
      <point x="377" y="538"/>
      <point x="452" y="479"/>
      <point x="471" y="380" type="curve"/>
      <point x="380" y="374" type="line"/>
      <point x="372" y="431"/>
      <point x="335" y="469"/>
      <point x="267" y="469" type="curve" smooth="yes"/>
      <point x="174" y="469"/>
      <point x="134" y="412"/>
    </contour>
    <contour>
      <point x="367" y="-124" type="curve" smooth="yes"/>
      <point x="367" y="-183"/>
      <point x="322" y="-212"/>
      <point x="233" y="-212" type="curve" smooth="yes"/>
      <point x="214" y="-212"/>
      <point x="200" y="-211"/>
      <point x="189" y="-210" type="curve"/>
      <point x="189" y="-162" type="line"/>
      <point x="205" y="-164"/>
      <point x="219" y="-165"/>
      <point x="231" y="-165" type="curve" smooth="yes"/>
      <point x="279" y="-165"/>
      <point x="303" y="-152"/>
      <point x="303" y="-125" type="curve" smooth="yes"/>
      <point x="303" y="-100"/>
      <point x="281" y="-88"/>
      <point x="238" y="-88" type="curve" smooth="yes"/>
      <point x="224" y="-88"/>
      <point x="215" y="-88"/>
      <point x="210" y="-89" type="curve"/>
      <point x="242" y="0" type="line"/>
      <point x="294" y="0" type="line"/>
      <point x="275" y="-49" type="line"/>
      <point x="336" y="-50"/>
      <point x="367" y="-79"/>
    </contour>
  </outline>
</glyph>
<glyph name="igrave" format="1">
  <advance width="278"/>
  <unicode hex="00EC"/>
  <outline>
    <contour>
      <point x="183" y="0" type="line"/>
      <point x="95" y="0" type="line"/>
      <point x="95" y="528" type="line"/>
      <point x="183" y="528" type="line"/>
    </contour>
    <contour>
      <point x="212" y="586" type="line"/>
      <point x="166" y="586" type="line"/>
      <point x="5" y="722" type="line"/>
      <point x="5" y="736" type="line"/>
      <point x="106" y="736" type="line"/>
      <point x="212" y="596" type="line"/>
    </contour>
  </outline>
</glyph>
<glyph name="iacute" format="1">
  <advance width="278"/>
  <unicode hex="00ED"/>
  <outline>
    <contour>
      <point x="183" y="0" type="line"/>
      <point x="95" y="0" type="line"/>
      <point x="95" y="528" type="line"/>
      <point x="183" y="528" type="line"/>
    </contour>
    <contour>
      <point x="112" y="586" type="line"/>
      <point x="66" y="586" type="line"/>
      <point x="66" y="596" type="line"/>
      <point x="172" y="736" type="line"/>
      <point x="273" y="736" type="line"/>
      <point x="273" y="722" type="line"/>
    </contour>
  </outline>
</glyph>
<glyph name="icircumflex" format="1">
  <advance width="278"/>
  <unicode hex="00EE"/>
  <outline>
    <contour>
      <point x="183" y="0" type="line"/>
      <point x="95" y="0" type="line"/>
      <point x="95" y="528" type="line"/>
      <point x="183" y="528" type="line"/>
    </contour>
    <contour>
      <point x="192" y="728" type="line"/>
      <point x="301" y="596" type="line"/>
      <point x="301" y="586" type="line"/>
      <point x="250" y="586" type="line"/>
      <point x="143" y="669" type="line"/>
      <point x="142" y="669" type="line"/>
      <point x="29" y="586" type="line"/>
      <point x="-22" y="586" type="line"/>
      <point x="-22" y="596" type="line"/>
      <point x="92" y="728" type="line"/>
    </contour>
  </outline>
</glyph>
<glyph name="idieresis" format="1">
  <advance width="278"/>
  <unicode hex="00EF"/>
  <outline>
    <contour>
      <point x="183" y="0" type="line"/>
      <point x="95" y="0" type="line"/>
      <point x="95" y="528" type="line"/>
      <point x="183" y="528" type="line"/>
    </contour>
    <contour>
      <point x="276" y="595" type="line"/>
      <point x="196" y="595" type="line"/>
      <point x="196" y="685" type="line"/>
      <point x="276" y="685" type="line"/>
    </contour>
    <contour>
      <point x="84" y="595" type="line"/>
      <point x="4" y="595" type="line"/>
      <point x="4" y="685" type="line"/>
      <point x="84" y="685" type="line"/>
    </contour>
  </outline>
</glyph>
<glyph name="oacute" format="1">
  <advance width="556"/>
  <unicode hex="00F3"/>
  <outline>
    <contour>
      <point x="514" y="265" type="curve" smooth="yes"/>
      <point x="514" y="80"/>
      <point x="431" y="-10"/>
      <point x="276" y="-10" type="curve" smooth="yes"/>
      <point x="121" y="-10"/>
      <point x="42" y="86"/>
      <point x="42" y="265" type="curve" smooth="yes"/>
      <point x="42" y="447"/>
      <point x="121" y="538"/>
      <point x="279" y="538" type="curve" smooth="yes"/>
      <point x="440" y="538"/>
      <point x="514" y="452"/>
    </contour>
    <contour>
      <point x="422" y="265" type="curve" smooth="yes"/>
      <point x="422" y="410"/>
      <point x="383" y="473"/>
      <point x="280" y="473" type="curve" smooth="yes"/>
      <point x="177" y="473"/>
      <point x="134" y="408"/>
      <point x="134" y="265" type="curve" smooth="yes"/>
      <point x="134" y="125"/>
      <point x="178" y="55"/>
      <point x="275" y="55" type="curve" smooth="yes"/>
      <point x="380" y="55"/>
      <point x="422" y="121"/>
    </contour>
    <contour>
      <point x="256" y="586" type="line"/>
      <point x="210" y="586" type="line"/>
      <point x="210" y="596" type="line"/>
      <point x="316" y="736" type="line"/>
      <point x="417" y="736" type="line"/>
      <point x="417" y="722" type="line"/>
    </contour>
  </outline>
</glyph>
<glyph name="oslash" format="1">
  <advance width="611"/>
  <unicode hex="00F8"/>
  <outline>
    <contour>
      <point x="543" y="265" type="curve" smooth="yes"/>
      <point x="543" y="80"/>
      <point x="460" y="-10"/>
      <point x="305" y="-10" type="curve" smooth="yes"/>
      <point x="241" y="-10"/>
      <point x="190" y="6"/>
      <point x="152" y="38" type="curve"/>
      <point x="103" y="-19" type="line"/>
      <point x="21" y="-19" type="line"/>
      <point x="111" y="86" type="line"/>
      <point x="84" y="131"/>
      <point x="71" y="190"/>
      <point x="71" y="265" type="curve" smooth="yes"/>
      <point x="71" y="447"/>
      <point x="150" y="538"/>
      <point x="308" y="538" type="curve" smooth="yes"/>
      <point x="373" y="538"/>
      <point x="425" y="523"/>
      <point x="462" y="494" type="curve"/>
      <point x="506" y="545" type="line"/>
      <point x="588" y="545" type="line"/>
      <point x="503" y="447" type="line"/>
      <point x="530" y="404"/>
      <point x="543" y="343"/>
    </contour>
    <contour>
      <point x="451" y="265" type="curve" smooth="yes"/>
      <point x="451" y="307"/>
      <point x="447" y="343"/>
      <point x="439" y="373" type="curve"/>
      <point x="204" y="98" type="line"/>
      <point x="226" y="69"/>
      <point x="259" y="55"/>
      <point x="304" y="55" type="curve" smooth="yes"/>
      <point x="409" y="55"/>
      <point x="451" y="121"/>
    </contour>
    <contour>
      <point x="163" y="265" type="curve" smooth="yes"/>
      <point x="163" y="222"/>
      <point x="167" y="187"/>
      <point x="175" y="160" type="curve"/>
      <point x="410" y="434" type="line"/>
      <point x="388" y="460"/>
      <point x="354" y="473"/>
      <point x="309" y="473" type="curve" smooth="yes"/>
      <point x="206" y="473"/>
      <point x="163" y="408"/>
    </contour>
  </outline>
</glyph>
<glyph name="Abreve" format="1">
  <advance width="667"/>
  <unicode hex="0102"/>
  <outline>
    <contour>
      <point x="665" y="0" type="line"/>
      <point x="570" y="0" type="line"/>
      <point x="491" y="201" type="line"/>
      <point x="178" y="201" type="line"/>
      <point x="99" y="0" type="line"/>
      <point x="2" y="0" type="line"/>
      <point x="283" y="688" type="line"/>
      <point x="389" y="688" type="line"/>
    </contour>
    <contour>
      <point x="348" y="577" type="curve" smooth="yes"/>
      <point x="334" y="618" type="line"/>
      <point x="330" y="604" type="line" smooth="yes"/>
      <point x="322" y="577"/>
      <point x="310" y="542"/>
      <point x="294" y="500" type="curve" smooth="yes"/>
      <point x="206" y="274" type="line"/>
      <point x="463" y="274" type="line"/>
      <point x="375" y="501" type="line" smooth="yes"/>
      <point x="366" y="524"/>
      <point x="357" y="549"/>
    </contour>
    <contour>
      <point x="334" y="747" type="curve" smooth="yes"/>
      <point x="249" y="747"/>
      <point x="184" y="796"/>
      <point x="172" y="869" type="curve"/>
      <point x="229" y="869" type="line"/>
      <point x="241" y="834"/>
      <point x="276" y="813"/>
      <point x="335" y="813" type="curve" smooth="yes"/>
      <point x="395" y="813"/>
      <point x="429" y="834"/>
      <point x="440" y="869" type="curve"/>
      <point x="498" y="869" type="line"/>
      <point x="483" y="794"/>
      <point x="421" y="747"/>
    </contour>
  </outline>
</glyph>
<glyph name="aogonek" format="1">
  <advance width="556"/>
  <unicode hex="0105"/>
  <outline>
    <contour>
      <point x="202" y="-10" type="curve" smooth="yes"/>
      <point x="97" y="-10"/>
      <point x="42" y="50"/>
      <point x="42" y="147" type="curve" smooth="yes"/>
      <point x="42" y="256"/>
      <point x="110" y="316"/>
      <point x="271" y="320" type="curve" smooth="yes"/>
      <point x="389" y="322" type="line"/>
      <point x="389" y="351" type="line" smooth="yes"/>
      <point x="389" y="438"/>
      <point x="353" y="471"/>
      <point x="276" y="471" type="curve" smooth="yes"/>
      <point x="197" y="471"/>
      <point x="165" y="446"/>
      <point x="158" y="387" type="curve"/>
      <point x="66" y="396" type="line"/>
      <point x="81" y="491"/>
      <point x="151" y="538"/>
      <point x="278" y="538" type="curve" smooth="yes"/>
      <point x="410" y="538"/>
      <point x="478" y="476"/>
      <point x="478" y="360" type="curve" smooth="yes"/>
      <point x="478" y="133" type="line" smooth="yes"/>
      <point x="478" y="81"/>
      <point x="490" y="54"/>
      <point x="527" y="54" type="curve" smooth="yes"/>
      <point x="536" y="54"/>
      <point x="545" y="55"/>
      <point x="556" y="58" type="curve"/>
      <point x="556" y="3" type="line"/>
      <point x="534" y="-2"/>
      <point x="511" y="-5"/>
      <point x="488" y="-5" type="curve" smooth="yes"/>
      <point x="423" y="-5"/>
      <point x="396" y="28"/>
      <point x="392" y="101" type="curve"/>
      <point x="389" y="101" type="line"/>
      <point x="344" y="21"/>
      <point x="287" y="-10"/>
    </contour>
    <contour>
      <point x="222" y="56" type="curve" smooth="yes"/>
      <point x="319" y="52"/>
      <point x="390" y="136"/>
      <point x="389" y="217" type="curve" smooth="yes"/>
      <point x="389" y="261" type="line"/>
      <point x="293" y="259" type="line" smooth="yes"/>
      <point x="172" y="256"/>
      <point x="138" y="226"/>
      <point x="133" y="146" type="curve" smooth="yes"/>
      <point x="133" y="89"/>
      <point x="165" y="56"/>
    </contour>
    <contour>
      <point x="556" y="-143" type="curve"/>
      <point x="556" y="-195" type="line"/>
      <point x="535" y="-204"/>
      <point x="513" y="-208"/>
      <point x="488" y="-208" type="curve" smooth="yes"/>
      <point x="420" y="-208"/>
      <point x="385" y="-173"/>
      <point x="385" y="-117" type="curve" smooth="yes"/>
      <point x="385" y="-72"/>
      <point x="417" y="-25"/>
      <point x="461" y="0" type="curve"/>
      <point x="526" y="0" type="line"/>
      <point x="493" y="-19"/>
      <point x="454" y="-60"/>
      <point x="454" y="-111" type="curve" smooth="yes"/>
      <point x="454" y="-138"/>
      <point x="471" y="-155"/>
      <point x="500" y="-155" type="curve" smooth="yes"/>
      <point x="517" y="-155"/>
      <point x="536" y="-151"/>
    </contour>
  </outline>
</glyph>
<glyph name="Cacute" format="1">
  <advance width="722"/>
  <unicode hex="0106"/>
  <outline>
    <contour>
      <point x="387" y="622" type="curve" smooth="yes"/>
      <point x="234" y="622"/>
      <point x="146" y="518"/>
      <point x="146" y="347" type="curve" smooth="yes"/>
      <point x="146" y="263"/>
      <point x="168" y="195"/>
      <point x="212" y="144" type="curve" smooth="yes"/>
      <point x="256" y="93"/>
      <point x="316" y="67"/>
      <point x="391" y="67" type="curve" smooth="yes"/>
      <point x="487" y="67"/>
      <point x="559" y="115"/>
      <point x="608" y="210" type="curve"/>
      <point x="684" y="172" type="line"/>
      <point x="628" y="53"/>
      <point x="522" y="-10"/>
      <point x="386" y="-10" type="curve" smooth="yes"/>
      <point x="176" y="-10"/>
      <point x="51" y="127"/>
      <point x="51" y="347" type="curve" smooth="yes"/>
      <point x="51" y="457"/>
      <point x="81" y="543"/>
      <point x="140" y="605" type="curve" smooth="yes"/>
      <point x="199" y="667"/>
      <point x="281" y="698"/>
      <point x="386" y="698" type="curve" smooth="yes"/>
      <point x="533" y="698"/>
      <point x="631" y="640"/>
      <point x="678" y="528" type="curve"/>
      <point x="589" y="499" type="line"/>
      <point x="557" y="579"/>
      <point x="483" y="622"/>
    </contour>
    <contour>
      <point x="381" y="747" type="line"/>
      <point x="326" y="747" type="line"/>
      <point x="326" y="757" type="line"/>
      <point x="432" y="867" type="line"/>
      <point x="533" y="867" type="line"/>
      <point x="533" y="853" type="line"/>
    </contour>
  </outline>
</glyph>
<glyph name="Ebreve" format="1">
  <advance width="667"/>
  <unicode hex="0114"/>
  <outline>
    <contour>
      <point x="624" y="0" type="line"/>
      <point x="82" y="0" type="line"/>
      <point x="82" y="688" type="line"/>
      <point x="604" y="688" type="line"/>
      <point x="604" y="612" type="line"/>
      <point x="175" y="612" type="line"/>
      <point x="175" y="391" type="line"/>
      <point x="575" y="391" type="line"/>
      <point x="575" y="316" type="line"/>
      <point x="175" y="316" type="line"/>
      <point x="175" y="76" type="line"/>
      <point x="624" y="76" type="line"/>
    </contour>
    <contour>
      <point x="342" y="747" type="curve" smooth="yes"/>
      <point x="255" y="747"/>
      <point x="192" y="796"/>
      <point x="180" y="869" type="curve"/>
      <point x="237" y="869" type="line"/>
      <point x="249" y="834"/>
      <point x="284" y="813"/>
      <point x="343" y="813" type="curve" smooth="yes"/>
      <point x="403" y="813"/>
      <point x="437" y="834"/>
      <point x="448" y="869" type="curve"/>
      <point x="505" y="869" type="line"/>
      <point x="492" y="794"/>
      <point x="429" y="747"/>
    </contour>
  </outline>
</glyph>
<glyph name="Ecaron" format="1">
  <advance width="667"/>
  <unicode hex="011A"/>
  <outline>
    <contour>
      <point x="624" y="0" type="line"/>
      <point x="82" y="0" type="line"/>
      <point x="82" y="688" type="line"/>
      <point x="604" y="688" type="line"/>
      <point x="604" y="612" type="line"/>
      <point x="175" y="612" type="line"/>
      <point x="175" y="391" type="line"/>
      <point x="575" y="391" type="line"/>
      <point x="575" y="316" type="line"/>
      <point x="175" y="316" type="line"/>
      <point x="175" y="76" type="line"/>
      <point x="624" y="76" type="line"/>
    </contour>
    <contour>
      <point x="502" y="864" type="line"/>
      <point x="393" y="747" type="line"/>
      <point x="293" y="747" type="line"/>
      <point x="179" y="864" type="line"/>
      <point x="179" y="874" type="line"/>
      <point x="230" y="874" type="line"/>
      <point x="343" y="806" type="line"/>
      <point x="344" y="806" type="line"/>
      <point x="451" y="874" type="line"/>
      <point x="502" y="874" type="line"/>
    </contour>
  </outline>
</glyph>
<glyph name="Hbar" format="1">
  <advance width="722"/>
  <unicode hex="0126"/>
  <outline>
    <contour>
      <point x="641" y="0" type="line"/>
      <point x="550" y="0" type="line"/>
      <point x="550" y="319" type="line"/>
      <point x="175" y="319" type="line"/>
      <point x="175" y="0" type="line"/>
      <point x="82" y="0" type="line"/>
      <point x="82" y="500" type="line"/>
      <point x="7" y="500" type="line"/>
      <point x="7" y="576" type="line"/>
      <point x="82" y="576" type="line"/>
      <point x="82" y="688" type="line"/>
      <point x="175" y="688" type="line"/>
      <point x="175" y="576" type="line"/>
      <point x="550" y="576" type="line"/>
      <point x="550" y="688" type="line"/>
      <point x="641" y="688" type="line"/>
      <point x="641" y="576" type="line"/>
      <point x="715" y="576" type="line"/>
      <point x="715" y="500" type="line"/>
      <point x="641" y="500" type="line"/>
    </contour>
    <contour>
      <point x="175" y="397" type="line"/>
      <point x="550" y="397" type="line"/>
      <point x="550" y="500" type="line"/>
      <point x="175" y="500" type="line"/>
    </contour>
  </outline>
</glyph>
<glyph name="imacron" format="1">
  <advance width="278"/>
  <unicode hex="012B"/>
  <outline>
    <contour>
      <point x="183" y="0" type="line"/>
      <point x="95" y="0" type="line"/>
      <point x="95" y="528" type="line"/>
      <point x="183" y="528" type="line"/>
    </contour>
    <contour>
      <point x="274" y="666" type="line"/>
      <point x="274" y="604" type="line"/>
      <point x="6" y="604" type="line"/>
      <point x="6" y="666" type="line"/>
    </contour>
  </outline>
</glyph>
<glyph name="ibreve" format="1">
  <advance width="278"/>
  <unicode hex="012D"/>
  <outline>
    <contour>
      <point x="183" y="0" type="line"/>
      <point x="95" y="0" type="line"/>
      <point x="95" y="528" type="line"/>
      <point x="183" y="528" type="line"/>
    </contour>
    <contour>
      <point x="140" y="586" type="curve" smooth="yes"/>
      <point x="53" y="586"/>
      <point x="-11" y="646"/>
      <point x="-22" y="737" type="curve"/>
      <point x="35" y="737" type="line"/>
      <point x="44" y="688"/>
      <point x="79" y="663"/>
      <point x="141" y="663" type="curve" smooth="yes"/>
      <point x="201" y="663"/>
      <point x="236" y="688"/>
      <point x="246" y="737" type="curve"/>
      <point x="303" y="737" type="line"/>
      <point x="288" y="645"/>
      <point x="227" y="586"/>
    </contour>
  </outline>
</glyph>
<glyph name="Iogonek" format="1">
  <advance width="278"/>
  <unicode hex="012E"/>
  <outline>
    <contour>
      <point x="186" y="0" type="line"/>
      <point x="92" y="0" type="line"/>
      <point x="92" y="688" type="line"/>
      <point x="186" y="688" type="line"/>
    </contour>
    <contour>
      <point x="216" y="-143" type="curve"/>
      <point x="216" y="-195" type="line"/>
      <point x="195" y="-204"/>
      <point x="173" y="-208"/>
      <point x="148" y="-208" type="curve" smooth="yes"/>
      <point x="80" y="-208"/>
      <point x="45" y="-173"/>
      <point x="45" y="-117" type="curve" smooth="yes"/>
      <point x="45" y="-72"/>
      <point x="76" y="-25"/>
      <point x="121" y="0" type="curve"/>
      <point x="186" y="0" type="line"/>
      <point x="152" y="-18"/>
      <point x="114" y="-61"/>
      <point x="114" y="-111" type="curve" smooth="yes"/>
      <point x="114" y="-138"/>
      <point x="131" y="-155"/>
      <point x="160" y="-155" type="curve" smooth="yes"/>
      <point x="177" y="-155"/>
      <point x="196" y="-151"/>
    </contour>
  </outline>
</glyph>
<glyph name="iogonek" format="1">
  <advance width="222"/>
  <unicode hex="012F"/>
  <outline>
    <contour>
      <point x="155" y="641" type="line"/>
      <point x="67" y="641" type="line"/>
      <point x="67" y="725" type="line"/>
      <point x="155" y="725" type="line"/>
    </contour>
    <contour>
      <point x="155" y="0" type="line"/>
      <point x="67" y="0" type="line"/>
      <point x="67" y="528" type="line"/>
      <point x="155" y="528" type="line"/>
    </contour>
    <contour>
      <point x="186" y="-143" type="curve"/>
      <point x="186" y="-195" type="line"/>
      <point x="165" y="-204"/>
      <point x="143" y="-208"/>
      <point x="118" y="-208" type="curve" smooth="yes"/>
      <point x="50" y="-208"/>
      <point x="15" y="-173"/>
      <point x="15" y="-117" type="curve" smooth="yes"/>
      <point x="15" y="-72"/>
      <point x="47" y="-25"/>
      <point x="91" y="0" type="curve"/>
      <point x="156" y="0" type="line"/>
      <point x="123" y="-19"/>
      <point x="84" y="-60"/>
      <point x="84" y="-111" type="curve" smooth="yes"/>
      <point x="84" y="-138"/>
      <point x="101" y="-155"/>
      <point x="130" y="-155" type="curve" smooth="yes"/>
      <point x="147" y="-155"/>
      <point x="166" y="-151"/>
    </contour>
  </outline>
</glyph>
<glyph name="IJ" format="1">
  <advance width="735"/>
  <unicode hex="0132"/>
  <outline>
    <contour>
      <point x="176" y="0" type="line"/>
      <point x="83" y="0" type="line"/>
      <point x="83" y="688" type="line"/>
      <point x="176" y="688" type="line"/>
    </contour>
    <contour>
      <point x="458" y="-10" type="curve" smooth="yes"/>
      <point x="341" y="-10"/>
      <point x="272" y="50"/>
      <point x="250" y="171" type="curve"/>
      <point x="342" y="186" type="line"/>
      <point x="354" y="110"/>
      <point x="397" y="66"/>
      <point x="458" y="66" type="curve" smooth="yes"/>
      <point x="526" y="66"/>
      <point x="568" y="114"/>
      <point x="568" y="203" type="curve" smooth="yes"/>
      <point x="568" y="612" type="line"/>
      <point x="436" y="612" type="line"/>
      <point x="436" y="688" type="line"/>
      <point x="661" y="688" type="line"/>
      <point x="661" y="205" type="line" smooth="yes"/>
      <point x="661" y="72"/>
      <point x="583" y="-10"/>
    </contour>
  </outline>
</glyph>
<glyph name="Jcircumflex" format="1">
  <advance width="500"/>
  <unicode hex="0134"/>
  <outline>
    <contour>
      <point x="223" y="-10" type="curve" smooth="yes"/>
      <point x="106" y="-10"/>
      <point x="37" y="50"/>
      <point x="16" y="171" type="curve"/>
      <point x="107" y="186" type="line"/>
      <point x="119" y="110"/>
      <point x="161" y="66"/>
      <point x="224" y="66" type="curve" smooth="yes"/>
      <point x="291" y="66"/>
      <point x="333" y="114"/>
      <point x="333" y="203" type="curve" smooth="yes"/>
      <point x="333" y="612" type="line"/>
      <point x="201" y="612" type="line"/>
      <point x="201" y="688" type="line"/>
      <point x="426" y="688" type="line"/>
      <point x="426" y="205" type="line" smooth="yes"/>
      <point x="426" y="72"/>
      <point x="348" y="-10"/>
    </contour>
    <contour>
      <point x="366" y="874" type="line"/>
      <point x="475" y="757" type="line"/>
      <point x="475" y="747" type="line"/>
      <point x="424" y="747" type="line"/>
      <point x="317" y="815" type="line"/>
      <point x="316" y="815" type="line"/>
      <point x="203" y="747" type="line"/>
      <point x="152" y="747" type="line"/>
      <point x="152" y="757" type="line"/>
      <point x="266" y="874" type="line"/>
    </contour>
  </outline>
</glyph>
<glyph name="Kcommaaccent" format="1">
  <advance width="667"/>
  <unicode hex="0136"/>
  <outline>
    <contour>
      <point x="656" y="0" type="line"/>
      <point x="540" y="0" type="line"/>
      <point x="265" y="332" type="line"/>
      <point x="175" y="264" type="line"/>
      <point x="175" y="0" type="line"/>
      <point x="82" y="0" type="line"/>
      <point x="82" y="688" type="line"/>
      <point x="175" y="688" type="line"/>
      <point x="175" y="343" type="line"/>
      <point x="507" y="688" type="line"/>
      <point x="617" y="688" type="line"/>
      <point x="324" y="389" type="line"/>
    </contour>
    <contour>
      <point x="393" y="-48" type="line"/>
      <point x="393" y="-94" type="line" smooth="yes"/>
      <point x="393" y="-151"/>
      <point x="379" y="-181"/>
      <point x="352" y="-212" type="curve"/>
      <point x="295" y="-212" type="line"/>
      <point x="324" y="-180"/>
      <point x="341" y="-153"/>
      <point x="341" y="-124" type="curve"/>
      <point x="298" y="-124" type="line"/>
      <point x="298" y="-48" type="line"/>
    </contour>
  </outline>
</glyph>
<glyph name="kcommaaccent" format="1">
  <advance width="500"/>
  <unicode hex="0137"/>
  <outline>
    <contour>
      <point x="501" y="0" type="line"/>
      <point x="398" y="0" type="line"/>
      <point x="220" y="241" type="line"/>
      <point x="155" y="188" type="line"/>
      <point x="155" y="0" type="line"/>
      <point x="67" y="0" type="line"/>
      <point x="67" y="725" type="line"/>
      <point x="155" y="725" type="line"/>
      <point x="155" y="272" type="line"/>
      <point x="387" y="528" type="line"/>
      <point x="490" y="528" type="line"/>
      <point x="276" y="301" type="line"/>
    </contour>
    <contour>
      <point x="323" y="-48" type="line"/>
      <point x="323" y="-94" type="line" smooth="yes"/>
      <point x="323" y="-151"/>
      <point x="309" y="-181"/>
      <point x="282" y="-212" type="curve"/>
      <point x="225" y="-212" type="line"/>
      <point x="254" y="-180"/>
      <point x="271" y="-153"/>
      <point x="271" y="-124" type="curve"/>
      <point x="228" y="-124" type="line"/>
      <point x="228" y="-48" type="line"/>
    </contour>
  </outline>
</glyph>
<glyph name="Lacute" format="1">
  <advance width="556"/>
  <unicode hex="0139"/>
  <outline>
    <contour>
      <point x="523" y="0" type="line"/>
      <point x="82" y="0" type="line"/>
      <point x="82" y="688" type="line"/>
      <point x="175" y="688" type="line"/>
      <point x="175" y="76" type="line"/>
      <point x="523" y="76" type="line"/>
    </contour>
    <contour>
      <point x="175" y="747" type="line"/>
      <point x="120" y="747" type="line"/>
      <point x="120" y="757" type="line"/>
      <point x="226" y="867" type="line"/>
      <point x="327" y="867" type="line"/>
      <point x="327" y="853" type="line"/>
    </contour>
  </outline>
</glyph>
<glyph name="Lcommaaccent" format="1">
  <advance width="556"/>
  <unicode hex="013B"/>
  <outline>
    <contour>
      <point x="523" y="0" type="line"/>
      <point x="82" y="0" type="line"/>
      <point x="82" y="688" type="line"/>
      <point x="175" y="688" type="line"/>
      <point x="175" y="76" type="line"/>
      <point x="523" y="76" type="line"/>
    </contour>
    <contour>
      <point x="350" y="-48" type="line"/>
      <point x="350" y="-94" type="line" smooth="yes"/>
      <point x="350" y="-151"/>
      <point x="336" y="-181"/>
      <point x="309" y="-212" type="curve"/>
      <point x="252" y="-212" type="line"/>
      <point x="281" y="-180"/>
      <point x="298" y="-153"/>
      <point x="298" y="-124" type="curve"/>
      <point x="255" y="-124" type="line"/>
      <point x="255" y="-48" type="line"/>
    </contour>
  </outline>
</glyph>
<glyph name="Lcaron" format="1">
  <advance width="556"/>
  <unicode hex="013D"/>
  <outline>
    <contour>
      <point x="523" y="0" type="line"/>
      <point x="82" y="0" type="line"/>
      <point x="82" y="688" type="line"/>
      <point x="175" y="688" type="line"/>
      <point x="175" y="76" type="line"/>
      <point x="523" y="76" type="line"/>
    </contour>
    <contour>
      <point x="419" y="688" type="line"/>
      <point x="419" y="636" type="line" smooth="yes"/>
      <point x="419" y="580"/>
      <point x="403" y="545"/>
      <point x="378" y="514" type="curve"/>
      <point x="321" y="514" type="line"/>
      <point x="352" y="547"/>
      <point x="367" y="577"/>
      <point x="367" y="606" type="curve"/>
      <point x="324" y="606" type="line"/>
      <point x="324" y="688" type="line"/>
    </contour>
  </outline>
</glyph>
<glyph name="lcaron" format="1">
  <advance width="292"/>
  <unicode hex="013E"/>
  <outline>
    <contour>
      <point x="155" y="0" type="line"/>
      <point x="67" y="0" type="line"/>
      <point x="67" y="725" type="line"/>
      <point x="155" y="725" type="line"/>
    </contour>
    <contour>
      <point x="301" y="725" type="line"/>
      <point x="301" y="673" type="line" smooth="yes"/>
      <point x="301" y="616"/>
      <point x="287" y="581"/>
      <point x="260" y="550" type="curve"/>
      <point x="203" y="550" type="line"/>
      <point x="234" y="583"/>
      <point x="249" y="614"/>
      <point x="249" y="643" type="curve"/>
      <point x="206" y="643" type="line"/>
      <point x="206" y="725" type="line"/>
    </contour>
  </outline>
</glyph>
<glyph name="Ldot" format="1">
  <advance width="556"/>
  <unicode hex="013F"/>
  <outline>
    <contour>
      <point x="523" y="0" type="line"/>
      <point x="82" y="0" type="line"/>
      <point x="82" y="688" type="line"/>
      <point x="175" y="688" type="line"/>
      <point x="175" y="76" type="line"/>
      <point x="523" y="76" type="line"/>
    </contour>
    <contour>
      <point x="393" y="335" type="line"/>
      <point x="305" y="335" type="line"/>
      <point x="305" y="419" type="line"/>
      <point x="393" y="419" type="line"/>
    </contour>
  </outline>
</glyph>
<glyph name="Lslash" format="1">
  <advance width="556"/>
  <unicode hex="0141"/>
  <outline>
    <contour>
      <point x="301" y="466" type="line"/>
      <point x="301" y="389" type="line"/>
      <point x="175" y="316" type="line"/>
      <point x="175" y="76" type="line"/>
      <point x="523" y="76" type="line"/>
      <point x="523" y="0" type="line"/>
      <point x="82" y="0" type="line"/>
      <point x="82" y="263" type="line"/>
      <point x="10" y="221" type="line"/>
      <point x="10" y="298" type="line"/>
      <point x="82" y="340" type="line"/>
      <point x="82" y="688" type="line"/>
      <point x="175" y="688" type="line"/>
      <point x="175" y="394" type="line"/>
    </contour>
  </outline>
</glyph>
<glyph name="napostrophe" format="1">
  <advance width="604"/>
  <unicode hex="0149"/>
  <outline>
    <contour>
      <point x="539" y="0" type="line"/>
      <point x="451" y="0" type="line"/>
      <point x="451" y="335" type="line" smooth="yes"/>
      <point x="451" y="438"/>
      <point x="425" y="470"/>
      <point x="342" y="470" type="curve" smooth="yes"/>
      <point x="257" y="470"/>
      <point x="205" y="409"/>
      <point x="205" y="306" type="curve" smooth="yes"/>
      <point x="205" y="0" type="line"/>
      <point x="117" y="0" type="line"/>
      <point x="117" y="416" type="line" smooth="yes"/>
      <point x="117" y="477"/>
      <point x="116" y="515"/>
      <point x="114" y="528" type="curve"/>
      <point x="197" y="528" type="line" smooth="yes"/>
      <point x="198" y="527"/>
      <point x="198" y="522"/>
      <point x="198" y="515" type="curve" smooth="yes"/>
      <point x="199" y="500"/>
      <point x="200" y="490"/>
      <point x="201" y="438" type="curve"/>
      <point x="203" y="438" type="line"/>
      <point x="243" y="511"/>
      <point x="293" y="538"/>
      <point x="372" y="538" type="curve" smooth="yes"/>
      <point x="487" y="538"/>
      <point x="539" y="485"/>
      <point x="539" y="352" type="curve" smooth="yes"/>
    </contour>
    <contour>
      <point x="97" y="688" type="line"/>
      <point x="97" y="617" type="line" smooth="yes"/>
      <point x="97" y="549"/>
      <point x="86" y="506"/>
      <point x="59" y="465" type="curve"/>
      <point x="-1" y="465" type="line"/>
      <point x="30" y="509"/>
      <point x="45" y="551"/>
      <point x="45" y="592" type="curve"/>
      <point x="2" y="592" type="line"/>
      <point x="2" y="688" type="line"/>
    </contour>
  </outline>
</glyph>
<glyph name="Obreve" format="1">
  <advance width="778"/>
  <unicode hex="014E"/>
  <outline>
    <contour>
      <point x="730" y="347" type="curve" smooth="yes"/>
      <point x="730" y="129"/>
      <point x="598" y="-10"/>
      <point x="388" y="-10" type="curve" smooth="yes"/>
      <point x="175" y="-10"/>
      <point x="47" y="128"/>
      <point x="47" y="347" type="curve" smooth="yes"/>
      <point x="47" y="457"/>
      <point x="77" y="543"/>
      <point x="137" y="605" type="curve" smooth="yes"/>
      <point x="198" y="667"/>
      <point x="282" y="698"/>
      <point x="389" y="698" type="curve" smooth="yes"/>
      <point x="600" y="698"/>
      <point x="730" y="567"/>
    </contour>
    <contour>
      <point x="635" y="347" type="curve" smooth="yes"/>
      <point x="635" y="519"/>
      <point x="545" y="622"/>
      <point x="389" y="622" type="curve" smooth="yes"/>
      <point x="232" y="622"/>
      <point x="142" y="522"/>
      <point x="142" y="347" type="curve" smooth="yes"/>
      <point x="142" y="261"/>
      <point x="164" y="193"/>
      <point x="207" y="142" type="curve" smooth="yes"/>
      <point x="250" y="91"/>
      <point x="311" y="66"/>
      <point x="388" y="66" type="curve" smooth="yes"/>
      <point x="547" y="66"/>
      <point x="635" y="168"/>
    </contour>
    <contour>
      <point x="388" y="747" type="curve" smooth="yes"/>
      <point x="301" y="747"/>
      <point x="238" y="796"/>
      <point x="226" y="869" type="curve"/>
      <point x="283" y="869" type="line"/>
      <point x="295" y="834"/>
      <point x="330" y="813"/>
      <point x="389" y="813" type="curve" smooth="yes"/>
      <point x="449" y="813"/>
      <point x="483" y="834"/>
      <point x="494" y="869" type="curve"/>
      <point x="551" y="869" type="line"/>
      <point x="538" y="794"/>
      <point x="475" y="747"/>
    </contour>
  </outline>
</glyph>
<glyph name="racute" format="1">
  <advance width="333"/>
  <unicode hex="0155"/>
  <outline>
    <contour>
      <point x="157" y="0" type="line"/>
      <point x="69" y="0" type="line"/>
      <point x="69" y="405" type="line" smooth="yes"/>
      <point x="69" y="442"/>
      <point x="68" y="483"/>
      <point x="66" y="528" type="curve"/>
      <point x="149" y="528" type="line"/>
      <point x="152" y="468"/>
      <point x="153" y="432"/>
      <point x="153" y="420" type="curve"/>
      <point x="155" y="420" type="line"/>
      <point x="183" y="511"/>
      <point x="214" y="538"/>
      <point x="281" y="538" type="curve" smooth="yes"/>
      <point x="292" y="538"/>
      <point x="304" y="536"/>
      <point x="316" y="533" type="curve"/>
      <point x="316" y="453" type="line"/>
      <point x="305" y="456"/>
      <point x="289" y="458"/>
      <point x="270" y="458" type="curve" smooth="yes"/>
      <point x="197" y="458"/>
      <point x="157" y="392"/>
      <point x="157" y="275" type="curve" smooth="yes"/>
    </contour>
    <contour>
      <point x="170" y="586" type="line"/>
      <point x="124" y="586" type="line"/>
      <point x="124" y="596" type="line"/>
      <point x="230" y="736" type="line"/>
      <point x="331" y="736" type="line"/>
      <point x="331" y="722" type="line"/>
    </contour>
  </outline>
</glyph>
<glyph name="uni0163" format="1">
  <advance width="278"/>
  <unicode hex="0163"/>
  <outline>
    <contour>
      <point x="271" y="69" type="curve"/>
      <point x="271" y="4" type="line"/>
      <point x="242" y="-4"/>
      <point x="212" y="-8"/>
      <point x="182" y="-8" type="curve" smooth="yes"/>
      <point x="111" y="-8"/>
      <point x="76" y="32"/>
      <point x="76" y="112" type="curve" smooth="yes"/>
      <point x="76" y="464" type="line"/>
      <point x="15" y="464" type="line"/>
      <point x="15" y="528" type="line"/>
      <point x="80" y="528" type="line"/>
      <point x="105" y="646" type="line"/>
      <point x="164" y="646" type="line"/>
      <point x="164" y="528" type="line"/>
      <point x="262" y="528" type="line"/>
      <point x="262" y="464" type="line"/>
      <point x="164" y="464" type="line"/>
      <point x="164" y="131" type="line" smooth="yes"/>
      <point x="164" y="80"/>
      <point x="179" y="62"/>
      <point x="220" y="62" type="curve" smooth="yes"/>
      <point x="231" y="62"/>
      <point x="248" y="64"/>
    </contour>
    <contour>
      <point x="275" y="-124" type="curve" smooth="yes"/>
      <point x="275" y="-183"/>
      <point x="230" y="-212"/>
      <point x="141" y="-212" type="curve" smooth="yes"/>
      <point x="122" y="-212"/>
      <point x="108" y="-211"/>
      <point x="97" y="-210" type="curve"/>
      <point x="97" y="-162" type="line"/>
      <point x="113" y="-164"/>
      <point x="127" y="-165"/>
      <point x="139" y="-165" type="curve" smooth="yes"/>
      <point x="187" y="-165"/>
      <point x="211" y="-152"/>
      <point x="211" y="-125" type="curve" smooth="yes"/>
      <point x="211" y="-100"/>
      <point x="189" y="-88"/>
      <point x="146" y="-88" type="curve" smooth="yes"/>
      <point x="132" y="-88"/>
      <point x="123" y="-88"/>
      <point x="118" y="-89" type="curve"/>
      <point x="150" y="0" type="line"/>
      <point x="202" y="0" type="line"/>
      <point x="183" y="-49" type="line"/>
      <point x="244" y="-50"/>
      <point x="275" y="-79"/>
    </contour>
  </outline>
</glyph>
<glyph name="tcaron" format="1">
  <advance width="375"/>
  <unicode hex="0165"/>
  <outline>
    <contour>
      <point x="271" y="69" type="curve"/>
      <point x="271" y="4" type="line"/>
      <point x="242" y="-4"/>
      <point x="212" y="-8"/>
      <point x="182" y="-8" type="curve" smooth="yes"/>
      <point x="111" y="-8"/>
      <point x="76" y="32"/>
      <point x="76" y="112" type="curve" smooth="yes"/>
      <point x="76" y="464" type="line"/>
      <point x="15" y="464" type="line"/>
      <point x="15" y="528" type="line"/>
      <point x="80" y="528" type="line"/>
      <point x="105" y="646" type="line"/>
      <point x="164" y="646" type="line"/>
      <point x="164" y="528" type="line"/>
      <point x="262" y="528" type="line"/>
      <point x="262" y="464" type="line"/>
      <point x="164" y="464" type="line"/>
      <point x="164" y="131" type="line" smooth="yes"/>
      <point x="164" y="80"/>
      <point x="179" y="62"/>
      <point x="220" y="62" type="curve" smooth="yes"/>
      <point x="231" y="62"/>
      <point x="248" y="64"/>
    </contour>
    <contour>
      <point x="383" y="725" type="line"/>
      <point x="383" y="673" type="line" smooth="yes"/>
      <point x="383" y="616"/>
      <point x="369" y="581"/>
      <point x="342" y="550" type="curve"/>
      <point x="285" y="550" type="line"/>
      <point x="316" y="583"/>
      <point x="331" y="614"/>
      <point x="331" y="643" type="curve"/>
      <point x="288" y="643" type="line"/>
      <point x="288" y="725" type="line"/>
    </contour>
  </outline>
</glyph>
<glyph name="tbar" format="1">
  <advance width="278"/>
  <unicode hex="0167"/>
  <outline>
    <contour>
      <point x="262" y="252" type="line"/>
      <point x="164" y="252" type="line"/>
      <point x="164" y="131" type="line" smooth="yes"/>
      <point x="164" y="80"/>
      <point x="179" y="62"/>
      <point x="220" y="62" type="curve" smooth="yes"/>
      <point x="231" y="62"/>
      <point x="248" y="64"/>
      <point x="271" y="69" type="curve"/>
      <point x="271" y="4" type="line"/>
      <point x="242" y="-4"/>
      <point x="212" y="-8"/>
      <point x="182" y="-8" type="curve" smooth="yes"/>
      <point x="111" y="-8"/>
      <point x="76" y="32"/>
      <point x="76" y="112" type="curve" smooth="yes"/>
      <point x="76" y="252" type="line"/>
      <point x="15" y="252" type="line"/>
      <point x="15" y="316" type="line"/>
      <point x="76" y="316" type="line"/>
      <point x="76" y="464" type="line"/>
      <point x="15" y="464" type="line"/>
      <point x="15" y="528" type="line"/>
      <point x="80" y="528" type="line"/>
      <point x="105" y="646" type="line"/>
      <point x="164" y="646" type="line"/>
      <point x="164" y="528" type="line"/>
      <point x="262" y="528" type="line"/>
      <point x="262" y="464" type="line"/>
      <point x="164" y="464" type="line"/>
      <point x="164" y="316" type="line"/>
      <point x="262" y="316" type="line"/>
    </contour>
  </outline>
</glyph>
<glyph name="Utilde" format="1">
  <advance width="722"/>
  <unicode hex="0168"/>
  <outline>
    <contour>
      <point x="357" y="-10" type="curve" smooth="yes"/>
      <point x="187" y="-10"/>
      <point x="77" y="87"/>
      <point x="77" y="250" type="curve" smooth="yes"/>
      <point x="77" y="688" type="line"/>
      <point x="170" y="688" type="line"/>
      <point x="170" y="258" type="line" smooth="yes"/>
      <point x="170" y="133"/>
      <point x="236" y="66"/>
      <point x="356" y="66" type="curve" smooth="yes"/>
      <point x="480" y="66"/>
      <point x="552" y="135"/>
      <point x="552" y="264" type="curve" smooth="yes"/>
      <point x="552" y="688" type="line"/>
      <point x="645" y="688" type="line"/>
      <point x="645" y="259" type="line" smooth="yes"/>
      <point x="645" y="90"/>
      <point x="532" y="-10"/>
    </contour>
    <contour>
      <point x="438" y="747" type="curve" smooth="yes"/>
      <point x="382" y="747"/>
      <point x="328" y="805"/>
      <point x="288" y="805" type="curve" smooth="yes"/>
      <point x="252" y="805"/>
      <point x="237" y="784"/>
      <point x="230" y="747" type="curve"/>
      <point x="186" y="747" type="line"/>
      <point x="197" y="843"/>
      <point x="223" y="873"/>
      <point x="285" y="878" type="curve"/>
      <point x="344" y="878"/>
      <point x="395" y="820"/>
      <point x="434" y="820" type="curve" smooth="yes"/>
      <point x="467" y="820"/>
      <point x="486" y="839"/>
      <point x="491" y="878" type="curve"/>
      <point x="536" y="878" type="line"/>
      <point x="525" y="782"/>
      <point x="493" y="747"/>
    </contour>
  </outline>
</glyph>
<glyph name="Ubreve" format="1">
  <advance width="722"/>
  <unicode hex="016C"/>
  <outline>
    <contour>
      <point x="357" y="-10" type="curve" smooth="yes"/>
      <point x="187" y="-10"/>
      <point x="77" y="87"/>
      <point x="77" y="250" type="curve" smooth="yes"/>
      <point x="77" y="688" type="line"/>
      <point x="170" y="688" type="line"/>
      <point x="170" y="258" type="line" smooth="yes"/>
      <point x="170" y="133"/>
      <point x="236" y="66"/>
      <point x="356" y="66" type="curve" smooth="yes"/>
      <point x="480" y="66"/>
      <point x="552" y="135"/>
      <point x="552" y="264" type="curve" smooth="yes"/>
      <point x="552" y="688" type="line"/>
      <point x="645" y="688" type="line"/>
      <point x="645" y="259" type="line" smooth="yes"/>
      <point x="645" y="90"/>
      <point x="532" y="-10"/>
    </contour>
    <contour>
      <point x="360" y="747" type="curve" smooth="yes"/>
      <point x="273" y="747"/>
      <point x="210" y="796"/>
      <point x="198" y="869" type="curve"/>
      <point x="255" y="869" type="line"/>
      <point x="267" y="834"/>
      <point x="302" y="813"/>
      <point x="361" y="813" type="curve" smooth="yes"/>
      <point x="421" y="813"/>
      <point x="455" y="834"/>
      <point x="466" y="869" type="curve"/>
      <point x="523" y="869" type="line"/>
      <point x="510" y="794"/>
      <point x="447" y="747"/>
    </contour>
  </outline>
</glyph>
<glyph name="ubreve" format="1">
  <advance width="556"/>
  <unicode hex="016D"/>
  <outline>
    <contour>
      <point x="65" y="528" type="line"/>
      <point x="153" y="528" type="line"/>
      <point x="153" y="193" type="line" smooth="yes"/>
      <point x="153" y="90"/>
      <point x="179" y="58"/>
      <point x="262" y="58" type="curve" smooth="yes"/>
      <point x="347" y="58"/>
      <point x="399" y="119"/>
      <point x="399" y="222" type="curve" smooth="yes"/>
      <point x="399" y="528" type="line"/>
      <point x="487" y="528" type="line"/>
      <point x="487" y="113" type="line" smooth="yes"/>
      <point x="487" y="52"/>
      <point x="488" y="14"/>
      <point x="490" y="0" type="curve"/>
      <point x="407" y="0" type="line" smooth="yes"/>
      <point x="406" y="1"/>
      <point x="406" y="6"/>
      <point x="405" y="13" type="curve" smooth="yes"/>
      <point x="405" y="28"/>
      <point x="404" y="39"/>
      <point x="403" y="90" type="curve"/>
      <point x="401" y="90" type="line"/>
      <point x="361" y="18"/>
      <point x="312" y="-10"/>
      <point x="232" y="-10" type="curve" smooth="yes"/>
      <point x="117" y="-10"/>
      <point x="65" y="44"/>
      <point x="65" y="176" type="curve" smooth="yes"/>
    </contour>
    <contour>
      <point x="275" y="586" type="curve" smooth="yes"/>
      <point x="190" y="586"/>
      <point x="125" y="646"/>
      <point x="113" y="737" type="curve"/>
      <point x="170" y="737" type="line"/>
      <point x="179" y="688"/>
      <point x="215" y="663"/>
      <point x="276" y="663" type="curve" smooth="yes"/>
      <point x="337" y="663"/>
      <point x="372" y="688"/>
      <point x="381" y="737" type="curve"/>
      <point x="438" y="737" type="line"/>
      <point x="425" y="645"/>
      <point x="363" y="586"/>
    </contour>
  </outline>
</glyph>
<glyph name="Uhungarumlaut" format="1">
  <advance width="722"/>
  <unicode hex="0170"/>
  <outline>
    <contour>
      <point x="357" y="-10" type="curve" smooth="yes"/>
      <point x="187" y="-10"/>
      <point x="77" y="87"/>
      <point x="77" y="250" type="curve" smooth="yes"/>
      <point x="77" y="688" type="line"/>
      <point x="170" y="688" type="line"/>
      <point x="170" y="258" type="line" smooth="yes"/>
      <point x="170" y="133"/>
      <point x="236" y="66"/>
      <point x="356" y="66" type="curve" smooth="yes"/>
      <point x="480" y="66"/>
      <point x="552" y="135"/>
      <point x="552" y="264" type="curve" smooth="yes"/>
      <point x="552" y="688" type="line"/>
      <point x="645" y="688" type="line"/>
      <point x="645" y="259" type="line" smooth="yes"/>
      <point x="645" y="90"/>
      <point x="532" y="-10"/>
    </contour>
    <contour>
      <point x="263" y="747" type="line"/>
      <point x="217" y="747" type="line"/>
      <point x="217" y="757" type="line"/>
      <point x="313" y="868" type="line"/>
      <point x="415" y="868" type="line"/>
      <point x="415" y="854" type="line"/>
    </contour>
    <contour>
      <point x="433" y="747" type="line"/>
      <point x="387" y="747" type="line"/>
      <point x="387" y="757" type="line"/>
      <point x="483" y="868" type="line"/>
      <point x="584" y="868" type="line"/>
      <point x="584" y="854" type="line"/>
    </contour>
  </outline>
</glyph>
<glyph name="Zacute" format="1">
  <advance width="611"/>
  <unicode hex="0179"/>
  <outline>
    <contour>
      <point x="580" y="76" type="line"/>
      <point x="580" y="0" type="line"/>
      <point x="32" y="0" type="line"/>
      <point x="32" y="70" type="line"/>
      <point x="451" y="612" type="line"/>
      <point x="67" y="612" type="line"/>
      <point x="67" y="688" type="line"/>
      <point x="557" y="688" type="line"/>
      <point x="557" y="620" type="line"/>
      <point x="138" y="76" type="line"/>
    </contour>
    <contour>
      <point x="294" y="747" type="line"/>
      <point x="238" y="747" type="line"/>
      <point x="238" y="757" type="line"/>
      <point x="344" y="867" type="line"/>
      <point x="445" y="867" type="line"/>
      <point x="445" y="853" type="line"/>
    </contour>
  </outline>
</glyph>
<glyph name="Zdotaccent" format="1">
  <advance width="611"/>
  <unicode hex="017B"/>
  <outline>
    <contour>
      <point x="580" y="76" type="line"/>
      <point x="580" y="0" type="line"/>
      <point x="32" y="0" type="line"/>
      <point x="32" y="70" type="line"/>
      <point x="451" y="612" type="line"/>
      <point x="67" y="612" type="line"/>
      <point x="67" y="688" type="line"/>
      <point x="557" y="688" type="line"/>
      <point x="557" y="620" type="line"/>
      <point x="138" y="76" type="line"/>
    </contour>
    <contour>
      <point x="350" y="784" type="line"/>
      <point x="262" y="784" type="line"/>
      <point x="262" y="868" type="line"/>
      <point x="350" y="868" type="line"/>
    </contour>
  </outline>
</glyph>
<glyph name="longs" format="1">
  <advance width="222"/>
  <unicode hex="017F"/>
  <outline>
    <contour>
      <point x="155" y="576" type="curve" smooth="yes"/>
      <point x="155" y="0" type="line"/>
      <point x="67" y="0" type="line"/>
      <point x="67" y="588" type="line" smooth="yes"/>
      <point x="67" y="684"/>
      <point x="109" y="724"/>
      <point x="196" y="724" type="curve" smooth="yes"/>
      <point x="221" y="724"/>
      <point x="241" y="722"/>
      <point x="258" y="718" type="curve"/>
      <point x="258" y="651" type="line"/>
      <point x="243" y="654"/>
      <point x="230" y="655"/>
      <point x="219" y="655" type="curve" smooth="yes"/>
      <point x="175" y="655"/>
      <point x="155" y="636"/>
    </contour>
  </outline>
</glyph>
<glyph name="uni0184" format="1">
  <advance width="656"/>
  <unicode hex="0184"/>
  <outline>
    <contour>
      <point x="617" y="204" type="curve" smooth="yes"/>
      <point x="617" y="83"/>
      <point x="527" y="0"/>
      <point x="380" y="0" type="curve" smooth="yes"/>
      <point x="82" y="0" type="line"/>
      <point x="82" y="494" type="line"/>
      <point x="5" y="574" type="line"/>
      <point x="5" y="590" type="line"/>
      <point x="148" y="688" type="line"/>
      <point x="175" y="688" type="line"/>
      <point x="175" y="402" type="line"/>
      <point x="374" y="402" type="line" smooth="yes"/>
      <point x="529" y="402"/>
      <point x="617" y="328"/>
    </contour>
    <contour>
      <point x="523" y="203" type="curve" smooth="yes"/>
      <point x="523" y="282"/>
      <point x="468" y="328"/>
      <point x="363" y="328" type="curve" smooth="yes"/>
      <point x="175" y="328" type="line"/>
      <point x="175" y="74" type="line"/>
      <point x="367" y="74" type="line" smooth="yes"/>
      <point x="474" y="74"/>
      <point x="523" y="123"/>
    </contour>
  </outline>
</glyph>
<glyph name="uni0186" format="1">
  <advance width="722"/>
  <unicode hex="0186"/>
  <outline>
    <contour>
      <point x="340" y="66" type="curve" smooth="yes"/>
      <point x="492" y="66"/>
      <point x="580" y="169"/>
      <point x="580" y="341" type="curve" smooth="yes"/>
      <point x="580" y="426"/>
      <point x="558" y="494"/>
      <point x="514" y="545" type="curve" smooth="yes"/>
      <point x="471" y="596"/>
      <point x="411" y="622"/>
      <point x="336" y="622" type="curve" smooth="yes"/>
      <point x="241" y="622"/>
      <point x="170" y="574"/>
      <point x="121" y="479" type="curve"/>
      <point x="44" y="517" type="line"/>
      <point x="101" y="634"/>
      <point x="205" y="698"/>
      <point x="341" y="698" type="curve" smooth="yes"/>
      <point x="446" y="698"/>
      <point x="527" y="666"/>
      <point x="586" y="602" type="curve" smooth="yes"/>
      <point x="645" y="539"/>
      <point x="675" y="452"/>
      <point x="675" y="341" type="curve" smooth="yes"/>
      <point x="675" y="231"/>
      <point x="645" y="145"/>
      <point x="586" y="83" type="curve" smooth="yes"/>
      <point x="527" y="21"/>
      <point x="446" y="-10"/>
      <point x="341" y="-10" type="curve" smooth="yes"/>
      <point x="194" y="-10"/>
      <point x="98" y="47"/>
      <point x="51" y="161" type="curve"/>
      <point x="139" y="190" type="line"/>
      <point x="168" y="111"/>
      <point x="243" y="66"/>
    </contour>
  </outline>
</glyph>
<glyph name="uni0188" format="1">
  <advance width="500"/>
  <unicode hex="0188"/>
  <outline>
    <contour>
      <point x="134" y="267" type="curve" smooth="yes"/>
      <point x="134" y="126"/>
      <point x="179" y="60"/>
      <point x="268" y="60" type="curve" smooth="yes"/>
      <point x="329" y="60"/>
      <point x="374" y="92"/>
      <point x="385" y="163" type="curve"/>
      <point x="474" y="157" type="line"/>
      <point x="459" y="56"/>
      <point x="382" y="-10"/>
      <point x="270" y="-10" type="curve" smooth="yes"/>
      <point x="122" y="-10"/>
      <point x="42" y="85"/>
      <point x="42" y="265" type="curve" smooth="yes"/>
      <point x="42" y="442"/>
      <point x="124" y="538"/>
      <point x="269" y="538" type="curve" smooth="yes"/>
      <point x="318" y="538"/>
      <point x="359" y="526"/>
      <point x="394" y="503" type="curve"/>
      <point x="399" y="582"/>
      <point x="443" y="626"/>
      <point x="520" y="626" type="curve" smooth="yes"/>
      <point x="535" y="626"/>
      <point x="551" y="624"/>
      <point x="568" y="621" type="curve"/>
      <point x="568" y="547" type="line"/>
      <point x="557" y="552"/>
      <point x="544" y="555"/>
      <point x="530" y="555" type="curve" smooth="yes"/>
      <point x="487" y="555"/>
      <point x="471" y="534"/>
      <point x="471" y="483" type="curve" smooth="yes"/>
      <point x="471" y="380" type="line"/>
      <point x="380" y="374" type="line"/>
      <point x="372" y="431"/>
      <point x="335" y="469"/>
      <point x="267" y="469" type="curve" smooth="yes"/>
      <point x="174" y="469"/>
      <point x="134" y="412"/>
    </contour>
  </outline>
</glyph>
<glyph name="uni018A" format="1">
  <advance width="810"/>
  <unicode hex="018A"/>
  <outline>
    <contour>
      <point x="761" y="351" type="curve" smooth="yes"/>
      <point x="763" y="139"/>
      <point x="625" y="-3"/>
      <point x="426" y="0" type="curve" smooth="yes"/>
      <point x="169" y="0" type="line"/>
      <point x="169" y="616" type="line"/>
      <point x="155" y="616" type="line" smooth="yes"/>
      <point x="104" y="616"/>
      <point x="85" y="595"/>
      <point x="85" y="548" type="curve" smooth="yes"/>
      <point x="85" y="532"/>
      <point x="88" y="515"/>
      <point x="94" y="497" type="curve"/>
      <point x="18" y="488" type="line"/>
      <point x="13" y="512"/>
      <point x="10" y="534"/>
      <point x="10" y="554" type="curve" smooth="yes"/>
      <point x="10" y="639"/>
      <point x="69" y="688"/>
      <point x="169" y="688" type="curve" smooth="yes"/>
      <point x="396" y="688" type="line" smooth="yes"/>
      <point x="629" y="688"/>
      <point x="761" y="567"/>
    </contour>
    <contour>
      <point x="667" y="351" type="curve" smooth="yes"/>
      <point x="667" y="522"/>
      <point x="571" y="613"/>
      <point x="395" y="613" type="curve" smooth="yes"/>
      <point x="262" y="613" type="line"/>
      <point x="262" y="75" type="line"/>
      <point x="416" y="75" type="line" smooth="yes"/>
      <point x="568" y="75"/>
      <point x="667" y="180"/>
    </contour>
  </outline>
</glyph>
<glyph name="uni018B" format="1">
  <advance width="656"/>
  <unicode hex="018B"/>
  <outline>
    <contour>
      <point x="40" y="202" type="curve" smooth="yes"/>
      <point x="40" y="325"/>
      <point x="129" y="397"/>
      <point x="282" y="397" type="curve" smooth="yes"/>
      <point x="481" y="397" type="line"/>
      <point x="481" y="612" type="line"/>
      <point x="110" y="612" type="line"/>
      <point x="110" y="688" type="line"/>
      <point x="574" y="688" type="line"/>
      <point x="574" y="0" type="line"/>
      <point x="276" y="0" type="line" smooth="yes"/>
      <point x="129" y="0"/>
      <point x="40" y="79"/>
    </contour>
    <contour>
      <point x="133" y="201" type="curve" smooth="yes"/>
      <point x="133" y="120"/>
      <point x="182" y="74"/>
      <point x="290" y="74" type="curve" smooth="yes"/>
      <point x="481" y="74" type="line"/>
      <point x="481" y="323" type="line"/>
      <point x="293" y="323" type="line" smooth="yes"/>
      <point x="186" y="323"/>
      <point x="133" y="280"/>
    </contour>
  </outline>
</glyph>
<glyph name="uni0190" format="1">
  <advance width="604"/>
  <unicode hex="0190"/>
  <outline>
    <contour>
      <point x="297" y="-10" type="curve" smooth="yes"/>
      <point x="145" y="-10"/>
      <point x="43" y="74"/>
      <point x="43" y="191" type="curve" smooth="yes"/>
      <point x="43" y="283"/>
      <point x="97" y="344"/>
      <point x="200" y="359" type="curve"/>
      <point x="109" y="377"/>
      <point x="63" y="428"/>
      <point x="63" y="513" type="curve" smooth="yes"/>
      <point x="63" y="568"/>
      <point x="84" y="613"/>
      <point x="126" y="647" type="curve" smooth="yes"/>
      <point x="169" y="681"/>
      <point x="224" y="698"/>
      <point x="292" y="698" type="curve" smooth="yes"/>
      <point x="423" y="698"/>
      <point x="508" y="644"/>
      <point x="553" y="531" type="curve"/>
      <point x="466" y="501" type="line"/>
      <point x="434" y="585"/>
      <point x="377" y="622"/>
      <point x="296" y="622" type="curve" smooth="yes"/>
      <point x="211" y="622"/>
      <point x="157" y="581"/>
      <point x="157" y="516" type="curve" smooth="yes"/>
      <point x="157" y="433"/>
      <point x="215" y="392"/>
      <point x="330" y="392" type="curve" smooth="yes"/>
      <point x="364" y="392" type="line"/>
      <point x="364" y="319" type="line"/>
      <point x="330" y="319" type="line" smooth="yes"/>
      <point x="198" y="319"/>
      <point x="137" y="284"/>
      <point x="137" y="197" type="curve" smooth="yes"/>
      <point x="137" y="113"/>
      <point x="200" y="65"/>
      <point x="300" y="65" type="curve" smooth="yes"/>
      <point x="386" y="65"/>
      <point x="448" y="109"/>
      <point x="487" y="198" type="curve"/>
      <point x="567" y="160" type="line"/>
      <point x="512" y="39"/>
      <point x="429" y="-10"/>
    </contour>
  </outline>
</glyph>
<glyph name="uni0193" format="1">
  <advance width="778"/>
  <unicode hex="0193"/>
  <outline>
    <contour>
      <point x="688" y="536" type="line"/>
      <point x="599" y="510" type="line"/>
      <point x="560" y="587"/>
      <point x="493" y="622"/>
      <point x="390" y="622" type="curve" smooth="yes"/>
      <point x="231" y="622"/>
      <point x="145" y="522"/>
      <point x="145" y="347" type="curve" smooth="yes"/>
      <point x="145" y="174"/>
      <point x="240" y="66"/>
      <point x="397" y="66" type="curve" smooth="yes"/>
      <point x="486" y="66"/>
      <point x="569" y="95"/>
      <point x="617" y="142" type="curve"/>
      <point x="617" y="266" type="line"/>
      <point x="412" y="266" type="line"/>
      <point x="412" y="344" type="line"/>
      <point x="703" y="344" type="line"/>
      <point x="703" y="107" type="line"/>
      <point x="630" y="32"/>
      <point x="521" y="-10"/>
      <point x="397" y="-10" type="curve" smooth="yes"/>
      <point x="181" y="-10"/>
      <point x="50" y="127"/>
      <point x="50" y="347" type="curve" smooth="yes"/>
      <point x="50" y="571"/>
      <point x="176" y="698"/>
      <point x="393" y="698" type="curve" smooth="yes"/>
      <point x="487" y="698"/>
      <point x="560" y="678"/>
      <point x="611" y="638" type="curve"/>
      <point x="611" y="653" type="line" smooth="yes"/>
      <point x="611" y="742"/>
      <point x="658" y="797"/>
      <point x="737" y="797" type="curve" smooth="yes"/>
      <point x="755" y="797"/>
      <point x="775" y="795"/>
      <point x="796" y="790" type="curve"/>
      <point x="796" y="713" type="line"/>
      <point x="778" y="719"/>
      <point x="764" y="722"/>
      <point x="753" y="722" type="curve" smooth="yes"/>
      <point x="706" y="722"/>
      <point x="688" y="701"/>
      <point x="688" y="650" type="curve" smooth="yes"/>
    </contour>
  </outline>
</glyph>
<glyph name="uni0195" format="1">
  <advance width="881"/>
  <unicode hex="0195"/>
  <outline>
    <contour>
      <point x="613" y="-10" type="curve" smooth="yes"/>
      <point x="484" y="-10"/>
      <point x="413" y="59"/>
      <point x="413" y="176" type="curve" smooth="yes"/>
      <point x="413" y="335" type="line" smooth="yes"/>
      <point x="413" y="435"/>
      <point x="377" y="470"/>
      <point x="294" y="470" type="curve" smooth="yes"/>
      <point x="211" y="470"/>
      <point x="157" y="408"/>
      <point x="157" y="312" type="curve" smooth="yes"/>
      <point x="157" y="0" type="line"/>
      <point x="69" y="0" type="line"/>
      <point x="69" y="725" type="line"/>
      <point x="157" y="725" type="line"/>
      <point x="157" y="536" type="line" smooth="yes"/>
      <point x="157" y="516"/>
      <point x="156" y="495"/>
      <point x="155" y="474" type="curve" smooth="yes"/>
      <point x="154" y="453"/>
      <point x="154" y="441"/>
      <point x="153" y="438" type="curve" smooth="yes"/>
      <point x="155" y="438" type="line"/>
      <point x="187" y="505"/>
      <point x="243" y="538"/>
      <point x="324" y="538" type="curve" smooth="yes"/>
      <point x="443" y="538"/>
      <point x="501" y="479"/>
      <point x="501" y="352" type="curve" smooth="yes"/>
      <point x="501" y="192" type="line" smooth="yes"/>
      <point x="501" y="91"/>
      <point x="535" y="57"/>
      <point x="614" y="57" type="curve" smooth="yes"/>
      <point x="693" y="57"/>
      <point x="726" y="91"/>
      <point x="726" y="192" type="curve" smooth="yes"/>
      <point x="726" y="528" type="line"/>
      <point x="814" y="528" type="line"/>
      <point x="814" y="178" type="line" smooth="yes"/>
      <point x="814" y="61"/>
      <point x="742" y="-10"/>
    </contour>
  </outline>
</glyph>
<glyph name="uni0197" format="1">
  <advance width="278"/>
  <unicode hex="0197"/>
  <outline>
    <contour>
      <point x="184" y="0" type="line"/>
      <point x="96" y="0" type="line"/>
      <point x="96" y="328" type="line"/>
      <point x="15" y="328" type="line"/>
      <point x="15" y="397" type="line"/>
      <point x="96" y="397" type="line"/>
      <point x="96" y="725" type="line"/>
      <point x="184" y="725" type="line"/>
      <point x="184" y="397" type="line"/>
      <point x="266" y="397" type="line"/>
      <point x="266" y="328" type="line"/>
      <point x="184" y="328" type="line"/>
    </contour>
  </outline>
</glyph>
<glyph name="uni0198" format="1">
  <advance width="667"/>
  <unicode hex="0198"/>
  <outline>
    <contour>
      <point x="656" y="0" type="line"/>
      <point x="540" y="0" type="line"/>
      <point x="265" y="332" type="line"/>
      <point x="175" y="264" type="line"/>
      <point x="175" y="0" type="line"/>
      <point x="82" y="0" type="line"/>
      <point x="82" y="551" type="line" smooth="yes"/>
      <point x="82" y="644"/>
      <point x="133" y="696"/>
      <point x="225" y="696" type="curve" smooth="yes"/>
      <point x="246" y="696"/>
      <point x="268" y="693"/>
      <point x="289" y="688" type="curve"/>
      <point x="289" y="608" type="line"/>
      <point x="273" y="614"/>
      <point x="256" y="617"/>
      <point x="237" y="617" type="curve" smooth="yes"/>
      <point x="196" y="617"/>
      <point x="175" y="593"/>
      <point x="175" y="544" type="curve" smooth="yes"/>
      <point x="175" y="343" type="line"/>
      <point x="507" y="688" type="line"/>
      <point x="617" y="688" type="line"/>
      <point x="324" y="389" type="line"/>
    </contour>
  </outline>
</glyph>
<glyph name="uni0199" format="1">
  <advance width="500"/>
  <unicode hex="0199"/>
  <outline>
    <contour>
      <point x="155" y="272" type="line"/>
      <point x="387" y="528" type="line"/>
      <point x="490" y="528" type="line"/>
      <point x="276" y="301" type="line"/>
      <point x="501" y="0" type="line"/>
      <point x="398" y="0" type="line"/>
      <point x="220" y="241" type="line"/>
      <point x="155" y="188" type="line"/>
      <point x="155" y="0" type="line"/>
      <point x="67" y="0" type="line"/>
      <point x="67" y="587" type="line" smooth="yes"/>
      <point x="67" y="680"/>
      <point x="119" y="731"/>
      <point x="210" y="731" type="curve" smooth="yes"/>
      <point x="231" y="731"/>
      <point x="253" y="729"/>
      <point x="274" y="724" type="curve"/>
      <point x="274" y="644" type="line"/>
      <point x="258" y="649"/>
      <point x="239" y="652"/>
      <point x="218" y="652" type="curve" smooth="yes"/>
      <point x="176" y="652"/>
      <point x="155" y="628"/>
      <point x="155" y="580" type="curve" smooth="yes"/>
    </contour>
  </outline>
</glyph>
<glyph name="uni019A" format="1">
  <advance width="222"/>
  <unicode hex="019A"/>
  <outline>
    <contour>
      <point x="152" y="0" type="line"/>
      <point x="64" y="0" type="line"/>
      <point x="64" y="328" type="line"/>
      <point x="10" y="328" type="line"/>
      <point x="10" y="397" type="line"/>
      <point x="64" y="397" type="line"/>
      <point x="64" y="725" type="line"/>
      <point x="152" y="725" type="line"/>
      <point x="152" y="397" type="line"/>
      <point x="206" y="397" type="line"/>
      <point x="206" y="328" type="line"/>
      <point x="152" y="328" type="line"/>
    </contour>
  </outline>
</glyph>
<glyph name="uni019B" format="1">
  <advance width="500"/>
  <unicode hex="019B"/>
  <outline>
    <contour>
      <point x="326" y="681" type="line"/>
      <point x="349" y="623" type="line"/>
      <point x="271" y="594" type="line"/>
      <point x="491" y="0" type="line"/>
      <point x="398" y="0" type="line"/>
      <point x="297" y="282" type="line" smooth="yes"/>
      <point x="284" y="318"/>
      <point x="273" y="353"/>
      <point x="266" y="386" type="curve"/>
      <point x="261" y="371"/>
      <point x="254" y="355"/>
      <point x="247" y="338" type="curve" smooth="yes"/>
      <point x="240" y="321"/>
      <point x="191" y="208"/>
      <point x="98" y="0" type="curve"/>
      <point x="7" y="0" type="line"/>
      <point x="226" y="474" type="line"/>
      <point x="193" y="566" type="line"/>
      <point x="103" y="533" type="line"/>
      <point x="81" y="591" type="line"/>
      <point x="172" y="625" type="line"/>
      <point x="137" y="725" type="line"/>
      <point x="223" y="725" type="line"/>
      <point x="250" y="653" type="line"/>
    </contour>
  </outline>
</glyph>
<glyph name="uni019D" format="1">
  <advance width="722"/>
  <unicode hex="019D"/>
  <outline>
    <contour>
      <point x="82" y="-53" type="curve" smooth="yes"/>
      <point x="82" y="688" type="line"/>
      <point x="190" y="688" type="line"/>
      <point x="563" y="98" type="line"/>
      <point x="559" y="162"/>
      <point x="557" y="208"/>
      <point x="557" y="237" type="curve" smooth="yes"/>
      <point x="557" y="688" type="line"/>
      <point x="641" y="688" type="line"/>
      <point x="641" y="0" type="line"/>
      <point x="528" y="0" type="line"/>
      <point x="160" y="586" type="line"/>
      <point x="163" y="539" type="line"/>
      <point x="165" y="457" type="line"/>
      <point x="165" y="-63" type="line" smooth="yes"/>
      <point x="165" y="-158"/>
      <point x="120" y="-208"/>
      <point x="36" y="-208" type="curve" smooth="yes"/>
      <point x="12" y="-208"/>
      <point x="-8" y="-206"/>
      <point x="-23" y="-202" type="curve"/>
      <point x="-23" y="-123" type="line"/>
      <point x="-9" y="-128"/>
      <point x="7" y="-130"/>
      <point x="25" y="-130" type="curve" smooth="yes"/>
      <point x="63" y="-130"/>
      <point x="82" y="-104"/>
    </contour>
  </outline>
</glyph>
<glyph name="uni01A2" format="1">
  <advance width="868"/>
  <unicode hex="01A2"/>
  <outline>
    <contour>
      <point x="589" y="597" type="line"/>
      <point x="589" y="42" type="line"/>
      <point x="518" y="7"/>
      <point x="461" y="-10"/>
      <point x="384" y="-10" type="curve" smooth="yes"/>
      <point x="175" y="-10"/>
      <point x="47" y="129"/>
      <point x="47" y="347" type="curve" smooth="yes"/>
      <point x="47" y="565"/>
      <point x="176" y="698"/>
      <point x="385" y="698" type="curve" smooth="yes"/>
      <point x="438" y="698"/>
      <point x="498" y="687"/>
      <point x="564" y="664" type="curve"/>
      <point x="766" y="695" type="line"/>
      <point x="787" y="695" type="line"/>
      <point x="787" y="-207" type="line"/>
      <point x="699" y="-207" type="line"/>
      <point x="699" y="596" type="line"/>
    </contour>
    <contour>
      <point x="501" y="88" type="curve"/>
      <point x="501" y="600" type="line"/>
      <point x="468" y="615"/>
      <point x="430" y="622"/>
      <point x="385" y="622" type="curve" smooth="yes"/>
      <point x="232" y="622"/>
      <point x="142" y="519"/>
      <point x="142" y="347" type="curve" smooth="yes"/>
      <point x="142" y="261"/>
      <point x="163" y="193"/>
      <point x="206" y="142" type="curve" smooth="yes"/>
      <point x="249" y="91"/>
      <point x="309" y="66"/>
      <point x="384" y="66" type="curve" smooth="yes"/>
      <point x="429" y="66"/>
      <point x="468" y="73"/>
    </contour>
  </outline>
</glyph>
<glyph name="uni01A3" format="1">
  <advance width="667"/>
  <unicode hex="01A3"/>
  <outline>
    <contour>
      <point x="596" y="-208" type="line"/>
      <point x="510" y="-208" type="line"/>
      <point x="510" y="448" type="line"/>
      <point x="418" y="448" type="line"/>
      <point x="418" y="31" type="line"/>
      <point x="381" y="6"/>
      <point x="328" y="-10"/>
      <point x="276" y="-10" type="curve" smooth="yes"/>
      <point x="121" y="-10"/>
      <point x="42" y="86"/>
      <point x="42" y="265" type="curve" smooth="yes"/>
      <point x="42" y="447"/>
      <point x="121" y="538"/>
      <point x="279" y="538" type="curve" smooth="yes"/>
      <point x="332" y="538"/>
      <point x="384" y="522"/>
      <point x="417" y="502" type="curve"/>
      <point x="575" y="534" type="line"/>
      <point x="596" y="534" type="line"/>
    </contour>
    <contour>
      <point x="280" y="473" type="curve" smooth="yes"/>
      <point x="177" y="473"/>
      <point x="134" y="408"/>
      <point x="134" y="265" type="curve" smooth="yes"/>
      <point x="134" y="125"/>
      <point x="178" y="55"/>
      <point x="275" y="55" type="curve" smooth="yes"/>
      <point x="296" y="55"/>
      <point x="315" y="59"/>
      <point x="333" y="66" type="curve"/>
      <point x="333" y="463" type="line"/>
      <point x="316" y="470"/>
      <point x="299" y="473"/>
    </contour>
  </outline>
</glyph>
<glyph name="uni01A5" format="1">
  <advance width="556"/>
  <unicode hex="01A5"/>
  <outline>
    <contour>
      <point x="514" y="267" type="curve" smooth="yes"/>
      <point x="514" y="82"/>
      <point x="449" y="-10"/>
      <point x="320" y="-10" type="curve" smooth="yes"/>
      <point x="239" y="-10"/>
      <point x="184" y="21"/>
      <point x="156" y="82" type="curve"/>
      <point x="153" y="82" type="line" smooth="yes"/>
      <point x="154" y="79"/>
      <point x="155" y="52"/>
      <point x="155" y="-1" type="curve" smooth="yes"/>
      <point x="155" y="-208" type="line"/>
      <point x="67" y="-208" type="line"/>
      <point x="67" y="587" type="line" smooth="yes"/>
      <point x="67" y="682"/>
      <point x="116" y="731"/>
      <point x="208" y="731" type="curve" smooth="yes"/>
      <point x="226" y="731"/>
      <point x="241" y="730"/>
      <point x="254" y="728" type="curve" smooth="yes"/>
      <point x="272" y="724" type="line"/>
      <point x="272" y="643" type="line"/>
      <point x="254" y="649"/>
      <point x="235" y="652"/>
      <point x="215" y="652" type="curve" smooth="yes"/>
      <point x="174" y="652"/>
      <point x="154" y="628"/>
      <point x="154" y="580" type="curve" smooth="yes"/>
      <point x="154" y="443" type="line"/>
      <point x="156" y="443" type="line"/>
      <point x="188" y="508"/>
      <point x="236" y="538"/>
      <point x="320" y="538" type="curve" smooth="yes"/>
      <point x="449" y="538"/>
      <point x="514" y="454"/>
    </contour>
    <contour>
      <point x="422" y="265" type="curve" smooth="yes"/>
      <point x="422" y="412"/>
      <point x="384" y="470"/>
      <point x="297" y="470" type="curve" smooth="yes"/>
      <point x="197" y="470"/>
      <point x="155" y="407"/>
      <point x="155" y="258" type="curve" smooth="yes"/>
      <point x="155" y="119"/>
      <point x="197" y="55"/>
      <point x="296" y="55" type="curve" smooth="yes"/>
      <point x="384" y="55"/>
      <point x="422" y="113"/>
    </contour>
  </outline>
</glyph>
<glyph name="uni01A8" format="1">
  <advance width="500"/>
  <unicode hex="01A8"/>
  <outline>
    <contour>
      <point x="39" y="146" type="curve" smooth="yes"/>
      <point x="39" y="175"/>
      <point x="45" y="200"/>
      <point x="58" y="220" type="curve" smooth="yes"/>
      <point x="85" y="260"/>
      <point x="124" y="284"/>
      <point x="224" y="307" type="curve" smooth="yes"/>
      <point x="273" y="318"/>
      <point x="305" y="327"/>
      <point x="320" y="334" type="curve" smooth="yes"/>
      <point x="351" y="349"/>
      <point x="367" y="368"/>
      <point x="367" y="397" type="curve" smooth="yes"/>
      <point x="367" y="446"/>
      <point x="332" y="470"/>
      <point x="263" y="470" type="curve" smooth="yes"/>
      <point x="190" y="470"/>
      <point x="148" y="444"/>
      <point x="135" y="381" type="curve"/>
      <point x="56" y="391" type="line"/>
      <point x="76" y="490"/>
      <point x="144" y="537"/>
      <point x="263" y="537" type="curve" smooth="yes"/>
      <point x="383" y="537"/>
      <point x="453" y="484"/>
      <point x="453" y="389" type="curve" smooth="yes"/>
      <point x="453" y="362"/>
      <point x="447" y="340"/>
      <point x="434" y="321" type="curve" smooth="yes"/>
      <point x="410" y="284"/>
      <point x="372" y="260"/>
      <point x="277" y="239" type="curve" smooth="yes"/>
      <point x="224" y="226"/>
      <point x="190" y="216"/>
      <point x="173" y="208" type="curve" smooth="yes"/>
      <point x="141" y="193"/>
      <point x="124" y="172"/>
      <point x="124" y="139" type="curve" smooth="yes"/>
      <point x="124" y="84"/>
      <point x="164" y="57"/>
      <point x="243" y="57" type="curve" smooth="yes"/>
      <point x="324" y="57"/>
      <point x="374" y="91"/>
      <point x="393" y="159" type="curve"/>
      <point x="470" y="144" type="line"/>
      <point x="445" y="41"/>
      <point x="370" y="-10"/>
      <point x="243" y="-10" type="curve" smooth="yes"/>
      <point x="116" y="-10"/>
      <point x="39" y="47"/>
    </contour>
  </outline>
</glyph>
<glyph name="uni01AB" format="1">
  <advance width="278"/>
  <unicode hex="01AB"/>
  <outline>
    <contour>
      <point x="271" y="69" type="curve"/>
      <point x="271" y="-70" type="line" smooth="yes"/>
      <point x="271" y="-162"/>
      <point x="230" y="-208"/>
      <point x="147" y="-208" type="curve" smooth="yes"/>
      <point x="125" y="-208"/>
      <point x="103" y="-205"/>
      <point x="81" y="-199" type="curve"/>
      <point x="81" y="-121" type="line"/>
      <point x="99" y="-127"/>
      <point x="116" y="-130"/>
      <point x="133" y="-130" type="curve" smooth="yes"/>
      <point x="172" y="-130"/>
      <point x="188" y="-110"/>
      <point x="188" y="-63" type="curve" smooth="yes"/>
      <point x="188" y="-8" type="line"/>
      <point x="182" y="-8" type="line" smooth="yes"/>
      <point x="111" y="-8"/>
      <point x="76" y="32"/>
      <point x="76" y="112" type="curve" smooth="yes"/>
      <point x="76" y="464" type="line"/>
      <point x="15" y="464" type="line"/>
      <point x="15" y="528" type="line"/>
      <point x="80" y="528" type="line"/>
      <point x="105" y="646" type="line"/>
      <point x="164" y="646" type="line"/>
      <point x="164" y="528" type="line"/>
      <point x="262" y="528" type="line"/>
      <point x="262" y="464" type="line"/>
      <point x="164" y="464" type="line"/>
      <point x="164" y="131" type="line" smooth="yes"/>
      <point x="164" y="80"/>
      <point x="179" y="62"/>
      <point x="220" y="62" type="curve" smooth="yes"/>
      <point x="231" y="62"/>
      <point x="248" y="64"/>
    </contour>
  </outline>
</glyph>
<glyph name="uni01AD" format="1">
  <advance width="278"/>
  <unicode hex="01AD"/>
  <outline>
    <contour>
      <point x="271" y="69" type="curve"/>
      <point x="271" y="4" type="line"/>
      <point x="242" y="-4"/>
      <point x="212" y="-8"/>
      <point x="182" y="-8" type="curve" smooth="yes"/>
      <point x="111" y="-8"/>
      <point x="76" y="32"/>
      <point x="76" y="112" type="curve" smooth="yes"/>
      <point x="76" y="464" type="line"/>
      <point x="15" y="464" type="line"/>
      <point x="15" y="528" type="line"/>
      <point x="80" y="528" type="line"/>
      <point x="80" y="582" type="line" smooth="yes"/>
      <point x="80" y="681"/>
      <point x="126" y="731"/>
      <point x="213" y="731" type="curve" smooth="yes"/>
      <point x="235" y="731"/>
      <point x="255" y="729"/>
      <point x="272" y="725" type="curve"/>
      <point x="272" y="643" type="line"/>
      <point x="254" y="649"/>
      <point x="237" y="652"/>
      <point x="222" y="652" type="curve" smooth="yes"/>
      <point x="181" y="652"/>
      <point x="164" y="629"/>
      <point x="164" y="580" type="curve" smooth="yes"/>
      <point x="164" y="528" type="line"/>
      <point x="262" y="528" type="line"/>
      <point x="262" y="464" type="line"/>
      <point x="164" y="464" type="line"/>
      <point x="164" y="131" type="line" smooth="yes"/>
      <point x="164" y="80"/>
      <point x="179" y="62"/>
      <point x="220" y="62" type="curve" smooth="yes"/>
      <point x="231" y="62"/>
      <point x="248" y="64"/>
    </contour>
  </outline>
</glyph>
<glyph name="uni01AE" format="1">
  <advance width="611"/>
  <unicode hex="01AE"/>
  <outline>
    <contour>
      <point x="259" y="612" type="line"/>
      <point x="22" y="612" type="line"/>
      <point x="22" y="688" type="line"/>
      <point x="588" y="688" type="line"/>
      <point x="588" y="612" type="line"/>
      <point x="352" y="612" type="line"/>
      <point x="352" y="-53" type="line" smooth="yes"/>
      <point x="352" y="-106"/>
      <point x="367" y="-130"/>
      <point x="400" y="-130" type="curve" smooth="yes"/>
      <point x="420" y="-130"/>
      <point x="438" y="-127"/>
      <point x="454" y="-122" type="curve"/>
      <point x="454" y="-199" type="line"/>
      <point x="431" y="-205"/>
      <point x="410" y="-208"/>
      <point x="390" y="-208" type="curve" smooth="yes"/>
      <point x="306" y="-208"/>
      <point x="259" y="-157"/>
      <point x="259" y="-69" type="curve" smooth="yes"/>
    </contour>
  </outline>
</glyph>
<glyph name="uni01B1" format="1">
  <advance width="748"/>
  <unicode hex="01B1"/>
  <outline>
    <contour>
      <point x="374" y="-10" type="curve" smooth="yes"/>
      <point x="275" y="-10"/>
      <point x="198" y="17"/>
      <point x="141" y="71" type="curve" smooth="yes"/>
      <point x="84" y="126"/>
      <point x="56" y="201"/>
      <point x="56" y="297" type="curve" smooth="yes"/>
      <point x="56" y="428"/>
      <point x="127" y="542"/>
      <point x="263" y="617" type="curve"/>
      <point x="213" y="614"/>
      <point x="179" y="612"/>
      <point x="162" y="612" type="curve" smooth="yes"/>
      <point x="42" y="612" type="line"/>
      <point x="42" y="688" type="line"/>
      <point x="330" y="688" type="line"/>
      <point x="330" y="579" type="line"/>
      <point x="214" y="516"/>
      <point x="151" y="423"/>
      <point x="151" y="303" type="curve" smooth="yes"/>
      <point x="151" y="152"/>
      <point x="233" y="66"/>
      <point x="373" y="66" type="curve" smooth="yes"/>
      <point x="514" y="66"/>
      <point x="596" y="152"/>
      <point x="596" y="303" type="curve" smooth="yes"/>
      <point x="596" y="423"/>
      <point x="534" y="516"/>
      <point x="417" y="579" type="curve"/>
      <point x="417" y="688" type="line"/>
      <point x="705" y="688" type="line"/>
      <point x="705" y="612" type="line"/>
      <point x="585" y="612" type="line" smooth="yes"/>
      <point x="568" y="612"/>
      <point x="534" y="614"/>
      <point x="484" y="617" type="curve"/>
      <point x="619" y="544"/>
      <point x="691" y="429"/>
      <point x="691" y="297" type="curve" smooth="yes"/>
      <point x="691" y="201"/>
      <point x="663" y="126"/>
      <point x="606" y="71" type="curve" smooth="yes"/>
      <point x="549" y="17"/>
      <point x="472" y="-10"/>
    </contour>
  </outline>
</glyph>
<glyph name="uni01B4" format="1">
  <advance width="500"/>
  <unicode hex="01B4"/>
  <outline>
    <contour>
      <point x="93" y="-208" type="curve" smooth="yes"/>
      <point x="69" y="-208"/>
      <point x="49" y="-206"/>
      <point x="33" y="-202" type="curve"/>
      <point x="33" y="-136" type="line"/>
      <point x="45" y="-138"/>
      <point x="59" y="-139"/>
      <point x="74" y="-139" type="curve" smooth="yes"/>
      <point x="129" y="-139"/>
      <point x="172" y="-99"/>
      <point x="204" y="-19" type="curve" smooth="yes"/>
      <point x="212" y="2" type="line"/>
      <point x="2" y="528" type="line"/>
      <point x="96" y="528" type="line"/>
      <point x="208" y="236" type="line"/>
      <point x="213" y="219" type="line" smooth="yes"/>
      <point x="216" y="213"/>
      <point x="223" y="192"/>
      <point x="235" y="156" type="curve" smooth="yes"/>
      <point x="248" y="120"/>
      <point x="254" y="100"/>
      <point x="255" y="96" type="curve" smooth="yes"/>
      <point x="290" y="192" type="line"/>
      <point x="435" y="610" type="line" smooth="yes"/>
      <point x="467" y="696"/>
      <point x="500" y="729"/>
      <point x="576" y="729" type="curve" smooth="yes"/>
      <point x="619" y="729"/>
      <point x="657" y="714"/>
      <point x="692" y="683" type="curve"/>
      <point x="652" y="621" type="line"/>
      <point x="630" y="641"/>
      <point x="607" y="651"/>
      <point x="584" y="651" type="curve" smooth="yes"/>
      <point x="553" y="651"/>
      <point x="529" y="629"/>
      <point x="512" y="584" type="curve" smooth="yes"/>
      <point x="295" y="0" type="line" smooth="yes"/>
      <point x="265" y="-78"/>
      <point x="235" y="-132"/>
      <point x="204" y="-162" type="curve" smooth="yes"/>
      <point x="173" y="-193"/>
      <point x="136" y="-208"/>
    </contour>
  </outline>
</glyph>
<glyph name="uni01B6" format="1">
  <advance width="500"/>
  <unicode hex="01B6"/>
  <outline>
    <contour>
      <point x="23" y="236" type="line"/>
      <point x="23" y="301" type="line"/>
      <point x="216" y="301" type="line"/>
      <point x="347" y="460" type="line"/>
      <point x="43" y="460" type="line"/>
      <point x="43" y="528" type="line"/>
      <point x="446" y="528" type="line"/>
      <point x="446" y="461" type="line"/>
      <point x="314" y="301" type="line"/>
      <point x="464" y="301" type="line"/>
      <point x="464" y="236" type="line"/>
      <point x="261" y="236" type="line"/>
      <point x="123" y="68" type="line"/>
      <point x="464" y="68" type="line"/>
      <point x="464" y="0" type="line"/>
      <point x="24" y="0" type="line"/>
      <point x="24" y="67" type="line"/>
      <point x="163" y="236" type="line"/>
    </contour>
  </outline>
</glyph>
<glyph name="uni01B7" format="1">
  <advance width="611"/>
  <unicode hex="01B7"/>
  <outline>
    <contour>
      <point x="204" y="302" type="line"/>
      <point x="204" y="371" type="line"/>
      <point x="448" y="612" type="line"/>
      <point x="55" y="612" type="line"/>
      <point x="55" y="688" type="line"/>
      <point x="552" y="688" type="line"/>
      <point x="552" y="609" type="line"/>
      <point x="306" y="370" type="line"/>
      <point x="482" y="358"/>
      <point x="577" y="259"/>
      <point x="577" y="83" type="curve" smooth="yes"/>
      <point x="580" y="-85"/>
      <point x="459" y="-212"/>
      <point x="299" y="-208" type="curve" smooth="yes"/>
      <point x="164" y="-208"/>
      <point x="77" y="-157"/>
      <point x="22" y="-38" type="curve"/>
      <point x="101" y="-3" type="line"/>
      <point x="140" y="-91"/>
      <point x="205" y="-135"/>
      <point x="296" y="-135" type="curve" smooth="yes"/>
      <point x="413" y="-135"/>
      <point x="485" y="-56"/>
      <point x="485" y="83" type="curve" smooth="yes"/>
      <point x="485" y="223"/>
      <point x="398" y="302"/>
      <point x="239" y="302" type="curve" smooth="yes"/>
    </contour>
  </outline>
</glyph>
<glyph name="uni01B8" format="1">
  <advance width="611"/>
  <unicode hex="01B8"/>
  <outline>
    <contour>
      <point x="407" y="371" type="line"/>
      <point x="407" y="302" type="line"/>
      <point x="372" y="302" type="line" smooth="yes"/>
      <point x="213" y="302"/>
      <point x="126" y="224"/>
      <point x="126" y="83" type="curve" smooth="yes"/>
      <point x="126" y="-52"/>
      <point x="204" y="-135"/>
      <point x="315" y="-135" type="curve" smooth="yes"/>
      <point x="406" y="-135"/>
      <point x="471" y="-91"/>
      <point x="510" y="-3" type="curve"/>
      <point x="589" y="-38" type="line"/>
      <point x="534" y="-157"/>
      <point x="447" y="-208"/>
      <point x="312" y="-208" type="curve" smooth="yes"/>
      <point x="228" y="-208"/>
      <point x="161" y="-182"/>
      <point x="110" y="-129" type="curve" smooth="yes"/>
      <point x="59" y="-77"/>
      <point x="34" y="-6"/>
      <point x="34" y="83" type="curve" smooth="yes"/>
      <point x="34" y="247"/>
      <point x="134" y="351"/>
      <point x="305" y="370" type="curve"/>
      <point x="59" y="609" type="line"/>
      <point x="59" y="688" type="line"/>
      <point x="556" y="688" type="line"/>
      <point x="556" y="612" type="line"/>
      <point x="163" y="612" type="line"/>
    </contour>
  </outline>
</glyph>
<glyph name="uni01BB" format="1">
  <advance width="556"/>
  <unicode hex="01BB"/>
  <outline>
    <contour>
      <point x="44" y="300" type="line"/>
      <point x="44" y="366" type="line"/>
      <point x="333" y="366" type="line"/>
      <point x="381" y="411"/>
      <point x="405" y="455"/>
      <point x="405" y="507" type="curve" smooth="yes"/>
      <point x="405" y="582"/>
      <point x="358" y="626"/>
      <point x="279" y="626" type="curve" smooth="yes"/>
      <point x="204" y="626"/>
      <point x="152" y="583"/>
      <point x="144" y="510" type="curve"/>
      <point x="54" y="518" type="line"/>
      <point x="67" y="629"/>
      <point x="154" y="698"/>
      <point x="279" y="698" type="curve" smooth="yes"/>
      <point x="418" y="698"/>
      <point x="495" y="630"/>
      <point x="495" y="510" type="curve" smooth="yes"/>
      <point x="495" y="462"/>
      <point x="475" y="414"/>
      <point x="435" y="366" type="curve"/>
      <point x="504" y="366" type="line"/>
      <point x="504" y="300" type="line"/>
      <point x="369" y="300" type="line"/>
      <point x="284" y="223"/>
      <point x="182" y="156"/>
      <point x="147" y="75" type="curve"/>
      <point x="506" y="75" type="line"/>
      <point x="506" y="0" type="line"/>
      <point x="50" y="0" type="line"/>
      <point x="50" y="62" type="line"/>
      <point x="62" y="90"/>
      <point x="77" y="116"/>
      <point x="94" y="141" type="curve" smooth="yes"/>
      <point x="112" y="166"/>
      <point x="132" y="189"/>
      <point x="153" y="211" type="curve" smooth="yes"/>
      <point x="175" y="233"/>
      <point x="209" y="263"/>
      <point x="255" y="300" type="curve"/>
    </contour>
  </outline>
</glyph>
<glyph name="uni01BC" format="1">
  <advance width="556"/>
  <unicode hex="01BC"/>
  <outline>
    <contour>
      <point x="519" y="234" type="curve" smooth="yes"/>
      <point x="519" y="81"/>
      <point x="427" y="-10"/>
      <point x="274" y="-10" type="curve" smooth="yes"/>
      <point x="150" y="-10"/>
      <point x="66" y="57"/>
      <point x="43" y="168" type="curve"/>
      <point x="131" y="179" type="line"/>
      <point x="154" y="96"/>
      <point x="203" y="60"/>
      <point x="276" y="60" type="curve" smooth="yes"/>
      <point x="372" y="60"/>
      <point x="427" y="120"/>
      <point x="427" y="232" type="curve" smooth="yes"/>
      <point x="427" y="336"/>
      <point x="370" y="388"/>
      <point x="263" y="388" type="curve" smooth="yes"/>
      <point x="151" y="388" type="line"/>
      <point x="151" y="612" type="line"/>
      <point x="67" y="612" type="line"/>
      <point x="67" y="688" type="line"/>
      <point x="479" y="688" type="line"/>
      <point x="479" y="612" type="line"/>
      <point x="241" y="612" type="line"/>
      <point x="241" y="464" type="line"/>
      <point x="279" y="464" type="line" smooth="yes"/>
      <point x="430" y="464"/>
      <point x="519" y="377"/>
    </contour>
  </outline>
</glyph>
<glyph name="uni01BE" format="1">
  <advance width="487"/>
  <unicode hex="01BE"/>
  <outline>
    <contour>
      <point x="260" y="464" type="line"/>
      <point x="169" y="464" type="line"/>
      <point x="169" y="412" type="line" smooth="yes"/>
      <point x="170" y="332"/>
      <point x="189" y="331"/>
      <point x="263" y="307" type="curve" smooth="yes"/>
      <point x="306" y="296"/>
      <point x="335" y="287"/>
      <point x="351" y="280" type="curve" smooth="yes"/>
      <point x="368" y="273"/>
      <point x="382" y="266"/>
      <point x="394" y="258" type="curve" smooth="yes"/>
      <point x="430" y="234"/>
      <point x="449" y="198"/>
      <point x="449" y="146" type="curve" smooth="yes"/>
      <point x="449" y="47"/>
      <point x="386" y="-10"/>
      <point x="250" y="-10" type="curve" smooth="yes"/>
      <point x="118" y="-10"/>
      <point x="49" y="32"/>
      <point x="28" y="124" type="curve"/>
      <point x="105" y="139" type="line"/>
      <point x="121" y="83"/>
      <point x="166" y="57"/>
      <point x="250" y="57" type="curve" smooth="yes"/>
      <point x="333" y="57"/>
      <point x="364" y="82"/>
      <point x="364" y="139" type="curve" smooth="yes"/>
      <point x="364" y="205"/>
      <point x="316" y="212"/>
      <point x="225" y="239" type="curve" smooth="yes"/>
      <point x="117" y="267"/>
      <point x="82" y="314"/>
      <point x="82" y="403" type="curve" smooth="yes"/>
      <point x="82" y="464" type="line"/>
      <point x="18" y="464" type="line"/>
      <point x="18" y="528" type="line"/>
      <point x="82" y="528" type="line"/>
      <point x="82" y="698" type="line"/>
      <point x="169" y="736" type="line"/>
      <point x="169" y="528" type="line"/>
      <point x="260" y="528" type="line"/>
    </contour>
  </outline>
</glyph>
<glyph name="uni01C9" format="1">
  <advance width="451"/>
  <unicode hex="01C9"/>
  <outline>
    <contour>
      <point x="155" y="0" type="line"/>
      <point x="67" y="0" type="line"/>
      <point x="67" y="725" type="line"/>
      <point x="155" y="725" type="line"/>
    </contour>
    <contour>
      <point x="384" y="641" type="line"/>
      <point x="296" y="641" type="line"/>
      <point x="296" y="725" type="line"/>
      <point x="384" y="725" type="line"/>
    </contour>
    <contour>
      <point x="384" y="528" type="line"/>
      <point x="384" y="-65" type="line" smooth="yes"/>
      <point x="384" y="-165"/>
      <point x="344" y="-208"/>
      <point x="267" y="-208" type="curve" smooth="yes"/>
      <point x="242" y="-208"/>
      <point x="221" y="-206"/>
      <point x="205" y="-203" type="curve"/>
      <point x="205" y="-135" type="line"/>
      <point x="235" y="-138" type="line"/>
      <point x="280" y="-138"/>
      <point x="296" y="-120"/>
      <point x="296" y="-52" type="curve" smooth="yes"/>
      <point x="296" y="528" type="line"/>
    </contour>
  </outline>
</glyph>
<glyph name="uni01CA" format="1">
  <advance width="1222"/>
  <unicode hex="01CA"/>
  <outline>
    <contour>
      <point x="641" y="0" type="line"/>
      <point x="528" y="0" type="line"/>
      <point x="160" y="586" type="line"/>
      <point x="163" y="539" type="line"/>
      <point x="165" y="457" type="line"/>
      <point x="165" y="0" type="line"/>
      <point x="82" y="0" type="line"/>
      <point x="82" y="688" type="line"/>
      <point x="190" y="688" type="line"/>
      <point x="563" y="98" type="line"/>
      <point x="559" y="162"/>
      <point x="557" y="208"/>
      <point x="557" y="237" type="curve" smooth="yes"/>
      <point x="557" y="688" type="line"/>
      <point x="641" y="688" type="line"/>
    </contour>
    <contour>
      <point x="945" y="-10" type="curve" smooth="yes"/>
      <point x="829" y="-10"/>
      <point x="760" y="50"/>
      <point x="738" y="171" type="curve"/>
      <point x="829" y="186" type="line"/>
      <point x="841" y="110"/>
      <point x="883" y="66"/>
      <point x="946" y="66" type="curve" smooth="yes"/>
      <point x="1014" y="66"/>
      <point x="1055" y="114"/>
      <point x="1055" y="203" type="curve" smooth="yes"/>
      <point x="1055" y="612" type="line"/>
      <point x="923" y="612" type="line"/>
      <point x="923" y="688" type="line"/>
      <point x="1148" y="688" type="line"/>
      <point x="1148" y="205" type="line" smooth="yes"/>
      <point x="1148" y="72"/>
      <point x="1072" y="-10"/>
    </contour>
  </outline>
</glyph>
<glyph name="uni01D4" format="1">
  <advance width="556"/>
  <unicode hex="01D4"/>
  <outline>
    <contour>
      <point x="65" y="528" type="line"/>
      <point x="153" y="528" type="line"/>
      <point x="153" y="193" type="line" smooth="yes"/>
      <point x="153" y="90"/>
      <point x="179" y="58"/>
      <point x="262" y="58" type="curve" smooth="yes"/>
      <point x="347" y="58"/>
      <point x="399" y="119"/>
      <point x="399" y="222" type="curve" smooth="yes"/>
      <point x="399" y="528" type="line"/>
      <point x="487" y="528" type="line"/>
      <point x="487" y="113" type="line" smooth="yes"/>
      <point x="487" y="52"/>
      <point x="488" y="14"/>
      <point x="490" y="0" type="curve"/>
      <point x="407" y="0" type="line" smooth="yes"/>
      <point x="406" y="1"/>
      <point x="406" y="6"/>
      <point x="405" y="13" type="curve" smooth="yes"/>
      <point x="405" y="28"/>
      <point x="404" y="39"/>
      <point x="403" y="90" type="curve"/>
      <point x="401" y="90" type="line"/>
      <point x="361" y="18"/>
      <point x="312" y="-10"/>
      <point x="232" y="-10" type="curve" smooth="yes"/>
      <point x="117" y="-10"/>
      <point x="65" y="44"/>
      <point x="65" y="176" type="curve" smooth="yes"/>
    </contour>
    <contour>
      <point x="432" y="718" type="line"/>
      <point x="323" y="586" type="line"/>
      <point x="223" y="586" type="line"/>
      <point x="109" y="718" type="line"/>
      <point x="109" y="728" type="line"/>
      <point x="160" y="728" type="line"/>
      <point x="273" y="646" type="line"/>
      <point x="274" y="646" type="line"/>
      <point x="381" y="728" type="line"/>
      <point x="432" y="728" type="line"/>
    </contour>
  </outline>
</glyph>
<glyph name="uni01DB" format="1">
  <advance width="722"/>
  <unicode hex="01DB"/>
  <outline>
    <contour>
      <point x="357" y="-10" type="curve" smooth="yes"/>
      <point x="187" y="-10"/>
      <point x="77" y="87"/>
      <point x="77" y="250" type="curve" smooth="yes"/>
      <point x="77" y="688" type="line"/>
      <point x="170" y="688" type="line"/>
      <point x="170" y="258" type="line" smooth="yes"/>
      <point x="170" y="133"/>
      <point x="236" y="66"/>
      <point x="356" y="66" type="curve" smooth="yes"/>
      <point x="480" y="66"/>
      <point x="552" y="135"/>
      <point x="552" y="264" type="curve" smooth="yes"/>
      <point x="552" y="688" type="line"/>
      <point x="645" y="688" type="line"/>
      <point x="645" y="259" type="line" smooth="yes"/>
      <point x="645" y="90"/>
      <point x="532" y="-10"/>
    </contour>
    <contour>
      <point x="336" y="896" type="line"/>
      <point x="417" y="812" type="line"/>
      <point x="417" y="807" type="line"/>
      <point x="354" y="807" type="line"/>
      <point x="226" y="890" type="line"/>
      <point x="226" y="896" type="line"/>
    </contour>
    <contour>
      <point x="300" y="707" type="line"/>
      <point x="221" y="707" type="line"/>
      <point x="221" y="797" type="line"/>
      <point x="300" y="797" type="line"/>
    </contour>
    <contour>
      <point x="512" y="707" type="line"/>
      <point x="433" y="707" type="line"/>
      <point x="433" y="797" type="line"/>
      <point x="512" y="797" type="line"/>
    </contour>
  </outline>
</glyph>
<glyph name="uni01DE" format="1">
  <advance width="667"/>
  <unicode hex="01DE"/>
  <outline>
    <contour>
      <point x="665" y="0" type="line"/>
      <point x="570" y="0" type="line"/>
      <point x="491" y="201" type="line"/>
      <point x="178" y="201" type="line"/>
      <point x="99" y="0" type="line"/>
      <point x="2" y="0" type="line"/>
      <point x="283" y="688" type="line"/>
      <point x="389" y="688" type="line"/>
    </contour>
    <contour>
      <point x="348" y="577" type="curve" smooth="yes"/>
      <point x="334" y="618" type="line"/>
      <point x="330" y="604" type="line" smooth="yes"/>
      <point x="322" y="577"/>
      <point x="310" y="542"/>
      <point x="294" y="500" type="curve" smooth="yes"/>
      <point x="206" y="274" type="line"/>
      <point x="463" y="274" type="line"/>
      <point x="375" y="501" type="line" smooth="yes"/>
      <point x="366" y="524"/>
      <point x="357" y="549"/>
    </contour>
    <contour>
      <point x="482" y="712" type="line"/>
      <point x="402" y="712" type="line"/>
      <point x="402" y="802" type="line"/>
      <point x="482" y="802" type="line"/>
    </contour>
    <contour>
      <point x="270" y="712" type="line"/>
      <point x="190" y="712" type="line"/>
      <point x="190" y="802" type="line"/>
      <point x="270" y="802" type="line"/>
    </contour>
    <contour>
      <point x="470" y="896" type="line"/>
      <point x="470" y="834" type="line"/>
      <point x="202" y="834" type="line"/>
      <point x="202" y="896" type="line"/>
    </contour>
  </outline>
</glyph>
<glyph name="uni01E2" format="1">
  <advance width="1000"/>
  <unicode hex="01E2"/>
  <outline>
    <contour>
      <point x="957" y="0" type="line"/>
      <point x="473" y="0" type="line"/>
      <point x="473" y="201" type="line"/>
      <point x="206" y="201" type="line"/>
      <point x="109" y="0" type="line"/>
      <point x="12" y="0" type="line"/>
      <point x="347" y="688" type="line"/>
      <point x="937" y="688" type="line"/>
      <point x="937" y="612" type="line"/>
      <point x="566" y="612" type="line"/>
      <point x="566" y="391" type="line"/>
      <point x="908" y="391" type="line"/>
      <point x="908" y="316" type="line"/>
      <point x="566" y="316" type="line"/>
      <point x="566" y="76" type="line"/>
      <point x="957" y="76" type="line"/>
    </contour>
    <contour>
      <point x="473" y="274" type="line"/>
      <point x="473" y="616" type="line"/>
      <point x="399" y="616" type="line"/>
      <point x="386" y="585" type="line"/>
      <point x="240" y="274" type="line"/>
    </contour>
    <contour>
      <point x="776" y="826" type="line"/>
      <point x="776" y="764" type="line"/>
      <point x="508" y="764" type="line"/>
      <point x="508" y="826" type="line"/>
    </contour>
  </outline>
</glyph>
<glyph name="gcaron" format="1">
  <advance width="556"/>
  <unicode hex="01E7"/>
  <outline>
    <contour>
      <point x="268" y="-208" type="curve" smooth="yes"/>
      <point x="152" y="-208"/>
      <point x="84" y="-161"/>
      <point x="64" y="-77" type="curve"/>
      <point x="152" y="-64" type="line"/>
      <point x="164" y="-113"/>
      <point x="205" y="-141"/>
      <point x="270" y="-141" type="curve" smooth="yes"/>
      <point x="357" y="-141"/>
      <point x="401" y="-90"/>
      <point x="401" y="13" type="curve" smooth="yes"/>
      <point x="401" y="98" type="line"/>
      <point x="400" y="98" type="line"/>
      <point x="367" y="30"/>
      <point x="309" y="-4"/>
      <point x="230" y="-4" type="curve" smooth="yes"/>
      <point x="101" y="-4"/>
      <point x="42" y="79"/>
      <point x="42" y="263" type="curve" smooth="yes"/>
      <point x="42" y="450"/>
      <point x="107" y="537"/>
      <point x="240" y="537" type="curve" smooth="yes"/>
      <point x="315" y="537"/>
      <point x="372" y="501"/>
      <point x="401" y="438" type="curve"/>
      <point x="402" y="438" type="line"/>
      <point x="402" y="448"/>
      <point x="403" y="465"/>
      <point x="404" y="489" type="curve" smooth="yes"/>
      <point x="405" y="513"/>
      <point x="407" y="526"/>
      <point x="408" y="528" type="curve" smooth="yes"/>
      <point x="492" y="528" type="line"/>
      <point x="490" y="511"/>
      <point x="489" y="474"/>
      <point x="489" y="419" type="curve" smooth="yes"/>
      <point x="489" y="15" type="line" smooth="yes"/>
      <point x="489" y="-134"/>
      <point x="415" y="-208"/>
    </contour>
    <contour>
      <point x="401" y="264" type="curve" smooth="yes"/>
      <point x="401" y="394"/>
      <point x="343" y="471"/>
      <point x="262" y="471" type="curve" smooth="yes"/>
      <point x="171" y="471"/>
      <point x="133" y="411"/>
      <point x="133" y="264" type="curve" smooth="yes"/>
      <point x="133" y="120"/>
      <point x="167" y="61"/>
      <point x="260" y="61" type="curve" smooth="yes"/>
      <point x="345" y="61"/>
      <point x="401" y="138"/>
    </contour>
    <contour>
      <point x="415" y="718" type="line"/>
      <point x="306" y="586" type="line"/>
      <point x="206" y="586" type="line"/>
      <point x="92" y="718" type="line"/>
      <point x="92" y="728" type="line"/>
      <point x="143" y="728" type="line"/>
      <point x="256" y="646" type="line"/>
      <point x="257" y="646" type="line"/>
      <point x="364" y="728" type="line"/>
      <point x="415" y="728" type="line"/>
    </contour>
  </outline>
</glyph>
<glyph name="uni01E9" format="1">
  <advance width="500"/>
  <unicode hex="01E9"/>
  <outline>
    <contour>
      <point x="501" y="0" type="line"/>
      <point x="398" y="0" type="line"/>
      <point x="220" y="241" type="line"/>
      <point x="155" y="188" type="line"/>
      <point x="155" y="0" type="line"/>
      <point x="67" y="0" type="line"/>
      <point x="67" y="725" type="line"/>
      <point x="155" y="725" type="line"/>
      <point x="155" y="272" type="line"/>
      <point x="387" y="528" type="line"/>
      <point x="490" y="528" type="line"/>
      <point x="276" y="301" type="line"/>
    </contour>
    <contour>
      <point x="421" y="874" type="line"/>
      <point x="312" y="757" type="line"/>
      <point x="212" y="757" type="line"/>
      <point x="98" y="874" type="line"/>
      <point x="98" y="884" type="line"/>
      <point x="148" y="884" type="line"/>
      <point x="262" y="816" type="line"/>
      <point x="263" y="816" type="line"/>
      <point x="370" y="884" type="line"/>
      <point x="421" y="884" type="line"/>
    </contour>
  </outline>
</glyph>
<glyph name="uni01EE" format="1">
  <advance width="611"/>
  <unicode hex="01EE"/>
  <outline>
    <contour>
      <point x="204" y="302" type="line"/>
      <point x="204" y="371" type="line"/>
      <point x="448" y="612" type="line"/>
      <point x="55" y="612" type="line"/>
      <point x="55" y="688" type="line"/>
      <point x="552" y="688" type="line"/>
      <point x="552" y="609" type="line"/>
      <point x="306" y="370" type="line"/>
      <point x="482" y="358"/>
      <point x="577" y="259"/>
      <point x="577" y="83" type="curve" smooth="yes"/>
      <point x="580" y="-85"/>
      <point x="459" y="-212"/>
      <point x="299" y="-208" type="curve" smooth="yes"/>
      <point x="164" y="-208"/>
      <point x="77" y="-157"/>
      <point x="22" y="-38" type="curve"/>
      <point x="101" y="-3" type="line"/>
      <point x="140" y="-91"/>
      <point x="205" y="-135"/>
      <point x="296" y="-135" type="curve" smooth="yes"/>
      <point x="413" y="-135"/>
      <point x="485" y="-56"/>
      <point x="485" y="83" type="curve" smooth="yes"/>
      <point x="485" y="223"/>
      <point x="398" y="302"/>
      <point x="239" y="302" type="curve" smooth="yes"/>
    </contour>
    <contour>
      <point x="464" y="864" type="line"/>
      <point x="355" y="747" type="line"/>
      <point x="255" y="747" type="line"/>
      <point x="141" y="864" type="line"/>
      <point x="141" y="874" type="line"/>
      <point x="192" y="874" type="line"/>
      <point x="305" y="806" type="line"/>
      <point x="306" y="806" type="line"/>
      <point x="413" y="874" type="line"/>
      <point x="464" y="874" type="line"/>
    </contour>
  </outline>
</glyph>
<glyph name="uni01F6" format="1">
  <advance width="1034"/>
  <unicode hex="01F6"/>
  <outline>
    <contour>
      <point x="641" y="688" type="line"/>
      <point x="641" y="192" type="line" smooth="yes"/>
      <point x="641" y="97"/>
      <point x="677" y="57"/>
      <point x="761" y="57" type="curve" smooth="yes"/>
      <point x="844" y="57"/>
      <point x="880" y="96"/>
      <point x="880" y="192" type="curve" smooth="yes"/>
      <point x="880" y="528" type="line"/>
      <point x="969" y="528" type="line"/>
      <point x="969" y="178" type="line" smooth="yes"/>
      <point x="969" y="63"/>
      <point x="891" y="-10"/>
      <point x="760" y="-10" type="curve" smooth="yes"/>
      <point x="628" y="-10"/>
      <point x="547" y="61"/>
      <point x="547" y="177" type="curve" smooth="yes"/>
      <point x="547" y="319" type="line"/>
      <point x="175" y="319" type="line"/>
      <point x="175" y="0" type="line"/>
      <point x="82" y="0" type="line"/>
      <point x="82" y="688" type="line"/>
      <point x="175" y="688" type="line"/>
      <point x="175" y="397" type="line"/>
      <point x="547" y="397" type="line"/>
      <point x="547" y="688" type="line"/>
    </contour>
  </outline>
</glyph>
<glyph name="uni01F7" format="1">
  <advance width="618"/>
  <unicode hex="01F7"/>
  <outline>
    <contour>
      <point x="575" y="455" type="curve" smooth="yes"/>
      <point x="575" y="384"/>
      <point x="557" y="312"/>
      <point x="520" y="238" type="curve" smooth="yes"/>
      <point x="483" y="164"/>
      <point x="434" y="99"/>
      <point x="372" y="42" type="curve" smooth="yes"/>
      <point x="310" y="-15"/>
      <point x="244" y="-55"/>
      <point x="175" y="-78" type="curve"/>
      <point x="175" y="-208" type="line"/>
      <point x="82" y="-208" type="line"/>
      <point x="82" y="688" type="line"/>
      <point x="172" y="688" type="line"/>
      <point x="172" y="608" type="line"/>
      <point x="213" y="665"/>
      <point x="277" y="698"/>
      <point x="350" y="698" type="curve" smooth="yes"/>
      <point x="494" y="698"/>
      <point x="575" y="618"/>
    </contour>
    <contour>
      <point x="479" y="455" type="curve" smooth="yes"/>
      <point x="479" y="563"/>
      <point x="433" y="623"/>
      <point x="338" y="623" type="curve" smooth="yes"/>
      <point x="245" y="623"/>
      <point x="175" y="542"/>
      <point x="175" y="444" type="curve" smooth="yes"/>
      <point x="175" y="1" type="line"/>
      <point x="333" y="51"/>
      <point x="484" y="282"/>
    </contour>
  </outline>
</glyph>
<glyph name="uni0204" format="1">
  <advance width="667"/>
  <unicode hex="0204"/>
  <outline>
    <contour>
      <point x="624" y="0" type="line"/>
      <point x="82" y="0" type="line"/>
      <point x="82" y="688" type="line"/>
      <point x="604" y="688" type="line"/>
      <point x="604" y="612" type="line"/>
      <point x="175" y="612" type="line"/>
      <point x="175" y="391" type="line"/>
      <point x="575" y="391" type="line"/>
      <point x="575" y="316" type="line"/>
      <point x="175" y="316" type="line"/>
      <point x="175" y="76" type="line"/>
      <point x="624" y="76" type="line"/>
    </contour>
    <contour>
      <point x="495" y="763" type="line"/>
      <point x="449" y="763" type="line"/>
      <point x="288" y="899" type="line"/>
      <point x="288" y="913" type="line"/>
      <point x="389" y="913" type="line"/>
      <point x="495" y="773" type="line"/>
    </contour>
    <contour>
      <point x="326" y="763" type="line"/>
      <point x="280" y="763" type="line"/>
      <point x="119" y="899" type="line"/>
      <point x="119" y="913" type="line"/>
      <point x="220" y="913" type="line"/>
      <point x="326" y="773" type="line"/>
    </contour>
  </outline>
</glyph>
<glyph name="uni0208" format="1">
  <advance width="278"/>
  <unicode hex="0208"/>
  <outline>
    <contour>
      <point x="186" y="0" type="line"/>
      <point x="92" y="0" type="line"/>
      <point x="92" y="688" type="line"/>
      <point x="186" y="688" type="line"/>
    </contour>
    <contour>
      <point x="303" y="763" type="line"/>
      <point x="257" y="763" type="line"/>
      <point x="96" y="899" type="line"/>
      <point x="96" y="913" type="line"/>
      <point x="197" y="913" type="line"/>
      <point x="303" y="773" type="line"/>
    </contour>
    <contour>
      <point x="133" y="763" type="line"/>
      <point x="87" y="763" type="line"/>
      <point x="-74" y="899" type="line"/>
      <point x="-74" y="913" type="line"/>
      <point x="27" y="913" type="line"/>
      <point x="133" y="773" type="line"/>
    </contour>
  </outline>
</glyph>
<glyph name="uni0209" format="1">
  <advance width="278"/>
  <unicode hex="0209"/>
  <outline>
    <contour>
      <point x="183" y="0" type="line"/>
      <point x="95" y="0" type="line"/>
      <point x="95" y="528" type="line"/>
      <point x="183" y="528" type="line"/>
    </contour>
    <contour>
      <point x="294" y="586" type="line"/>
      <point x="248" y="586" type="line"/>
      <point x="87" y="722" type="line"/>
      <point x="87" y="736" type="line"/>
      <point x="188" y="736" type="line"/>
      <point x="294" y="596" type="line"/>
    </contour>
    <contour>
      <point x="125" y="586" type="line"/>
      <point x="79" y="586" type="line"/>
      <point x="-83" y="722" type="line"/>
      <point x="-83" y="736" type="line"/>
      <point x="19" y="736" type="line"/>
      <point x="125" y="596" type="line"/>
    </contour>
  </outline>
</glyph>
<glyph name="uni020B" format="1">
  <advance width="278"/>
  <unicode hex="020B"/>
  <outline>
    <contour>
      <point x="183" y="0" type="line"/>
      <point x="95" y="0" type="line"/>
      <point x="95" y="528" type="line"/>
      <point x="183" y="528" type="line"/>
    </contour>
    <contour>
      <point x="140" y="716" type="curve" smooth="yes"/>
      <point x="217" y="716"/>
      <point x="270" y="669"/>
      <point x="282" y="589" type="curve"/>
      <point x="231" y="589" type="line"/>
      <point x="222" y="629"/>
      <point x="188" y="653"/>
      <point x="140" y="653" type="curve" smooth="yes"/>
      <point x="91" y="653"/>
      <point x="56" y="628"/>
      <point x="48" y="589" type="curve"/>
      <point x="-3" y="589" type="line"/>
      <point x="6" y="666"/>
      <point x="63" y="716"/>
    </contour>
  </outline>
</glyph>
<glyph name="uni020C" format="1">
  <advance width="778"/>
  <unicode hex="020C"/>
  <outline>
    <contour>
      <point x="730" y="347" type="curve" smooth="yes"/>
      <point x="730" y="129"/>
      <point x="598" y="-10"/>
      <point x="388" y="-10" type="curve" smooth="yes"/>
      <point x="175" y="-10"/>
      <point x="47" y="128"/>
      <point x="47" y="347" type="curve" smooth="yes"/>
      <point x="47" y="457"/>
      <point x="77" y="543"/>
      <point x="137" y="605" type="curve" smooth="yes"/>
      <point x="198" y="667"/>
      <point x="282" y="698"/>
      <point x="389" y="698" type="curve" smooth="yes"/>
      <point x="600" y="698"/>
      <point x="730" y="567"/>
    </contour>
    <contour>
      <point x="635" y="347" type="curve" smooth="yes"/>
      <point x="635" y="519"/>
      <point x="545" y="622"/>
      <point x="389" y="622" type="curve" smooth="yes"/>
      <point x="232" y="622"/>
      <point x="142" y="522"/>
      <point x="142" y="347" type="curve" smooth="yes"/>
      <point x="142" y="261"/>
      <point x="164" y="193"/>
      <point x="207" y="142" type="curve" smooth="yes"/>
      <point x="250" y="91"/>
      <point x="311" y="66"/>
      <point x="388" y="66" type="curve" smooth="yes"/>
      <point x="547" y="66"/>
      <point x="635" y="168"/>
    </contour>
    <contour>
      <point x="535" y="763" type="line"/>
      <point x="489" y="763" type="line"/>
      <point x="328" y="899" type="line"/>
      <point x="328" y="913" type="line"/>
      <point x="429" y="913" type="line"/>
      <point x="535" y="773" type="line"/>
    </contour>
    <contour>
      <point x="366" y="763" type="line"/>
      <point x="320" y="763" type="line"/>
      <point x="159" y="899" type="line"/>
      <point x="159" y="913" type="line"/>
      <point x="260" y="913" type="line"/>
      <point x="366" y="773" type="line"/>
    </contour>
  </outline>
</glyph>
<glyph name="uni0210" format="1">
  <advance width="722"/>
  <unicode hex="0210"/>
  <outline>
    <contour>
      <point x="676" y="0" type="line"/>
      <point x="568" y="0" type="line"/>
      <point x="390" y="286" type="line"/>
      <point x="175" y="286" type="line"/>
      <point x="175" y="0" type="line"/>
      <point x="82" y="0" type="line"/>
      <point x="82" y="688" type="line"/>
      <point x="406" y="688" type="line" smooth="yes"/>
      <point x="561" y="688"/>
      <point x="648" y="615"/>
      <point x="648" y="491" type="curve" smooth="yes"/>
      <point x="648" y="390"/>
      <point x="585" y="315"/>
      <point x="480" y="296" type="curve"/>
    </contour>
    <contour>
      <point x="555" y="490" type="curve" smooth="yes"/>
      <point x="555" y="570"/>
      <point x="499" y="613"/>
      <point x="396" y="613" type="curve" smooth="yes"/>
      <point x="175" y="613" type="line"/>
      <point x="175" y="359" type="line"/>
      <point x="400" y="359" type="line" smooth="yes"/>
      <point x="499" y="359"/>
      <point x="555" y="407"/>
    </contour>
    <contour>
      <point x="491" y="763" type="line"/>
      <point x="445" y="763" type="line"/>
      <point x="284" y="899" type="line"/>
      <point x="284" y="913" type="line"/>
      <point x="385" y="913" type="line"/>
      <point x="491" y="773" type="line"/>
    </contour>
    <contour>
      <point x="322" y="763" type="line"/>
      <point x="276" y="763" type="line"/>
      <point x="115" y="899" type="line"/>
      <point x="115" y="913" type="line"/>
      <point x="216" y="913" type="line"/>
      <point x="322" y="773" type="line"/>
    </contour>
  </outline>
</glyph>
<glyph name="uni0214" format="1">
  <advance width="722"/>
  <unicode hex="0214"/>
  <outline>
    <contour>
      <point x="357" y="-10" type="curve" smooth="yes"/>
      <point x="187" y="-10"/>
      <point x="77" y="87"/>
      <point x="77" y="250" type="curve" smooth="yes"/>
      <point x="77" y="688" type="line"/>
      <point x="170" y="688" type="line"/>
      <point x="170" y="258" type="line" smooth="yes"/>
      <point x="170" y="133"/>
      <point x="236" y="66"/>
      <point x="356" y="66" type="curve" smooth="yes"/>
      <point x="480" y="66"/>
      <point x="552" y="135"/>
      <point x="552" y="264" type="curve" smooth="yes"/>
      <point x="552" y="688" type="line"/>
      <point x="645" y="688" type="line"/>
      <point x="645" y="259" type="line" smooth="yes"/>
      <point x="645" y="90"/>
      <point x="532" y="-10"/>
    </contour>
    <contour>
      <point x="525" y="763" type="line"/>
      <point x="479" y="763" type="line"/>
      <point x="318" y="899" type="line"/>
      <point x="318" y="913" type="line"/>
      <point x="419" y="913" type="line"/>
      <point x="525" y="773" type="line"/>
    </contour>
    <contour>
      <point x="356" y="763" type="line"/>
      <point x="310" y="763" type="line"/>
      <point x="149" y="899" type="line"/>
      <point x="149" y="913" type="line"/>
      <point x="250" y="913" type="line"/>
      <point x="356" y="773" type="line"/>
    </contour>
  </outline>
</glyph>
<glyph name="uni0216" format="1">
  <advance width="722"/>
  <unicode hex="0216"/>
  <outline>
    <contour>
      <point x="357" y="-10" type="curve" smooth="yes"/>
      <point x="187" y="-10"/>
      <point x="77" y="87"/>
      <point x="77" y="250" type="curve" smooth="yes"/>
      <point x="77" y="688" type="line"/>
      <point x="170" y="688" type="line"/>
      <point x="170" y="258" type="line" smooth="yes"/>
      <point x="170" y="133"/>
      <point x="236" y="66"/>
      <point x="356" y="66" type="curve" smooth="yes"/>
      <point x="480" y="66"/>
      <point x="552" y="135"/>
      <point x="552" y="264" type="curve" smooth="yes"/>
      <point x="552" y="688" type="line"/>
      <point x="645" y="688" type="line"/>
      <point x="645" y="259" type="line" smooth="yes"/>
      <point x="645" y="90"/>
      <point x="532" y="-10"/>
    </contour>
    <contour>
      <point x="369" y="893" type="curve" smooth="yes"/>
      <point x="446" y="893"/>
      <point x="499" y="846"/>
      <point x="511" y="766" type="curve"/>
      <point x="460" y="766" type="line"/>
      <point x="451" y="806"/>
      <point x="417" y="830"/>
      <point x="369" y="830" type="curve" smooth="yes"/>
      <point x="320" y="830"/>
      <point x="285" y="803"/>
      <point x="277" y="766" type="curve"/>
      <point x="226" y="766" type="line"/>
      <point x="235" y="843"/>
      <point x="292" y="893"/>
    </contour>
  </outline>
</glyph>
<glyph name="Scommaaccent" format="1">
  <advance width="667"/>
  <unicode hex="0218"/>
  <outline>
    <contour>
      <point x="621" y="190" type="curve" smooth="yes"/>
      <point x="621" y="63"/>
      <point x="517" y="-10"/>
      <point x="337" y="-10" type="curve" smooth="yes"/>
      <point x="169" y="-10"/>
      <point x="72" y="48"/>
      <point x="45" y="165" type="curve"/>
      <point x="136" y="183" type="line"/>
      <point x="156" y="100"/>
      <point x="224" y="63"/>
      <point x="340" y="63" type="curve" smooth="yes"/>
      <point x="461" y="63"/>
      <point x="529" y="105"/>
      <point x="529" y="185" type="curve" smooth="yes"/>
      <point x="529" y="275"/>
      <point x="442" y="291"/>
      <point x="318" y="317" type="curve" smooth="yes"/>
      <point x="210" y="341"/>
      <point x="160" y="365"/>
      <point x="128" y="394" type="curve" smooth="yes"/>
      <point x="96" y="423"/>
      <point x="78" y="463"/>
      <point x="78" y="514" type="curve" smooth="yes"/>
      <point x="78" y="633"/>
      <point x="171" y="698"/>
      <point x="339" y="698" type="curve" smooth="yes"/>
      <point x="495" y="698"/>
      <point x="572" y="655"/>
      <point x="605" y="540" type="curve"/>
      <point x="513" y="524" type="line"/>
      <point x="493" y="597"/>
      <point x="438" y="628"/>
      <point x="338" y="628" type="curve" smooth="yes"/>
      <point x="227" y="628"/>
      <point x="168" y="591"/>
      <point x="168" y="519" type="curve" smooth="yes"/>
      <point x="168" y="498"/>
      <point x="174" y="480"/>
      <point x="185" y="466" type="curve" smooth="yes"/>
      <point x="196" y="453"/>
      <point x="213" y="441"/>
      <point x="234" y="431" type="curve" smooth="yes"/>
      <point x="255" y="422"/>
      <point x="297" y="410"/>
      <point x="360" y="396" type="curve" smooth="yes"/>
      <point x="487" y="368"/>
      <point x="621" y="339"/>
    </contour>
    <contour>
      <point x="395" y="-48" type="line"/>
      <point x="395" y="-94" type="line" smooth="yes"/>
      <point x="395" y="-151"/>
      <point x="379" y="-181"/>
      <point x="354" y="-212" type="curve"/>
      <point x="296" y="-212" type="line"/>
      <point x="325" y="-180"/>
      <point x="342" y="-153"/>
      <point x="342" y="-124" type="curve"/>
      <point x="299" y="-124" type="line"/>
      <point x="299" y="-48" type="line"/>
    </contour>
  </outline>
</glyph>
<glyph name="uni021A" format="1">
  <advance width="611"/>
  <unicode hex="021A"/>
  <outline>
    <contour>
      <point x="588" y="612" type="line"/>
      <point x="352" y="612" type="line"/>
      <point x="352" y="0" type="line"/>
      <point x="259" y="0" type="line"/>
      <point x="259" y="612" type="line"/>
      <point x="22" y="612" type="line"/>
      <point x="22" y="688" type="line"/>
      <point x="588" y="688" type="line"/>
    </contour>
    <contour>
      <point x="354" y="-48" type="line"/>
      <point x="354" y="-94" type="line" smooth="yes"/>
      <point x="354" y="-151"/>
      <point x="340" y="-181"/>
      <point x="313" y="-212" type="curve"/>
      <point x="256" y="-212" type="line"/>
      <point x="285" y="-180"/>
      <point x="302" y="-153"/>
      <point x="302" y="-124" type="curve"/>
      <point x="259" y="-124" type="line"/>
      <point x="259" y="-48" type="line"/>
    </contour>
  </outline>
</glyph>
<glyph name="uni021C" format="1">
  <advance width="545"/>
  <unicode hex="021C"/>
  <outline>
    <contour>
      <point x="497" y="176" type="curve" smooth="yes"/>
      <point x="497" y="3"/>
      <point x="353" y="-125"/>
      <point x="66" y="-208" type="curve"/>
      <point x="66" y="-127" type="line"/>
      <point x="290" y="-64"/>
      <point x="405" y="37"/>
      <point x="405" y="166" type="curve" smooth="yes"/>
      <point x="405" y="213"/>
      <point x="390" y="260"/>
      <point x="366" y="285" type="curve"/>
      <point x="309" y="241"/>
      <point x="209" y="195"/>
      <point x="66" y="148" type="curve"/>
      <point x="66" y="233" type="line"/>
      <point x="187" y="270"/>
      <point x="274" y="308"/>
      <point x="326" y="347" type="curve" smooth="yes"/>
      <point x="379" y="386"/>
      <point x="405" y="433"/>
      <point x="405" y="487" type="curve" smooth="yes"/>
      <point x="405" y="575"/>
      <point x="358" y="620"/>
      <point x="269" y="620" type="curve" smooth="yes"/>
      <point x="194" y="620"/>
      <point x="146" y="597"/>
      <point x="106" y="526" type="curve"/>
      <point x="31" y="564" type="line"/>
      <point x="87" y="659"/>
      <point x="164" y="699"/>
      <point x="273" y="699" type="curve" smooth="yes"/>
      <point x="406" y="699"/>
      <point x="495" y="617"/>
      <point x="495" y="501" type="curve" smooth="yes"/>
      <point x="495" y="472"/>
      <point x="490" y="447"/>
      <point x="481" y="424" type="curve" smooth="yes"/>
      <point x="472" y="402"/>
      <point x="454" y="376"/>
      <point x="426" y="346" type="curve"/>
      <point x="469" y="306"/>
      <point x="497" y="247"/>
    </contour>
  </outline>
</glyph>
<glyph name="uni021D" format="1">
  <advance width="437"/>
  <unicode hex="021D"/>
  <outline>
    <contour>
      <point x="397" y="83" type="curve" smooth="yes"/>
      <point x="397" y="-52"/>
      <point x="287" y="-149"/>
      <point x="43" y="-208" type="curve"/>
      <point x="43" y="-132" type="line"/>
      <point x="160" y="-101"/>
      <point x="215" y="-74"/>
      <point x="251" y="-43" type="curve" smooth="yes"/>
      <point x="288" y="-12"/>
      <point x="310" y="26"/>
      <point x="310" y="73" type="curve" smooth="yes"/>
      <point x="310" y="118"/>
      <point x="295" y="160"/>
      <point x="274" y="179" type="curve"/>
      <point x="215" y="145"/>
      <point x="138" y="117"/>
      <point x="43" y="96" type="curve"/>
      <point x="43" y="168" type="line"/>
      <point x="224" y="208"/>
      <point x="310" y="276"/>
      <point x="310" y="371" type="curve" smooth="yes"/>
      <point x="310" y="442"/>
      <point x="279" y="473"/>
      <point x="214" y="473" type="curve" smooth="yes"/>
      <point x="149" y="473"/>
      <point x="120" y="446"/>
      <point x="101" y="387" type="curve"/>
      <point x="16" y="403" type="line"/>
      <point x="46" y="500"/>
      <point x="98" y="538"/>
      <point x="213" y="538" type="curve" smooth="yes"/>
      <point x="337" y="538"/>
      <point x="397" y="485"/>
      <point x="397" y="368" type="curve" smooth="yes"/>
      <point x="397" y="317"/>
      <point x="379" y="270"/>
      <point x="342" y="229" type="curve"/>
      <point x="374" y="201"/>
      <point x="397" y="147"/>
    </contour>
  </outline>
</glyph>
<glyph name="uni021E" format="1">
  <advance width="722"/>
  <unicode hex="021E"/>
  <outline>
    <contour>
      <point x="641" y="0" type="line"/>
      <point x="547" y="0" type="line"/>
      <point x="547" y="319" type="line"/>
      <point x="175" y="319" type="line"/>
      <point x="175" y="0" type="line"/>
      <point x="82" y="0" type="line"/>
      <point x="82" y="688" type="line"/>
      <point x="175" y="688" type="line"/>
      <point x="175" y="397" type="line"/>
      <point x="547" y="397" type="line"/>
      <point x="547" y="688" type="line"/>
      <point x="641" y="688" type="line"/>
    </contour>
    <contour>
      <point x="521" y="864" type="line"/>
      <point x="412" y="747" type="line"/>
      <point x="312" y="747" type="line"/>
      <point x="198" y="864" type="line"/>
      <point x="198" y="874" type="line"/>
      <point x="249" y="874" type="line"/>
      <point x="362" y="806" type="line"/>
      <point x="363" y="806" type="line"/>
      <point x="470" y="874" type="line"/>
      <point x="521" y="874" type="line"/>
    </contour>
  </outline>
</glyph>
<glyph name="uni0220" format="1">
  <advance width="706"/>
  <unicode hex="0220"/>
  <outline>
    <contour>
      <point x="626" y="-208" type="line"/>
      <point x="534" y="-208" type="line"/>
      <point x="534" y="458" type="line" smooth="yes"/>
      <point x="534" y="581"/>
      <point x="494" y="625"/>
      <point x="379" y="625" type="curve" smooth="yes"/>
      <point x="307" y="625"/>
      <point x="225" y="590"/>
      <point x="172" y="537" type="curve"/>
      <point x="172" y="0" type="line"/>
      <point x="80" y="0" type="line"/>
      <point x="80" y="688" type="line"/>
      <point x="171" y="688" type="line"/>
      <point x="171" y="614" type="line"/>
      <point x="220" y="666"/>
      <point x="311" y="698"/>
      <point x="408" y="698" type="curve" smooth="yes"/>
      <point x="560" y="698"/>
      <point x="626" y="625"/>
      <point x="626" y="458" type="curve" smooth="yes"/>
    </contour>
  </outline>
</glyph>
<glyph name="uni0221" format="1">
  <advance width="682"/>
  <unicode hex="0221"/>
  <outline>
    <contour>
      <point x="403" y="85" type="line"/>
      <point x="401" y="85" type="line"/>
      <point x="368" y="17"/>
      <point x="316" y="-10"/>
      <point x="236" y="-10" type="curve" smooth="yes"/>
      <point x="103" y="-10"/>
      <point x="42" y="79"/>
      <point x="42" y="262" type="curve" smooth="yes"/>
      <point x="42" y="446"/>
      <point x="107" y="538"/>
      <point x="236" y="538" type="curve" smooth="yes"/>
      <point x="316" y="538"/>
      <point x="368" y="510"/>
      <point x="401" y="446" type="curve"/>
      <point x="402" y="446" type="line"/>
      <point x="401" y="505" type="line"/>
      <point x="401" y="725" type="line"/>
      <point x="489" y="725" type="line"/>
      <point x="489" y="109" type="line"/>
      <point x="490" y="31" type="line"/>
      <point x="511" y="38"/>
      <point x="531" y="42"/>
      <point x="551" y="42" type="curve" smooth="yes"/>
      <point x="634" y="42"/>
      <point x="682" y="-3"/>
      <point x="682" y="-82" type="curve" smooth="yes"/>
      <point x="682" y="-160"/>
      <point x="622" y="-208"/>
      <point x="550" y="-208" type="curve" smooth="yes"/>
      <point x="490" y="-208"/>
      <point x="447" y="-177"/>
      <point x="421" y="-115" type="curve"/>
      <point x="345" y="-208" type="line"/>
      <point x="291" y="-151" type="line"/>
      <point x="330" y="-96"/>
      <point x="368" y="-52"/>
      <point x="403" y="-21" type="curve"/>
    </contour>
    <contour>
      <point x="134" y="265" type="curve" smooth="yes"/>
      <point x="134" y="117"/>
      <point x="171" y="58"/>
      <point x="259" y="58" type="curve" smooth="yes"/>
      <point x="358" y="58"/>
      <point x="401" y="126"/>
      <point x="401" y="271" type="curve" smooth="yes"/>
      <point x="401" y="410"/>
      <point x="357" y="473"/>
      <point x="260" y="473" type="curve" smooth="yes"/>
      <point x="171" y="473"/>
      <point x="134" y="412"/>
    </contour>
    <contour>
      <point x="606" y="-83" type="curve" smooth="yes"/>
      <point x="606" y="-52"/>
      <point x="587" y="-28"/>
      <point x="550" y="-28" type="curve" smooth="yes"/>
      <point x="525" y="-28"/>
      <point x="506" y="-39"/>
      <point x="485" y="-52" type="curve"/>
      <point x="485" y="-104"/>
      <point x="510" y="-137"/>
      <point x="550" y="-137" type="curve" smooth="yes"/>
      <point x="583" y="-137"/>
      <point x="606" y="-118"/>
    </contour>
  </outline>
</glyph>
<glyph name="uni0222" format="1">
  <advance width="604"/>
  <unicode hex="0222"/>
  <outline>
    <contour>
      <point x="312" y="633" type="curve"/>
      <point x="312" y="698" type="line"/>
      <point x="453" y="695"/>
      <point x="540" y="626"/>
      <point x="540" y="521" type="curve" smooth="yes"/>
      <point x="540" y="440"/>
      <point x="490" y="378"/>
      <point x="409" y="362" type="curve"/>
      <point x="409" y="360" type="line"/>
      <point x="502" y="347"/>
      <point x="558" y="283"/>
      <point x="558" y="191" type="curve" smooth="yes"/>
      <point x="558" y="66"/>
      <point x="462" y="-10"/>
      <point x="302" y="-10" type="curve" smooth="yes"/>
      <point x="138" y="-10"/>
      <point x="45" y="65"/>
      <point x="45" y="190" type="curve" smooth="yes"/>
      <point x="45" y="281"/>
      <point x="106" y="347"/>
      <point x="193" y="359" type="curve"/>
      <point x="193" y="361" type="line"/>
      <point x="104" y="385"/>
      <point x="63" y="424"/>
      <point x="63" y="488" type="curve" smooth="yes"/>
      <point x="63" y="577"/>
      <point x="139" y="628"/>
      <point x="282" y="631" type="curve"/>
      <point x="282" y="567" type="line"/>
      <point x="193" y="564"/>
      <point x="151" y="539"/>
      <point x="151" y="484" type="curve" smooth="yes"/>
      <point x="151" y="425"/>
      <point x="209" y="395"/>
      <point x="301" y="395" type="curve" smooth="yes"/>
      <point x="397" y="395"/>
      <point x="450" y="437"/>
      <point x="450" y="516" type="curve" smooth="yes"/>
      <point x="450" y="585"/>
      <point x="401" y="629"/>
    </contour>
    <contour>
      <point x="468" y="199" type="curve" smooth="yes"/>
      <point x="468" y="280"/>
      <point x="404" y="328"/>
      <point x="300" y="328" type="curve" smooth="yes"/>
      <point x="199" y="328"/>
      <point x="135" y="275"/>
      <point x="135" y="190" type="curve" smooth="yes"/>
      <point x="135" y="106"/>
      <point x="195" y="59"/>
      <point x="303" y="59" type="curve" smooth="yes"/>
      <point x="413" y="59"/>
      <point x="468" y="106"/>
    </contour>
  </outline>
</glyph>
<glyph name="uni0225" format="1">
  <advance width="500"/>
  <unicode hex="0225"/>
  <outline>
    <contour>
      <point x="24" y="0" type="line"/>
      <point x="24" y="67" type="line"/>
      <point x="347" y="460" type="line"/>
      <point x="43" y="460" type="line"/>
      <point x="43" y="528" type="line"/>
      <point x="446" y="528" type="line"/>
      <point x="446" y="461" type="line"/>
      <point x="123" y="68" type="line"/>
      <point x="341" y="68" type="line" smooth="yes"/>
      <point x="437" y="68"/>
      <point x="478" y="32"/>
      <point x="478" y="-43" type="curve" smooth="yes"/>
      <point x="478" y="-66"/>
      <point x="475" y="-92"/>
      <point x="469" y="-120" type="curve"/>
      <point x="393" y="-103" type="line"/>
      <point x="400" y="-87"/>
      <point x="403" y="-73"/>
      <point x="403" y="-60" type="curve" smooth="yes"/>
      <point x="403" y="-19"/>
      <point x="380" y="0"/>
      <point x="331" y="0" type="curve" smooth="yes"/>
    </contour>
  </outline>
</glyph>
<glyph name="uni0228" format="1">
  <advance width="667"/>
  <unicode hex="0228"/>
  <outline>
    <contour>
      <point x="624" y="0" type="line"/>
      <point x="82" y="0" type="line"/>
      <point x="82" y="688" type="line"/>
      <point x="604" y="688" type="line"/>
      <point x="604" y="612" type="line"/>
      <point x="175" y="612" type="line"/>
      <point x="175" y="391" type="line"/>
      <point x="575" y="391" type="line"/>
      <point x="575" y="316" type="line"/>
      <point x="175" y="316" type="line"/>
      <point x="175" y="76" type="line"/>
      <point x="624" y="76" type="line"/>
    </contour>
    <contour>
      <point x="461" y="-124" type="curve" smooth="yes"/>
      <point x="461" y="-183"/>
      <point x="416" y="-212"/>
      <point x="327" y="-212" type="curve" smooth="yes"/>
      <point x="308" y="-212"/>
      <point x="294" y="-211"/>
      <point x="283" y="-210" type="curve"/>
      <point x="283" y="-162" type="line"/>
      <point x="299" y="-164"/>
      <point x="313" y="-165"/>
      <point x="325" y="-165" type="curve" smooth="yes"/>
      <point x="373" y="-165"/>
      <point x="397" y="-152"/>
      <point x="397" y="-125" type="curve" smooth="yes"/>
      <point x="397" y="-100"/>
      <point x="375" y="-88"/>
      <point x="332" y="-88" type="curve" smooth="yes"/>
      <point x="318" y="-88"/>
      <point x="309" y="-88"/>
      <point x="304" y="-89" type="curve"/>
      <point x="336" y="0" type="line"/>
      <point x="388" y="0" type="line"/>
      <point x="369" y="-49" type="line"/>
      <point x="430" y="-50"/>
      <point x="461" y="-79"/>
    </contour>
  </outline>
</glyph>
<glyph name="uni022C" format="1">
  <advance width="778"/>
  <unicode hex="022C"/>
  <outline>
    <contour>
      <point x="730" y="347" type="curve" smooth="yes"/>
      <point x="730" y="129"/>
      <point x="598" y="-10"/>
      <point x="388" y="-10" type="curve" smooth="yes"/>
      <point x="175" y="-10"/>
      <point x="47" y="128"/>
      <point x="47" y="347" type="curve" smooth="yes"/>
      <point x="47" y="457"/>
      <point x="77" y="543"/>
      <point x="137" y="605" type="curve" smooth="yes"/>
      <point x="198" y="667"/>
      <point x="282" y="698"/>
      <point x="389" y="698" type="curve" smooth="yes"/>
      <point x="600" y="698"/>
      <point x="730" y="567"/>
    </contour>
    <contour>
      <point x="635" y="347" type="curve" smooth="yes"/>
      <point x="635" y="519"/>
      <point x="545" y="622"/>
      <point x="389" y="622" type="curve" smooth="yes"/>
      <point x="232" y="622"/>
      <point x="142" y="522"/>
      <point x="142" y="347" type="curve" smooth="yes"/>
      <point x="142" y="261"/>
      <point x="164" y="193"/>
      <point x="207" y="142" type="curve" smooth="yes"/>
      <point x="250" y="91"/>
      <point x="311" y="66"/>
      <point x="388" y="66" type="curve" smooth="yes"/>
      <point x="547" y="66"/>
      <point x="635" y="168"/>
    </contour>
    <contour>
      <point x="523" y="896" type="line"/>
      <point x="523" y="834" type="line"/>
      <point x="255" y="834" type="line"/>
      <point x="255" y="896" type="line"/>
    </contour>
    <contour>
      <point x="451" y="720" type="curve" smooth="yes"/>
      <point x="434" y="720"/>
      <point x="412" y="726"/>
      <point x="385" y="739" type="curve" smooth="yes"/>
      <point x="357" y="751"/>
      <point x="337" y="757"/>
      <point x="326" y="757" type="curve" smooth="yes"/>
      <point x="297" y="757"/>
      <point x="283" y="747"/>
      <point x="278" y="720" type="curve"/>
      <point x="233" y="720" type="line"/>
      <point x="246" y="797"/>
      <point x="266" y="810"/>
      <point x="328" y="815" type="curve" smooth="yes"/>
      <point x="345" y="815"/>
      <point x="368" y="809"/>
      <point x="395" y="797" type="curve" smooth="yes"/>
      <point x="422" y="784"/>
      <point x="441" y="778"/>
      <point x="452" y="778" type="curve" smooth="yes"/>
      <point x="484" y="778"/>
      <point x="496" y="791"/>
      <point x="500" y="815" type="curve"/>
      <point x="544" y="815" type="line"/>
      <point x="533" y="738"/>
      <point x="511" y="725"/>
    </contour>
  </outline>
</glyph>
<glyph name="uni022D" format="1">
  <advance width="556"/>
  <unicode hex="022D"/>
  <outline>
    <contour>
      <point x="514" y="265" type="curve" smooth="yes"/>
      <point x="514" y="80"/>
      <point x="431" y="-10"/>
      <point x="276" y="-10" type="curve" smooth="yes"/>
      <point x="121" y="-10"/>
      <point x="42" y="86"/>
      <point x="42" y="265" type="curve" smooth="yes"/>
      <point x="42" y="447"/>
      <point x="121" y="538"/>
      <point x="279" y="538" type="curve" smooth="yes"/>
      <point x="440" y="538"/>
      <point x="514" y="452"/>
    </contour>
    <contour>
      <point x="422" y="265" type="curve" smooth="yes"/>
      <point x="422" y="410"/>
      <point x="383" y="473"/>
      <point x="280" y="473" type="curve" smooth="yes"/>
      <point x="177" y="473"/>
      <point x="134" y="408"/>
      <point x="134" y="265" type="curve" smooth="yes"/>
      <point x="134" y="125"/>
      <point x="178" y="55"/>
      <point x="275" y="55" type="curve" smooth="yes"/>
      <point x="380" y="55"/>
      <point x="422" y="121"/>
    </contour>
    <contour>
      <point x="358" y="586" type="curve" smooth="yes"/>
      <point x="304" y="586"/>
      <point x="249" y="645"/>
      <point x="209" y="645" type="curve" smooth="yes"/>
      <point x="173" y="645"/>
      <point x="158" y="623"/>
      <point x="151" y="586" type="curve"/>
      <point x="107" y="586" type="line"/>
      <point x="118" y="683"/>
      <point x="144" y="712"/>
      <point x="206" y="717" type="curve"/>
      <point x="265" y="717"/>
      <point x="316" y="659"/>
      <point x="355" y="659" type="curve" smooth="yes"/>
      <point x="388" y="659"/>
      <point x="407" y="678"/>
      <point x="412" y="717" type="curve"/>
      <point x="457" y="717" type="line"/>
      <point x="446" y="621"/>
      <point x="414" y="586"/>
    </contour>
    <contour>
      <point x="411" y="827" type="line"/>
      <point x="411" y="765" type="line"/>
      <point x="143" y="765" type="line"/>
      <point x="143" y="827" type="line"/>
    </contour>
  </outline>
</glyph>
